<svg width="500" height="500" viewBox="0 0 500 500" fill="none" xmlns="http://www.w3.org/2000/svg">
<g clip-path="url(#clip0_550_1253)">
<path d="M550 -50H-50V550H550V-50Z" fill="white"/>
<path d="M550 -50H-50V550H550V-50Z" fill="#0A0A0A"/>
<mask id="mask0_550_1253" style="mask-type:luminance" maskUnits="userSpaceOnUse" x="460" y="460" width="9" height="10">
<path d="M460 460H468.38V469.255H460V460Z" fill="white"/>
</mask>
<g mask="url(#mask0_550_1253)">
<path d="M460.891 460.891H474.229V474.229H460.891V460.891Z" fill="#CD0000"/>
</g>
<mask id="mask1_550_1253" style="mask-type:luminance" maskUnits="userSpaceOnUse" x="31" y="37" width="8" height="425">
<path d="M31.3802 37.3334H38.6667V461.333H31.3802V37.3334Z" fill="white"/>
</mask>
<g mask="url(#mask1_550_1253)">
<path d="M24.6354 38.125H38.125V460.891H24.6354V38.125Z" fill="#CD0000"/>
</g>
<mask id="mask2_550_1253" style="mask-type:luminance" maskUnits="userSpaceOnUse" x="31" y="460" width="8" height="10">
<path d="M31.3802 460H38.6667V469.255H31.3802V460Z" fill="white"/>
</mask>
<g mask="url(#mask2_550_1253)">
<path d="M24.6354 460.891H38.125V474.229H24.6354V460.891Z" fill="#E80000"/>
</g>
<mask id="mask3_550_1253" style="mask-type:luminance" maskUnits="userSpaceOnUse" x="460" y="37" width="9" height="425">
<path d="M460 37.3334H468.38V461.333H460V37.3334Z" fill="white"/>
</mask>
<g mask="url(#mask3_550_1253)">
<path d="M460.891 38.125H474.229V460.891H460.891V38.125Z" fill="#CD0000"/>
</g>
<mask id="mask4_550_1253" style="mask-type:luminance" maskUnits="userSpaceOnUse" x="37" y="460" width="425" height="10">
<path d="M37.3333 460H461.333V469.255H37.3333V460Z" fill="white"/>
</mask>
<g mask="url(#mask4_550_1253)">
<path d="M38.125 460.891H460.891V474.229H38.125V460.891Z" fill="#CD0000"/>
</g>
<mask id="mask5_550_1253" style="mask-type:luminance" maskUnits="userSpaceOnUse" x="460" y="30" width="9" height="9">
<path d="M460 30.2552H468.38V38.6667H460V30.2552Z" fill="white"/>
</mask>
<g mask="url(#mask5_550_1253)">
<path d="M460.891 24.6355H474.229V38.1251H460.891V24.6355Z" fill="#CD0000"/>
</g>
<mask id="mask6_550_1253" style="mask-type:luminance" maskUnits="userSpaceOnUse" x="31" y="30" width="8" height="9">
<path d="M31.3802 30.2552H38.6667V38.6667H31.3802V30.2552Z" fill="white"/>
</mask>
<g mask="url(#mask6_550_1253)">
<path d="M24.6354 24.6355H38.125V38.1251H24.6354V24.6355Z" fill="#CD0000"/>
</g>
<mask id="mask7_550_1253" style="mask-type:luminance" maskUnits="userSpaceOnUse" x="37" y="30" width="425" height="9">
<path d="M37.3333 30.2552H461.333V38.6667H37.3333V30.2552Z" fill="white"/>
</mask>
<g mask="url(#mask7_550_1253)">
<path d="M38.125 24.6355H460.891V38.1251H38.125V24.6355Z" fill="#CD0000"/>
</g>
<path d="M275.89 381.404C272.4 381.404 269.275 380.841 266.515 379.716C263.749 378.581 261.541 376.899 259.89 374.675C258.233 372.456 257.358 369.779 257.265 366.654H269.64C269.817 368.419 270.431 369.768 271.473 370.695C272.515 371.628 273.874 372.091 275.556 372.091C277.275 372.091 278.64 371.695 279.64 370.904C280.64 370.102 281.14 368.997 281.14 367.591C281.14 366.414 280.744 365.44 279.952 364.675C279.161 363.898 278.181 363.268 277.015 362.779C275.858 362.279 274.223 361.711 272.098 361.07C269.015 360.112 266.494 359.164 264.536 358.216C262.588 357.258 260.916 355.857 259.515 354.008C258.108 352.148 257.411 349.716 257.411 346.716C257.411 342.273 259.015 338.794 262.223 336.279C265.442 333.768 269.64 332.508 274.806 332.508C280.067 332.508 284.306 333.768 287.515 336.279C290.733 338.794 292.463 342.294 292.702 346.779H280.119C280.02 345.237 279.452 344.029 278.411 343.154C277.369 342.268 276.036 341.82 274.411 341.82C272.994 341.82 271.853 342.195 270.994 342.945C270.129 343.695 269.702 344.773 269.702 346.175C269.702 347.716 270.421 348.919 271.869 349.779C273.327 350.643 275.598 351.57 278.681 352.57C281.765 353.612 284.27 354.612 286.202 355.57C288.129 356.518 289.796 357.898 291.202 359.716C292.603 361.523 293.306 363.857 293.306 366.716C293.306 369.44 292.608 371.914 291.223 374.133C289.848 376.357 287.838 378.128 285.202 379.445C282.577 380.753 279.473 381.404 275.89 381.404Z" fill="white"/>
<path d="M321.789 381.404C317.299 381.404 313.184 380.362 309.434 378.279C305.695 376.195 302.731 373.289 300.539 369.55C298.341 365.8 297.247 361.591 297.247 356.925C297.247 352.258 298.341 348.065 300.539 344.341C302.731 340.622 305.695 337.716 309.434 335.633C313.184 333.55 317.299 332.508 321.789 332.508C326.273 332.508 330.382 333.55 334.122 335.633C337.872 337.716 340.82 340.622 342.976 344.341C345.127 348.065 346.205 352.258 346.205 356.925C346.205 361.591 345.111 365.8 342.934 369.55C340.752 373.289 337.799 376.195 334.08 378.279C330.372 380.362 326.273 381.404 321.789 381.404ZM321.789 370.8C325.591 370.8 328.643 369.529 330.934 366.987C333.226 364.445 334.372 361.091 334.372 356.925C334.372 352.706 333.226 349.336 330.934 346.82C328.643 344.31 325.591 343.05 321.789 343.05C317.94 343.05 314.872 344.3 312.58 346.8C310.289 349.289 309.143 352.664 309.143 356.925C309.143 361.133 310.289 364.503 312.58 367.029C314.872 369.544 317.94 370.8 321.789 370.8Z" fill="white"/>
<path d="M374 381.404C369.511 381.404 365.396 380.362 361.646 378.279C357.906 376.195 354.943 373.289 352.75 369.55C350.552 365.8 349.459 361.591 349.459 356.925C349.459 352.258 350.552 348.065 352.75 344.341C354.943 340.622 357.906 337.716 361.646 335.633C365.396 333.55 369.511 332.508 374 332.508C378.485 332.508 382.594 333.55 386.334 335.633C390.084 337.716 393.031 340.622 395.188 344.341C397.339 348.065 398.417 352.258 398.417 356.925C398.417 361.591 397.323 365.8 395.146 369.55C392.964 373.289 390.011 376.195 386.292 378.279C382.584 380.362 378.485 381.404 374 381.404ZM374 370.8C377.802 370.8 380.854 369.529 383.146 366.987C385.438 364.445 386.584 361.091 386.584 356.925C386.584 352.706 385.438 349.336 383.146 346.82C380.854 344.31 377.802 343.05 374 343.05C370.151 343.05 367.084 344.3 364.792 346.8C362.5 349.289 361.354 352.664 361.354 356.925C361.354 361.133 362.5 364.503 364.792 367.029C367.084 369.544 370.151 370.8 374 370.8Z" fill="white"/>
<path d="M437.629 389.091L431.524 380.862C429.702 381.221 427.931 381.404 426.212 381.404C421.722 381.404 417.608 380.362 413.858 378.279C410.118 376.195 407.155 373.289 404.962 369.55C402.764 365.8 401.67 361.591 401.67 356.925C401.67 352.258 402.764 348.065 404.962 344.341C407.155 340.622 410.118 337.716 413.858 335.633C417.608 333.55 421.722 332.508 426.212 332.508C430.696 332.508 434.806 333.55 438.545 335.633C442.295 337.716 445.243 340.622 447.399 344.341C449.55 348.065 450.629 352.258 450.629 356.925C450.629 361.008 449.8 364.737 448.149 368.112C446.493 371.487 444.191 374.289 441.233 376.508L451.712 389.091H437.629ZM413.566 356.925C413.566 361.133 414.712 364.503 417.004 367.029C419.295 369.544 422.363 370.8 426.212 370.8C430.014 370.8 433.066 369.529 435.358 366.987C437.649 364.445 438.795 361.091 438.795 356.925C438.795 352.706 437.649 349.336 435.358 346.82C433.066 344.31 430.014 343.05 426.212 343.05C422.363 343.05 419.295 344.3 417.004 346.8C414.712 349.289 413.566 352.664 413.566 356.925Z" fill="white"/>
<path d="M206.062 446.404C202.572 446.404 199.447 445.841 196.687 444.716C193.921 443.581 191.713 441.899 190.062 439.675C188.405 437.456 187.53 434.779 187.437 431.654H199.812C199.989 433.419 200.603 434.768 201.645 435.695C202.687 436.628 204.046 437.091 205.728 437.091C207.447 437.091 208.812 436.695 209.812 435.904C210.812 435.102 211.312 433.997 211.312 432.591C211.312 431.414 210.916 430.44 210.124 429.675C209.332 428.898 208.353 428.268 207.187 427.779C206.03 427.279 204.395 426.711 202.27 426.07C199.187 425.112 196.666 424.164 194.707 423.216C192.759 422.258 191.088 420.857 189.687 419.008C188.28 417.148 187.582 414.716 187.582 411.716C187.582 407.273 189.187 403.794 192.395 401.279C195.614 398.768 199.812 397.508 204.978 397.508C210.239 397.508 214.478 398.768 217.687 401.279C220.905 403.794 222.634 407.294 222.874 411.779H210.291C210.192 410.237 209.624 409.029 208.582 408.154C207.541 407.268 206.207 406.82 204.582 406.82C203.166 406.82 202.025 407.195 201.166 407.945C200.301 408.695 199.874 409.773 199.874 411.175C199.874 412.716 200.593 413.919 202.041 414.779C203.499 415.643 205.77 416.57 208.853 417.57C211.937 418.612 214.442 419.612 216.374 420.57C218.301 421.518 219.968 422.898 221.374 424.716C222.775 426.523 223.478 428.857 223.478 431.716C223.478 434.44 222.78 436.914 221.395 439.133C220.02 441.357 218.009 443.128 215.374 444.445C212.749 445.753 209.645 446.404 206.062 446.404Z" fill="white"/>
<path d="M263.377 454.091L257.273 445.862C255.45 446.221 253.679 446.404 251.96 446.404C247.471 446.404 243.356 445.362 239.606 443.279C235.867 441.195 232.903 438.289 230.71 434.55C228.513 430.8 227.419 426.591 227.419 421.925C227.419 417.258 228.513 413.065 230.71 409.341C232.903 405.622 235.867 402.716 239.606 400.633C243.356 398.55 247.471 397.508 251.96 397.508C256.445 397.508 260.554 398.55 264.294 400.633C268.044 402.716 270.992 405.622 273.148 409.341C275.299 413.065 276.377 417.258 276.377 421.925C276.377 426.008 275.549 429.737 273.898 433.112C272.242 436.487 269.94 439.289 266.981 441.508L277.46 454.091H263.377ZM239.315 421.925C239.315 426.133 240.46 429.503 242.752 432.029C245.044 434.544 248.111 435.8 251.96 435.8C255.763 435.8 258.815 434.529 261.106 431.987C263.398 429.445 264.544 426.091 264.544 421.925C264.544 417.706 263.398 414.336 261.106 411.82C258.815 409.31 255.763 408.05 251.96 408.05C248.111 408.05 245.044 409.3 242.752 411.8C240.46 414.289 239.315 417.664 239.315 421.925Z" fill="white"/>
<path d="M293.162 398.195V426.758C293.162 429.607 293.86 431.8 295.266 433.341C296.667 434.883 298.73 435.654 301.454 435.654C304.173 435.654 306.256 434.883 307.704 433.341C309.162 431.8 309.891 429.607 309.891 426.758V398.195H321.516V426.675C321.516 430.94 320.605 434.544 318.787 437.487C316.98 440.435 314.542 442.654 311.475 444.154C308.417 445.654 305.006 446.404 301.246 446.404C297.48 446.404 294.11 445.669 291.141 444.195C288.183 442.727 285.839 440.503 284.121 437.529C282.397 434.56 281.537 430.94 281.537 426.675V398.195H293.162Z" fill="white"/>
<path d="M358.159 437.487H340.346L337.471 445.925H325.305L342.575 398.195H356.055L373.325 445.925H361.013L358.159 437.487ZM355.159 428.508L349.242 411.05L343.388 428.508H355.159Z" fill="white"/>
<path d="M401.664 445.925L391.727 427.904H388.956V445.925H377.31V398.195H396.831C400.591 398.195 403.8 398.857 406.456 400.175C409.107 401.482 411.086 403.279 412.393 405.57C413.711 407.862 414.373 410.414 414.373 413.216C414.373 416.383 413.477 419.216 411.685 421.716C409.893 424.216 407.253 425.987 403.768 427.029L414.789 445.925H401.664ZM388.956 419.675H396.143C398.279 419.675 399.878 419.154 400.935 418.112C402.003 417.07 402.539 415.602 402.539 413.695C402.539 411.878 402.003 410.445 400.935 409.404C399.878 408.362 398.279 407.841 396.143 407.841H388.956V419.675Z" fill="white"/>
<path d="M432.058 407.508V417.154H447.62V426.133H432.058V436.612H449.662V445.925H420.412V398.195H449.662V407.508H432.058Z" fill="white"/>
<mask id="mask8_550_1253" style="mask-type:luminance" maskUnits="userSpaceOnUse" x="50" y="71" width="145" height="147">
<path d="M50 71.9271H194.667V217.333H50V71.9271Z" fill="white"/>
</mask>
<g mask="url(#mask8_550_1253)">
<path d="M194.443 71.9271V116.37H183.333V83.0365H61.1094V205.26H94.4427V216.37H50V71.9271H194.443Z" fill="white"/>
</g>
<mask id="mask9_550_1253" style="mask-type:luminance" maskUnits="userSpaceOnUse" x="105" y="126" width="145" height="146">
<path d="M105.333 126.667H250V271.927H105.333V126.667Z" fill="white"/>
</mask>
<g mask="url(#mask9_550_1253)">
<path d="M105.557 127.479H250V271.927H105.557V127.479ZM116.667 260.812H238.891V138.594H116.667V260.812Z" fill="white"/>
</g>
<path d="M183.333 205.26V149.703H194.443V216.37H127.776V205.26H183.333Z" fill="white"/>
<mask id="mask10_550_1253" style="mask-type:luminance" maskUnits="userSpaceOnUse" x="126" y="142" width="21" height="37">
<path d="M126.828 142.146H146.667V178.667H126.828V142.146Z" fill="white"/>
</mask>
<g mask="url(#mask10_550_1253)">
<path fill-rule="evenodd" clip-rule="evenodd" d="M145.031 142.146H145.854V155.38H145.031C142.281 155.38 140.068 157.599 140.068 160.344C140.068 161.719 140.63 162.958 141.521 163.849C142.417 164.745 143.656 165.307 145.031 165.307H145.854V178.542H145.031C134.969 178.542 126.828 170.401 126.828 160.344C126.828 155.313 128.865 150.766 132.156 147.469C135.448 144.177 140 142.146 145.031 142.146Z" fill="#CD0000"/>
</g>
<mask id="mask11_550_1253" style="mask-type:luminance" maskUnits="userSpaceOnUse" x="126" y="188" width="21" height="15">
<path d="M126.828 188H146.667V202.146H126.828V188Z" fill="white"/>
</mask>
<g mask="url(#mask11_550_1253)">
<path fill-rule="evenodd" clip-rule="evenodd" d="M140.068 188.469H145.854V201.708H126.828C126.828 194.391 132.75 188.469 140.068 188.469Z" fill="white"/>
<path fill-rule="evenodd" clip-rule="evenodd" d="M145.854 188.469V195.089H140.068C132.984 195.089 127.193 197.87 126.844 201.359C127.01 194.208 132.87 188.469 140.068 188.469H145.854Z" fill="white"/>
</g>
<mask id="mask12_550_1253" style="mask-type:luminance" maskUnits="userSpaceOnUse" x="153" y="164" width="20" height="39">
<path d="M153.333 164H172.828V202.146H153.333V164Z" fill="white"/>
</mask>
<g mask="url(#mask12_550_1253)">
<path fill-rule="evenodd" clip-rule="evenodd" d="M173.156 183.505C173.156 188.536 171.12 193.083 167.828 196.38C164.521 199.672 159.984 201.708 154.958 201.708H154.13V188.469H154.958C157.703 188.469 159.917 186.25 159.917 183.505C159.922 182.13 159.359 180.891 158.464 180C157.568 179.104 156.328 178.542 154.958 178.542H154.13V165.307H154.958C165 165.307 173.156 173.448 173.156 183.505Z" fill="#CD0000"/>
</g>
<mask id="mask13_550_1253" style="mask-type:luminance" maskUnits="userSpaceOnUse" x="153" y="142" width="20" height="14">
<path d="M153.333 142.146H172.828V156H153.333V142.146Z" fill="white"/>
</mask>
<g mask="url(#mask13_550_1253)">
<path fill-rule="evenodd" clip-rule="evenodd" d="M159.922 155.38H154.13V142.146H173.156C173.156 149.458 167.234 155.38 159.922 155.38Z" fill="white"/>
<path fill-rule="evenodd" clip-rule="evenodd" d="M173.141 142.49C172.974 149.641 167.115 155.38 159.917 155.38H154.13V148.76H159.922C167 148.76 172.792 145.984 173.141 142.49Z" fill="white"/>
</g>
<path fill-rule="evenodd" clip-rule="evenodd" d="M166.536 183.505C166.536 189.906 161.359 195.089 154.958 195.089C154.677 195.089 154.396 195.073 154.13 195.037V188.469H154.958C157.703 188.469 159.917 186.25 159.917 183.505C159.922 182.13 159.359 180.891 158.464 180C157.568 179.104 156.328 178.542 154.958 178.542H154.13V171.974C154.396 171.943 154.672 171.927 154.958 171.927C161.359 171.922 166.536 177.104 166.536 183.505Z" fill="#CD0000"/>
<path fill-rule="evenodd" clip-rule="evenodd" d="M133.448 160.344C133.448 153.937 138.625 148.76 145.026 148.76C145.312 148.76 145.594 148.776 145.854 148.812V155.38H145.031C142.281 155.38 140.068 157.599 140.068 160.344C140.068 161.719 140.63 162.958 141.521 163.849C142.417 164.745 143.656 165.307 145.026 165.307H145.854V171.875C145.594 171.906 145.312 171.927 145.026 171.927C138.625 171.922 133.448 166.745 133.448 160.344Z" fill="#CD0000"/>
</g>
<defs>
<clipPath id="clip0_550_1253">
<rect width="500" height="500" fill="white"/>
</clipPath>
</defs>
</svg>
