<svg xmlns="http://www.w3.org/2000/svg" xmlns:xlink="http://www.w3.org/1999/xlink" width="500" zoomAndPan="magnify" viewBox="0 0 375 374.999991" height="500" preserveAspectRatio="xMidYMid meet" version="1.0"><defs><g/><clipPath id="c7f5afe888"><path d="M 345 345 L 351.285156 345 L 351.285156 351.941406 L 345 351.941406 Z M 345 345 " clip-rule="nonzero"/></clipPath><clipPath id="f91d574556"><path d="M 23.535156 28 L 29 28 L 29 346 L 23.535156 346 Z M 23.535156 28 " clip-rule="nonzero"/></clipPath><clipPath id="f2237b4981"><path d="M 23.535156 345 L 29 345 L 29 351.941406 L 23.535156 351.941406 Z M 23.535156 345 " clip-rule="nonzero"/></clipPath><clipPath id="90f297ee67"><path d="M 345 28 L 351.285156 28 L 351.285156 346 L 345 346 Z M 345 28 " clip-rule="nonzero"/></clipPath><clipPath id="17bfc0aea2"><path d="M 28 345 L 346 345 L 346 351.941406 L 28 351.941406 Z M 28 345 " clip-rule="nonzero"/></clipPath><clipPath id="9948db8f2d"><path d="M 345 22.691406 L 351.285156 22.691406 L 351.285156 29 L 345 29 Z M 345 22.691406 " clip-rule="nonzero"/></clipPath><clipPath id="268024858c"><path d="M 23.535156 22.691406 L 29 22.691406 L 29 29 L 23.535156 29 Z M 23.535156 22.691406 " clip-rule="nonzero"/></clipPath><clipPath id="f6bc95a909"><path d="M 28 22.691406 L 346 22.691406 L 346 29 L 28 29 Z M 28 22.691406 " clip-rule="nonzero"/></clipPath><clipPath id="2bb8714bf1"><path d="M 37.5 53.945312 L 146 53.945312 L 146 163 L 37.5 163 Z M 37.5 53.945312 " clip-rule="nonzero"/></clipPath><clipPath id="b15a990309"><path d="M 79 95 L 187.5 95 L 187.5 203.945312 L 79 203.945312 Z M 79 95 " clip-rule="nonzero"/></clipPath><clipPath id="4625f3b92f"><path d="M 95.121094 106.609375 L 110 106.609375 L 110 134 L 95.121094 134 Z M 95.121094 106.609375 " clip-rule="nonzero"/></clipPath><clipPath id="69be16f295"><path d="M 95.121094 141 L 110 141 L 110 151.609375 L 95.121094 151.609375 Z M 95.121094 141 " clip-rule="nonzero"/></clipPath><clipPath id="1c4e0c2ea0"><path d="M 115 123 L 129.621094 123 L 129.621094 151.609375 L 115 151.609375 Z M 115 123 " clip-rule="nonzero"/></clipPath><clipPath id="7e0b5a49b4"><path d="M 115 106.609375 L 129.621094 106.609375 L 129.621094 117 L 115 117 Z M 115 106.609375 " clip-rule="nonzero"/></clipPath></defs><rect x="-37.5" width="450" fill="#ffffff" y="-37.499999" height="449.999989" fill-opacity="1"/><g clip-path="url(#c7f5afe888)"><path fill="#e80000" d="M 345.667969 345.667969 L 355.671875 345.667969 L 355.671875 355.671875 L 345.667969 355.671875 Z M 345.667969 345.667969 " fill-opacity="1" fill-rule="nonzero"/></g><g clip-path="url(#f91d574556)"><path fill="#e80000" d="M 18.476562 28.59375 L 28.59375 28.59375 L 28.59375 345.667969 L 18.476562 345.667969 Z M 18.476562 28.59375 " fill-opacity="1" fill-rule="nonzero"/></g><g clip-path="url(#f2237b4981)"><path fill="#e80000" d="M 18.476562 345.667969 L 28.59375 345.667969 L 28.59375 355.671875 L 18.476562 355.671875 Z M 18.476562 345.667969 " fill-opacity="1" fill-rule="nonzero"/></g><g clip-path="url(#90f297ee67)"><path fill="#e80000" d="M 345.667969 28.59375 L 355.671875 28.59375 L 355.671875 345.667969 L 345.667969 345.667969 Z M 345.667969 28.59375 " fill-opacity="1" fill-rule="nonzero"/></g><g clip-path="url(#17bfc0aea2)"><path fill="#e80000" d="M 28.59375 345.667969 L 345.667969 345.667969 L 345.667969 355.671875 L 28.59375 355.671875 Z M 28.59375 345.667969 " fill-opacity="1" fill-rule="nonzero"/></g><g clip-path="url(#9948db8f2d)"><path fill="#e80000" d="M 345.667969 18.476562 L 355.671875 18.476562 L 355.671875 28.59375 L 345.667969 28.59375 Z M 345.667969 18.476562 " fill-opacity="1" fill-rule="nonzero"/></g><g clip-path="url(#268024858c)"><path fill="#e80000" d="M 18.476562 18.476562 L 28.59375 18.476562 L 28.59375 28.59375 L 18.476562 28.59375 Z M 18.476562 18.476562 " fill-opacity="1" fill-rule="nonzero"/></g><g clip-path="url(#f6bc95a909)"><path fill="#e80000" d="M 28.59375 18.476562 L 345.667969 18.476562 L 345.667969 28.59375 L 28.59375 28.59375 Z M 28.59375 18.476562 " fill-opacity="1" fill-rule="nonzero"/></g><g fill="#000000" fill-opacity="1"><g transform="translate(190.807886, 285.69338)"><g><path d="M 16.109375 0.359375 C 13.492188 0.359375 11.148438 -0.0625 9.078125 -0.90625 C 7.003906 -1.757812 5.347656 -3.019531 4.109375 -4.6875 C 2.867188 -6.351562 2.210938 -8.359375 2.140625 -10.703125 L 11.421875 -10.703125 C 11.554688 -9.378906 12.015625 -8.367188 12.796875 -7.671875 C 13.578125 -6.972656 14.597656 -6.625 15.859375 -6.625 C 17.148438 -6.625 18.171875 -6.921875 18.921875 -7.515625 C 19.671875 -8.117188 20.046875 -8.945312 20.046875 -10 C 20.046875 -10.882812 19.75 -11.613281 19.15625 -12.1875 C 18.5625 -12.769531 17.828125 -13.242188 16.953125 -13.609375 C 16.085938 -13.984375 14.859375 -14.410156 13.265625 -14.890625 C 10.953125 -15.609375 9.0625 -16.320312 7.59375 -17.03125 C 6.132812 -17.75 4.878906 -18.800781 3.828125 -20.1875 C 2.773438 -21.582031 2.25 -23.40625 2.25 -25.65625 C 2.25 -28.988281 3.453125 -31.597656 5.859375 -33.484375 C 8.273438 -35.367188 11.421875 -36.3125 15.296875 -36.3125 C 19.242188 -36.3125 22.421875 -35.367188 24.828125 -33.484375 C 27.242188 -31.597656 28.539062 -28.972656 28.71875 -25.609375 L 19.28125 -25.609375 C 19.207031 -26.765625 18.78125 -27.671875 18 -28.328125 C 17.21875 -28.992188 16.21875 -29.328125 15 -29.328125 C 13.9375 -29.328125 13.082031 -29.046875 12.4375 -28.484375 C 11.789062 -27.921875 11.46875 -27.113281 11.46875 -26.0625 C 11.46875 -24.90625 12.007812 -24.003906 13.09375 -23.359375 C 14.1875 -22.710938 15.890625 -22.015625 18.203125 -21.265625 C 20.515625 -20.484375 22.394531 -19.734375 23.84375 -19.015625 C 25.289062 -18.304688 26.539062 -17.269531 27.59375 -15.90625 C 28.644531 -14.550781 29.171875 -12.800781 29.171875 -10.65625 C 29.171875 -8.613281 28.648438 -6.757812 27.609375 -5.09375 C 26.578125 -3.425781 25.070312 -2.097656 23.09375 -1.109375 C 21.125 -0.128906 18.796875 0.359375 16.109375 0.359375 Z M 16.109375 0.359375 "/></g></g></g><g fill="#000000" fill-opacity="1"><g transform="translate(221.247658, 285.69338)"><g><path d="M 20.09375 0.359375 C 16.726562 0.359375 13.640625 -0.421875 10.828125 -1.984375 C 8.023438 -3.546875 5.800781 -5.726562 4.15625 -8.53125 C 2.507812 -11.34375 1.6875 -14.5 1.6875 -18 C 1.6875 -21.5 2.507812 -24.644531 4.15625 -27.4375 C 5.800781 -30.226562 8.023438 -32.40625 10.828125 -33.96875 C 13.640625 -35.53125 16.726562 -36.3125 20.09375 -36.3125 C 23.457031 -36.3125 26.539062 -35.53125 29.34375 -33.96875 C 32.15625 -32.40625 34.367188 -30.226562 35.984375 -27.4375 C 37.597656 -24.644531 38.40625 -21.5 38.40625 -18 C 38.40625 -14.5 37.585938 -11.34375 35.953125 -8.53125 C 34.316406 -5.726562 32.101562 -3.546875 29.3125 -1.984375 C 26.53125 -0.421875 23.457031 0.359375 20.09375 0.359375 Z M 20.09375 -7.59375 C 22.945312 -7.59375 25.234375 -8.546875 26.953125 -10.453125 C 28.671875 -12.359375 29.53125 -14.875 29.53125 -18 C 29.53125 -21.164062 28.671875 -23.691406 26.953125 -25.578125 C 25.234375 -27.460938 22.945312 -28.40625 20.09375 -28.40625 C 17.207031 -28.40625 14.90625 -27.46875 13.1875 -25.59375 C 11.46875 -23.726562 10.609375 -21.195312 10.609375 -18 C 10.609375 -14.84375 11.46875 -12.316406 13.1875 -10.421875 C 14.90625 -8.535156 17.207031 -7.59375 20.09375 -7.59375 Z M 20.09375 -7.59375 "/></g></g></g><g fill="#000000" fill-opacity="1"><g transform="translate(260.40643, 285.69338)"><g><path d="M 20.09375 0.359375 C 16.726562 0.359375 13.640625 -0.421875 10.828125 -1.984375 C 8.023438 -3.546875 5.800781 -5.726562 4.15625 -8.53125 C 2.507812 -11.34375 1.6875 -14.5 1.6875 -18 C 1.6875 -21.5 2.507812 -24.644531 4.15625 -27.4375 C 5.800781 -30.226562 8.023438 -32.40625 10.828125 -33.96875 C 13.640625 -35.53125 16.726562 -36.3125 20.09375 -36.3125 C 23.457031 -36.3125 26.539062 -35.53125 29.34375 -33.96875 C 32.15625 -32.40625 34.367188 -30.226562 35.984375 -27.4375 C 37.597656 -24.644531 38.40625 -21.5 38.40625 -18 C 38.40625 -14.5 37.585938 -11.34375 35.953125 -8.53125 C 34.316406 -5.726562 32.101562 -3.546875 29.3125 -1.984375 C 26.53125 -0.421875 23.457031 0.359375 20.09375 0.359375 Z M 20.09375 -7.59375 C 22.945312 -7.59375 25.234375 -8.546875 26.953125 -10.453125 C 28.671875 -12.359375 29.53125 -14.875 29.53125 -18 C 29.53125 -21.164062 28.671875 -23.691406 26.953125 -25.578125 C 25.234375 -27.460938 22.945312 -28.40625 20.09375 -28.40625 C 17.207031 -28.40625 14.90625 -27.46875 13.1875 -25.59375 C 11.46875 -23.726562 10.609375 -21.195312 10.609375 -18 C 10.609375 -14.84375 11.46875 -12.316406 13.1875 -10.421875 C 14.90625 -8.535156 17.207031 -7.59375 20.09375 -7.59375 Z M 20.09375 -7.59375 "/></g></g></g><g fill="#000000" fill-opacity="1"><g transform="translate(299.565203, 285.69338)"><g><path d="M 28.65625 6.125 L 24.078125 -0.046875 C 22.710938 0.222656 21.382812 0.359375 20.09375 0.359375 C 16.726562 0.359375 13.640625 -0.421875 10.828125 -1.984375 C 8.023438 -3.546875 5.800781 -5.726562 4.15625 -8.53125 C 2.507812 -11.34375 1.6875 -14.5 1.6875 -18 C 1.6875 -21.5 2.507812 -24.644531 4.15625 -27.4375 C 5.800781 -30.226562 8.023438 -32.40625 10.828125 -33.96875 C 13.640625 -35.53125 16.726562 -36.3125 20.09375 -36.3125 C 23.457031 -36.3125 26.539062 -35.53125 29.34375 -33.96875 C 32.15625 -32.40625 34.367188 -30.226562 35.984375 -27.4375 C 37.597656 -24.644531 38.40625 -21.5 38.40625 -18 C 38.40625 -14.9375 37.785156 -12.140625 36.546875 -9.609375 C 35.304688 -7.078125 33.578125 -4.976562 31.359375 -3.3125 L 39.21875 6.125 Z M 10.609375 -18 C 10.609375 -14.84375 11.46875 -12.316406 13.1875 -10.421875 C 14.90625 -8.535156 17.207031 -7.59375 20.09375 -7.59375 C 22.945312 -7.59375 25.234375 -8.546875 26.953125 -10.453125 C 28.671875 -12.359375 29.53125 -14.875 29.53125 -18 C 29.53125 -21.164062 28.671875 -23.691406 26.953125 -25.578125 C 25.234375 -27.460938 22.945312 -28.40625 20.09375 -28.40625 C 17.207031 -28.40625 14.90625 -27.46875 13.1875 -25.59375 C 11.46875 -23.726562 10.609375 -21.195312 10.609375 -18 Z M 10.609375 -18 "/></g></g></g><g fill="#000000" fill-opacity="1"><g transform="translate(138.436796, 334.443376)"><g><path d="M 16.109375 0.359375 C 13.492188 0.359375 11.148438 -0.0625 9.078125 -0.90625 C 7.003906 -1.757812 5.347656 -3.019531 4.109375 -4.6875 C 2.867188 -6.351562 2.210938 -8.359375 2.140625 -10.703125 L 11.421875 -10.703125 C 11.554688 -9.378906 12.015625 -8.367188 12.796875 -7.671875 C 13.578125 -6.972656 14.597656 -6.625 15.859375 -6.625 C 17.148438 -6.625 18.171875 -6.921875 18.921875 -7.515625 C 19.671875 -8.117188 20.046875 -8.945312 20.046875 -10 C 20.046875 -10.882812 19.75 -11.613281 19.15625 -12.1875 C 18.5625 -12.769531 17.828125 -13.242188 16.953125 -13.609375 C 16.085938 -13.984375 14.859375 -14.410156 13.265625 -14.890625 C 10.953125 -15.609375 9.0625 -16.320312 7.59375 -17.03125 C 6.132812 -17.75 4.878906 -18.800781 3.828125 -20.1875 C 2.773438 -21.582031 2.25 -23.40625 2.25 -25.65625 C 2.25 -28.988281 3.453125 -31.597656 5.859375 -33.484375 C 8.273438 -35.367188 11.421875 -36.3125 15.296875 -36.3125 C 19.242188 -36.3125 22.421875 -35.367188 24.828125 -33.484375 C 27.242188 -31.597656 28.539062 -28.972656 28.71875 -25.609375 L 19.28125 -25.609375 C 19.207031 -26.765625 18.78125 -27.671875 18 -28.328125 C 17.21875 -28.992188 16.21875 -29.328125 15 -29.328125 C 13.9375 -29.328125 13.082031 -29.046875 12.4375 -28.484375 C 11.789062 -27.921875 11.46875 -27.113281 11.46875 -26.0625 C 11.46875 -24.90625 12.007812 -24.003906 13.09375 -23.359375 C 14.1875 -22.710938 15.890625 -22.015625 18.203125 -21.265625 C 20.515625 -20.484375 22.394531 -19.734375 23.84375 -19.015625 C 25.289062 -18.304688 26.539062 -17.269531 27.59375 -15.90625 C 28.644531 -14.550781 29.171875 -12.800781 29.171875 -10.65625 C 29.171875 -8.613281 28.648438 -6.757812 27.609375 -5.09375 C 26.578125 -3.425781 25.070312 -2.097656 23.09375 -1.109375 C 21.125 -0.128906 18.796875 0.359375 16.109375 0.359375 Z M 16.109375 0.359375 "/></g></g></g><g fill="#000000" fill-opacity="1"><g transform="translate(168.876568, 334.443376)"><g><path d="M 28.65625 6.125 L 24.078125 -0.046875 C 22.710938 0.222656 21.382812 0.359375 20.09375 0.359375 C 16.726562 0.359375 13.640625 -0.421875 10.828125 -1.984375 C 8.023438 -3.546875 5.800781 -5.726562 4.15625 -8.53125 C 2.507812 -11.34375 1.6875 -14.5 1.6875 -18 C 1.6875 -21.5 2.507812 -24.644531 4.15625 -27.4375 C 5.800781 -30.226562 8.023438 -32.40625 10.828125 -33.96875 C 13.640625 -35.53125 16.726562 -36.3125 20.09375 -36.3125 C 23.457031 -36.3125 26.539062 -35.53125 29.34375 -33.96875 C 32.15625 -32.40625 34.367188 -30.226562 35.984375 -27.4375 C 37.597656 -24.644531 38.40625 -21.5 38.40625 -18 C 38.40625 -14.9375 37.785156 -12.140625 36.546875 -9.609375 C 35.304688 -7.078125 33.578125 -4.976562 31.359375 -3.3125 L 39.21875 6.125 Z M 10.609375 -18 C 10.609375 -14.84375 11.46875 -12.316406 13.1875 -10.421875 C 14.90625 -8.535156 17.207031 -7.59375 20.09375 -7.59375 C 22.945312 -7.59375 25.234375 -8.546875 26.953125 -10.453125 C 28.671875 -12.359375 29.53125 -14.875 29.53125 -18 C 29.53125 -21.164062 28.671875 -23.691406 26.953125 -25.578125 C 25.234375 -27.460938 22.945312 -28.40625 20.09375 -28.40625 C 17.207031 -28.40625 14.90625 -27.46875 13.1875 -25.59375 C 11.46875 -23.726562 10.609375 -21.195312 10.609375 -18 Z M 10.609375 -18 "/></g></g></g><g fill="#000000" fill-opacity="1"><g transform="translate(208.137307, 334.443376)"><g><path d="M 11.734375 -35.796875 L 11.734375 -14.375 C 11.734375 -12.238281 12.257812 -10.59375 13.3125 -9.4375 C 14.363281 -8.28125 15.910156 -7.703125 17.953125 -7.703125 C 19.992188 -7.703125 21.554688 -8.28125 22.640625 -9.4375 C 23.734375 -10.59375 24.28125 -12.238281 24.28125 -14.375 L 24.28125 -35.796875 L 33 -35.796875 L 33 -14.4375 C 33 -11.238281 32.316406 -8.535156 30.953125 -6.328125 C 29.597656 -4.117188 27.769531 -2.453125 25.46875 -1.328125 C 23.175781 -0.203125 20.617188 0.359375 17.796875 0.359375 C 14.972656 0.359375 12.445312 -0.191406 10.21875 -1.296875 C 8 -2.398438 6.242188 -4.066406 4.953125 -6.296875 C 3.660156 -8.523438 3.015625 -11.238281 3.015625 -14.4375 L 3.015625 -35.796875 Z M 11.734375 -35.796875 "/></g></g></g><g fill="#000000" fill-opacity="1"><g transform="translate(243.166022, 334.443376)"><g><path d="M 25.453125 -6.328125 L 12.09375 -6.328125 L 9.9375 0 L 0.8125 0 L 13.765625 -35.796875 L 23.875 -35.796875 L 36.828125 0 L 27.59375 0 Z M 23.203125 -13.0625 L 18.765625 -26.15625 L 14.375 -13.0625 Z M 23.203125 -13.0625 "/></g></g></g><g fill="#000000" fill-opacity="1"><g transform="translate(279.826367, 334.443376)"><g><path d="M 21.421875 0 L 13.96875 -13.515625 L 11.890625 -13.515625 L 11.890625 0 L 3.15625 0 L 3.15625 -35.796875 L 17.796875 -35.796875 C 20.617188 -35.796875 23.023438 -35.300781 25.015625 -34.3125 C 27.003906 -33.332031 28.488281 -31.984375 29.46875 -30.265625 C 30.457031 -28.546875 30.953125 -26.632812 30.953125 -24.53125 C 30.953125 -22.15625 30.28125 -20.03125 28.9375 -18.15625 C 27.59375 -16.28125 25.613281 -14.953125 23 -14.171875 L 31.265625 0 Z M 11.890625 -19.6875 L 17.28125 -19.6875 C 18.882812 -19.6875 20.082031 -20.078125 20.875 -20.859375 C 21.675781 -21.640625 22.078125 -22.742188 22.078125 -24.171875 C 22.078125 -25.535156 21.675781 -26.609375 20.875 -27.390625 C 20.082031 -28.171875 18.882812 -28.5625 17.28125 -28.5625 L 11.890625 -28.5625 Z M 11.890625 -19.6875 "/></g></g></g><g fill="#000000" fill-opacity="1"><g transform="translate(312.152708, 334.443376)"><g><path d="M 11.890625 -28.8125 L 11.890625 -21.578125 L 23.5625 -21.578125 L 23.5625 -14.84375 L 11.890625 -14.84375 L 11.890625 -6.984375 L 25.09375 -6.984375 L 25.09375 0 L 3.15625 0 L 3.15625 -35.796875 L 25.09375 -35.796875 L 25.09375 -28.8125 Z M 11.890625 -28.8125 "/></g></g></g><g clip-path="url(#2bb8714bf1)"><path fill="#000000" d="M 145.832031 53.945312 L 145.832031 87.277344 L 137.5 87.277344 L 137.5 62.277344 L 45.832031 62.277344 L 45.832031 153.945312 L 70.832031 153.945312 L 70.832031 162.277344 L 37.5 162.277344 L 37.5 53.945312 Z M 145.832031 53.945312 " fill-opacity="1" fill-rule="nonzero"/></g><g clip-path="url(#b15a990309)"><path fill="#000000" d="M 79.167969 95.613281 L 187.5 95.613281 L 187.5 203.945312 L 79.167969 203.945312 Z M 87.5 195.609375 L 179.167969 195.609375 L 179.167969 103.945312 L 87.5 103.945312 Z M 87.5 195.609375 " fill-opacity="1" fill-rule="nonzero"/></g><path fill="#000000" d="M 137.5 153.945312 L 137.5 112.277344 L 145.832031 112.277344 L 145.832031 162.277344 L 95.832031 162.277344 L 95.832031 153.945312 Z M 137.5 153.945312 " fill-opacity="1" fill-rule="nonzero"/><g clip-path="url(#4625f3b92f)"><path fill="#f80000" d="M 108.773438 106.609375 L 109.390625 106.609375 L 109.390625 116.535156 L 108.773438 116.535156 C 106.710938 116.535156 105.050781 118.199219 105.050781 120.257812 C 105.050781 121.289062 105.472656 122.21875 106.140625 122.886719 C 106.8125 123.558594 107.742188 123.980469 108.773438 123.980469 L 109.390625 123.980469 L 109.390625 133.90625 L 108.773438 133.90625 C 101.226562 133.90625 95.121094 127.800781 95.121094 120.257812 C 95.121094 116.484375 96.648438 113.074219 99.117188 110.601562 C 101.585938 108.132812 105 106.609375 108.773438 106.609375 " fill-opacity="1" fill-rule="evenodd"/></g><g clip-path="url(#69be16f295)"><path fill="#000000" d="M 105.050781 141.351562 L 109.390625 141.351562 L 109.390625 151.28125 L 95.121094 151.28125 C 95.121094 145.792969 99.5625 141.351562 105.050781 141.351562 " fill-opacity="1" fill-rule="evenodd"/><path fill="#545454" d="M 109.390625 141.351562 L 109.390625 146.316406 L 105.050781 146.316406 C 99.738281 146.316406 95.394531 148.402344 95.132812 151.019531 C 95.257812 145.65625 99.652344 141.351562 105.050781 141.351562 Z M 109.390625 141.351562 " fill-opacity="1" fill-rule="evenodd"/></g><g clip-path="url(#1c4e0c2ea0)"><path fill="#f80000" d="M 129.867188 137.628906 C 129.867188 141.402344 128.339844 144.8125 125.871094 147.285156 C 123.390625 149.753906 119.988281 151.28125 116.21875 151.28125 L 115.597656 151.28125 L 115.597656 141.351562 L 116.21875 141.351562 C 118.277344 141.351562 119.9375 139.6875 119.9375 137.628906 C 119.941406 136.597656 119.519531 135.667969 118.847656 135 C 118.175781 134.328125 117.246094 133.90625 116.21875 133.90625 L 115.597656 133.90625 L 115.597656 123.980469 L 116.21875 123.980469 C 123.75 123.980469 129.867188 130.085938 129.867188 137.628906 " fill-opacity="1" fill-rule="evenodd"/></g><g clip-path="url(#7e0b5a49b4)"><path fill="#000000" d="M 119.941406 116.535156 L 115.597656 116.535156 L 115.597656 106.609375 L 129.867188 106.609375 C 129.867188 112.09375 125.425781 116.535156 119.941406 116.535156 " fill-opacity="1" fill-rule="evenodd"/><path fill="#545454" d="M 129.855469 106.867188 C 129.730469 112.230469 125.335938 116.535156 119.9375 116.535156 L 115.597656 116.535156 L 115.597656 111.570312 L 119.941406 111.570312 C 125.25 111.570312 129.59375 109.488281 129.855469 106.867188 " fill-opacity="1" fill-rule="evenodd"/></g><path fill="#cd0000" d="M 124.902344 137.628906 C 124.902344 142.429688 121.019531 146.316406 116.21875 146.316406 C 116.007812 146.316406 115.796875 146.304688 115.597656 146.277344 L 115.597656 141.351562 L 116.21875 141.351562 C 118.277344 141.351562 119.9375 139.6875 119.9375 137.628906 C 119.941406 136.597656 119.519531 135.667969 118.847656 135 C 118.175781 134.328125 117.246094 133.90625 116.21875 133.90625 L 115.597656 133.90625 L 115.597656 128.980469 C 115.796875 128.957031 116.003906 128.945312 116.21875 128.945312 C 121.019531 128.941406 124.902344 132.828125 124.902344 137.628906 " fill-opacity="1" fill-rule="evenodd"/><path fill="#cd0000" d="M 100.085938 120.257812 C 100.085938 115.453125 103.96875 111.570312 108.773438 111.570312 C 108.984375 111.570312 109.195312 111.582031 109.390625 111.609375 L 109.390625 116.535156 L 108.773438 116.535156 C 106.710938 116.535156 105.050781 118.199219 105.050781 120.257812 C 105.050781 121.289062 105.472656 122.21875 106.140625 122.886719 C 106.8125 123.558594 107.742188 123.980469 108.773438 123.980469 L 109.390625 123.980469 L 109.390625 128.90625 C 109.195312 128.929688 108.984375 128.945312 108.773438 128.945312 C 103.96875 128.941406 100.085938 125.058594 100.085938 120.257812 " fill-opacity="1" fill-rule="evenodd"/></svg>