<svg width="498" height="188" viewBox="0 0 498 188" fill="none" xmlns="http://www.w3.org/2000/svg">
<mask id="mask0_554_1833" style="mask-type:luminance" maskUnits="userSpaceOnUse" x="0" y="0" width="177" height="178">
<path d="M0.5 0.869873H176.5V176.87H0.5V0.869873Z" fill="white" stroke="white"/>
</mask>
<g mask="url(#mask0_554_1833)">
<mask id="mask1_554_1833" style="mask-type:luminance" maskUnits="userSpaceOnUse" x="0" y="0" width="178" height="178">
<path d="M0.5 147.63V30.3699C0.5 14.0783 13.7084 0.869873 30 0.869873H147.26C163.552 0.869873 176.76 14.0783 176.76 30.3699V147.63C176.76 163.922 163.552 177.13 147.26 177.13H30C13.7084 177.13 0.5 163.922 0.5 147.63Z" fill="white" stroke="white"/>
</mask>
<g mask="url(#mask1_554_1833)">
<path d="M0.5 0.869873H176.75V177.12H0.5V0.869873Z" fill="#FE2635" stroke="black"/>
</g>
</g>
<mask id="mask2_554_1833" style="mask-type:luminance" maskUnits="userSpaceOnUse" x="12" y="12" width="154" height="154">
<path d="M12.5 12.8333H164.833V165.167H12.5V12.8333Z" fill="white" stroke="white"/>
</mask>
<g mask="url(#mask2_554_1833)">
<mask id="mask3_554_1833" style="mask-type:luminance" maskUnits="userSpaceOnUse" x="0" y="0" width="178" height="178">
<path d="M0.5 147.63V30.3696C0.5 14.0781 13.7084 0.869629 30 0.869629H147.26C163.552 0.869629 176.76 14.0781 176.76 30.3696V147.63C176.76 163.922 163.552 177.13 147.26 177.13H30C13.7084 177.13 0.5 163.922 0.5 147.63Z" fill="white" stroke="white"/>
</mask>
<g mask="url(#mask3_554_1833)">
<path d="M124.039 94.4973L162.064 105L159.863 113.098L121.747 102.596L121.361 103.509L155.391 123.535L151.081 130.754L117.14 110.72L116.528 111.5L144.05 139.701L138.064 145.599L110.451 117.4L109.658 117.995L129.007 152.42L121.706 156.552L102.353 122.031L101.432 122.399L111.157 160.713L102.972 162.734L93.8389 126.586L92.8542 126.708V164.021H84.3958V124.541L83.4129 124.412L73.2038 162.533L65.0144 160.329L75.3212 122.214L74.4063 121.832L54.5685 155.963L47.2621 151.735L67.099 117.605L66.3144 116.999L38.3084 144.81L32.4162 138.922L60.4207 111.01L59.8193 110.222L25.4949 129.868L21.3574 122.562L55.6858 102.918L55.3107 102L17.097 112.019L14.9849 103.925L53.2049 93.9105L53.0818 92.9269L13.5052 92.6337L13.5937 84.1805L53.0744 84.4737L53.2112 83.4918L15.186 72.9889L17.3873 64.8911L55.5026 75.3933L55.889 74.4803L21.8591 54.4542L26.1691 47.2353L60.1104 67.2689L60.7224 66.4891L33.2002 38.2879L39.1864 32.3902L66.799 60.5892L67.5921 59.9944L48.2426 25.5696L55.5438 21.4374L74.8972 55.9526L75.818 55.5851L66.0928 17.2758L74.2777 15.2505L83.4111 51.4035L84.3958 51.281V13.9685H92.8542V53.4477L93.8372 53.577L104.046 15.4564L112.236 17.6598L101.929 55.7755L102.844 56.1573L122.682 22.0262L129.988 26.2545L110.151 60.3839L110.936 60.99L138.942 33.1794L144.834 39.067L116.829 66.9737L117.431 67.7619L151.755 48.1207L155.893 55.4276L121.564 75.071L121.939 75.9886L160.153 65.9697L162.265 74.0646L124.045 84.0786L124.168 85.0622L163.745 85.3554L163.656 93.8086L124.176 93.5154L124.039 94.4973Z" fill="white" stroke="black"/>
</g>
</g>
<mask id="mask4_554_1833" style="mask-type:luminance" maskUnits="userSpaceOnUse" x="61" y="57" width="54" height="64">
<path d="M62.401 58.1458H114.167V120.146H62.401V58.1458Z" fill="white" stroke="white"/>
</mask>
<g mask="url(#mask4_554_1833)">
<mask id="mask5_554_1833" style="mask-type:luminance" maskUnits="userSpaceOnUse" x="61" y="57" width="55" height="64">
<path d="M62.401 93.6249V84.3749C62.401 69.8906 74.1459 58.1458 88.6302 58.1458C103.114 58.1458 114.859 69.8906 114.859 84.3749V93.6249C114.859 108.109 103.114 119.854 88.6302 119.854C74.1459 119.854 62.401 108.109 62.401 93.6249Z" fill="white" stroke="white"/>
</mask>
<g mask="url(#mask5_554_1833)">
<path d="M71.3202 77.518C71.0413 77.4984 70.7629 77.4746 70.4855 77.4453C70.0209 77.3988 69.6601 77.0637 69.4224 76.8195C69.3262 76.7208 69.2283 76.6125 69.1381 76.5127C69.1073 76.4786 69.0774 76.4455 69.0487 76.4141C68.9296 76.2836 68.8241 76.1731 68.7231 76.0848L68.3349 75.7457L68.6856 75.368C68.8218 75.2214 68.9339 75.0884 69.0533 74.9469C69.1488 74.8336 69.249 74.7147 69.37 74.5789C69.6126 74.3065 69.8924 74.0237 70.2325 73.8048C70.369 73.7152 70.5173 73.6627 70.6624 73.6326C70.5003 73.5748 70.3441 73.4965 70.2015 73.3915C69.77 73.0737 69.5452 72.5742 69.5679 71.9259C69.5874 71.3149 69.8061 70.8325 70.2287 70.5221C70.6247 70.2312 71.1248 70.1487 71.5953 70.1458M71.3202 77.518L71.5989 70.6458M71.3202 77.518C71.0331 77.6275 70.7459 77.7814 70.5012 77.9479C70.2953 78.088 70.0975 78.2516 69.943 78.4292C69.8002 78.5934 69.6401 78.8312 69.6209 79.1163C69.57 79.818 69.8521 80.3762 70.3483 80.7337L71.3202 77.518ZM71.5953 70.1458C71.5955 70.1458 71.5957 70.1458 71.5959 70.1458L71.5989 70.6458M71.5953 70.1458C71.5951 70.1458 71.5949 70.1458 71.5947 70.1458L71.5989 70.6458M71.5953 70.1458C72.4134 70.1388 73.2338 70.1411 74.0525 70.1435C74.461 70.1446 74.869 70.1458 75.276 70.1458H75.2838H75.2917H75.2995H75.3074H75.3152H75.3231H75.3309H75.3387H75.3466H75.3544H75.3623H75.3701H75.378H75.3858H75.3936H75.4015H75.4093H75.4172H75.425H75.4329H75.4407H75.4486H75.4564H75.4643H75.4721H75.48H75.4878H75.4956H75.5035H75.5113H75.5192H75.527H75.5349H75.5427H75.5506H75.5584H75.5663H75.5742H75.582H75.5899H75.5977H75.6056H75.6134H75.6213H75.6291H75.637H75.6449H75.6527H75.6606H75.6684H75.6763H75.6842H75.692H75.6999H75.7077H75.7156H75.7235H75.7313H75.7392H75.7471H75.7549H75.7628H75.7707H75.7785H75.7864H75.7943H75.8022H75.81H75.8179H75.8258H75.8337H75.8415H75.8494H75.8573H75.8652H75.8731H75.8809H75.8888H75.8967H75.9046H75.9125H75.9204H75.9283H75.9362H75.9441H75.9519H75.9598H75.9677H75.9756H75.9835H75.9914H75.9993H76.0072H76.0151H76.023H76.0309H76.0389H76.0468H76.0547H76.0626H76.0705H76.0784H76.0863H76.0942H76.1022H76.1101H76.118H76.1259H76.1338H76.1418H76.1497H76.1576H76.1656H76.1735H76.1814H76.1894H76.1973H76.2052H76.2132H76.2211H76.2291H76.237H76.2449H76.2529H76.2608H76.2688H76.2767H76.2847H76.2927H76.3006H76.3086H76.3165H76.3245H76.3325H76.3404H76.3484H76.3564H76.3643H76.3723H76.3803H76.3883H76.3963H76.4042H76.4122H76.4202H76.4282H76.4362H76.4442H76.4522H76.4602H76.4682H76.4762H76.4842H76.4922H76.5002H76.5082H76.5162H76.5242H76.5322H76.5403H76.5483H76.5563H76.5643H76.5723H76.5804H76.5884H76.5964H76.6045H76.6125H76.6206H76.6286H76.6366H76.6447H76.6527H76.6608H76.6688H76.6769H76.685H76.693H76.7011H76.7092H76.7172H76.7253H76.7334H76.7414H76.7495H76.7576H76.7657H76.7738H76.7819H76.79H76.7981H76.8062H76.8143H76.8224H76.8305H76.8386H76.8467H76.8548H76.8629H76.871H76.8792H76.8873H76.8954H76.9035H76.9117H76.9198H76.9279H76.9361H76.9442H76.9524H76.9605H76.9687H76.9768H76.985H76.9932H77.0013H77.0095H77.0177H77.0258H77.034H77.0422H77.0504H77.0586H77.0668H77.0749H77.0831H77.0913H77.0995H77.1077H77.116H77.1242H77.1324H77.1406H77.1488H77.157H77.1653H77.1735H77.1817H77.19H77.1982H77.2065H77.2147H77.2229H77.2312H77.2395H77.2477H77.256H77.2642H77.2725H77.2808H77.2891H77.2974H77.3056H77.3139H77.3222H77.3305H77.3388H77.3471H77.3554H77.3637H77.372H77.3804H77.3887H77.397H77.4053H77.4137H77.422H77.4303H77.4387H77.447H77.4554H77.4637H77.4721H77.4804H77.4888H77.4972H77.5055H77.5139H77.5223H77.5307H77.5391H77.5475H77.5559H77.5643H77.5727H77.5811H77.5895H77.5979H77.6063H77.6147H77.6232H77.6316H77.64H77.6485H77.6569H77.6653H77.6738H77.6823H77.6907H77.6992H77.7076H77.7161H77.7246H77.7331H77.7416H77.75H77.7585H77.767H77.7755H77.784H77.7925H77.8011H77.8096H77.8181H77.8266H77.8352H77.8437H77.8522H77.8608H77.8693H77.8779H77.8864H77.895H77.9036H77.9121H77.9207H77.9293H77.9379H77.9465H77.9551H77.9637H77.9723H77.9809H77.9895H77.9981H78.0067H78.0153H78.024H78.0326H78.0412H78.0499H78.0585H78.0672H78.0758H78.0845H78.0932H78.1019H78.1105H78.1192H78.1279H78.1366H78.1453H78.154H78.1627H78.1714H78.1801H78.1888H78.1976H78.2063H78.215H78.2238H78.2325H78.2413H78.25H78.2588H78.2676H78.2763H78.2851H78.2939H78.3027H78.3115H78.3203H78.3291H78.3379H78.3467H78.3555H78.3643H78.3731H78.382H78.3908H78.3996H78.4085H78.4173H78.4262H78.4351H78.4439H78.4528H78.4617H78.4706H78.4795H78.4884H78.4973H78.5062H78.5151H78.524H78.5329H78.5419H78.5493M71.5989 70.6458C72.4145 70.6388 73.2301 70.6411 74.0472 70.6435C74.4564 70.6446 74.8659 70.6458 75.276 70.6458H78.9639C78.846 70.4994 78.7328 70.3645 78.6217 70.2321C78.5975 70.2032 78.5734 70.1745 78.5493 70.1458M78.5493 70.1458H78.5508H78.5597H78.5687H78.5776H78.5866H78.5955H78.6045H78.6135H78.6225H78.6314H78.6404H78.6494H78.6584H78.6674H78.6764H78.6855H78.6945H78.7035H78.7125H78.7216H78.7306H78.7397H78.7487H78.7578H78.7669H78.7759H78.785H78.7941H78.8032H78.8123H78.8214H78.8305H78.8396H78.8488H78.8579H78.867H78.8762H78.8853H78.8945H78.9036H78.9128H78.9219H78.9311H78.9403H78.9495H78.9587H78.9679H78.9771H78.9863H78.9955H79.0048H79.014H79.0232H79.0325H79.0417H79.051H79.0602H79.0695H79.0788H79.0881H79.0973H79.1066H79.1159H79.1252H79.1346H79.1439H79.1532H79.1625H79.1719H79.1812H79.1906H79.1999H79.2009C79.3291 70.3008 79.4625 70.4661 79.5989 70.6458L106.771 98.7239M78.5493 70.1458C78.4689 70.0497 78.3892 69.9539 78.3094 69.8549C78.0411 69.5224 77.7891 69.1747 77.6324 68.7685L77.6313 68.7655L77.6313 68.7655C77.4883 68.3878 77.4965 67.9864 77.5237 67.6533C77.5363 67.4993 77.5515 67.3668 77.5656 67.2434C77.5864 67.0609 77.605 66.8984 77.6095 66.7167L77.6223 66.1983L78.14 66.23C78.2599 66.2374 78.3945 66.2341 78.5507 66.2268C78.5876 66.2251 78.6264 66.2231 78.6665 66.221C78.7862 66.2149 78.9172 66.2082 79.0414 66.2064C79.3578 66.2017 79.7916 66.2202 80.1437 66.4637L80.1437 66.4637C80.8954 66.9835 81.6091 67.5542 82.3061 68.1203C82.3958 68.1932 82.4853 68.266 82.5745 68.3386C83.182 68.833 83.7789 69.3187 84.3953 69.7743C84.6841 69.9858 84.9867 70.1971 85.2894 70.3563C85.5972 70.5182 85.8617 70.6024 86.0768 70.6041L86.0785 70.6041C91.6024 70.6666 97.1174 70.6874 102.631 70.5782L102.631 70.5782C105.451 70.5252 107.723 68.5096 108.169 66.0261L108.169 66.0257C108.573 63.7895 108.048 61.8317 106.899 60.4363C105.75 59.0416 103.943 58.1664 101.697 58.1614C99.5603 58.1597 97.4221 58.1614 95.2829 58.1631C91.0021 58.1666 86.7178 58.1701 82.4348 58.1458C80.2806 58.1355 78.2504 58.2804 76.1854 58.9251C72.4948 60.0775 69.5509 62.0932 67.0852 65.113L67.0844 65.114C65.1124 67.5169 63.8536 70.3007 63.3787 73.1803L63.3785 73.1813C62.4573 78.6934 63.5955 83.8729 67.1236 88.4062C70.6363 92.916 75.3054 94.9711 80.8353 95.282C82.344 95.3668 83.8615 95.3516 85.3962 95.3268C85.5474 95.3244 85.6988 95.3219 85.8504 95.3193C87.2319 95.2962 88.6279 95.2729 90.0213 95.3179L90.022 95.3179C91.571 95.3702 92.7126 94.879 93.8274 93.7884L93.8277 93.788C94.9695 92.6731 96.2751 91.7155 97.5855 90.8576L97.586 90.8573C97.9248 90.6361 98.378 90.6256 98.7208 90.6693C99.0797 90.7151 99.4781 90.8409 99.7618 91.0518L99.7663 91.0551L99.7663 91.0551C99.9745 91.2136 100.047 91.4538 100.077 91.5992C100.112 91.7673 100.119 91.9514 100.111 92.1242C100.096 92.4642 100.02 92.8572 99.8878 93.1487L99.8866 93.1513C99.7046 93.5477 99.467 93.9046 99.2119 94.2576C99.1122 94.3956 99.0132 94.5285 98.9128 94.6634C99.2124 94.6835 99.4637 94.6979 99.7239 94.6979H99.7278C100.739 94.7057 101.751 94.707 102.767 94.7083H102.767C103.782 94.7096 104.799 94.7109 105.816 94.7187C106.323 94.7218 106.857 94.8451 107.24 95.1775C107.66 95.5418 107.816 96.0833 107.662 96.7033L107.662 96.7069C107.562 97.0988 107.268 97.4689 106.973 97.7332C106.744 97.9378 106.45 98.1363 106.141 98.2375C106.347 98.2337 106.552 98.2292 106.758 98.2241M106.758 98.2241L106.771 98.7239M106.758 98.2241C106.758 98.2241 106.758 98.2241 106.758 98.2241L106.771 98.7239M106.758 98.2241C107.301 98.2102 107.859 98.2809 108.277 98.6189C108.721 98.9777 108.884 99.532 108.87 100.193L108.87 100.196C108.852 100.843 108.673 101.381 108.224 101.722C107.802 102.044 107.249 102.105 106.704 102.088L106.703 102.088C106.512 102.082 106.321 102.077 106.13 102.073M106.771 98.7239C107.792 98.6979 108.396 99.0208 108.37 100.182C108.338 101.323 107.755 101.62 106.719 101.588C105.023 101.534 103.318 101.564 101.622 101.594C101.531 101.596 101.44 101.597 101.349 101.599C101.112 101.602 100.877 101.688 100.643 101.773C100.609 101.785 100.575 101.798 100.54 101.81C100.592 101.815 100.643 101.821 100.692 101.826L100.823 101.807C100.824 101.818 100.826 101.83 100.828 101.841C100.836 101.842 100.845 101.843 100.853 101.844C101.026 101.863 101.19 101.882 101.353 101.894C101.354 101.894 101.354 101.894 101.354 101.894C101.474 101.904 101.593 101.91 101.714 101.911L101.718 101.911C102.151 101.92 102.578 101.913 103.013 101.907C103.26 101.903 103.51 101.899 103.765 101.898C104.458 101.894 105.169 101.911 105.876 102.01L105.878 102.01C105.963 102.022 106.047 102.044 106.13 102.073M106.13 102.073C106.448 102.185 106.744 102.407 106.968 102.628C107.255 102.911 107.532 103.299 107.619 103.696L107.619 103.696C107.743 104.272 107.593 104.8 107.224 105.181C106.868 105.549 106.353 105.738 105.807 105.76C105.511 105.772 105.221 105.746 104.962 105.721C104.932 105.718 104.903 105.715 104.875 105.712C104.642 105.689 104.435 105.669 104.229 105.667L104.228 105.667C104.195 105.666 104.161 105.666 104.128 105.665C104.48 105.752 104.776 105.956 105.007 106.137C105.105 106.212 105.204 106.295 105.296 106.371C105.327 106.397 105.357 106.422 105.386 106.445C105.506 106.544 105.613 106.63 105.718 106.701L106.178 107.012L105.819 107.437C105.74 107.531 105.656 107.651 105.56 107.794C105.539 107.826 105.516 107.86 105.493 107.895C105.42 108.005 105.34 108.126 105.26 108.236C105.156 108.38 105.033 108.537 104.89 108.663C104.751 108.787 104.549 108.923 104.288 108.946M106.13 102.073C106.043 102.071 105.957 102.069 105.87 102.068C105.869 102.068 105.869 102.068 105.868 102.068C104.489 102.045 103.104 102.068 101.714 102.093C101.714 102.093 101.713 102.093 101.712 102.093C101.684 102.093 101.655 102.094 101.627 102.094C101.537 102.096 101.447 102.097 101.358 102.099L101.356 102.099C101.264 102.1 101.152 102.126 100.996 102.178C100.963 102.189 100.921 102.204 100.875 102.221C100.876 102.228 100.876 102.235 100.877 102.242L100.792 102.251C100.73 102.274 100.663 102.297 100.598 102.319C100.656 102.325 100.713 102.332 100.771 102.338C101.083 102.373 101.396 102.408 101.708 102.411C102.149 102.42 102.592 102.413 103.034 102.406L104.288 108.946M99.4635 91.4531C99.7031 91.6354 99.6302 92.5051 99.4322 92.9426C99.2097 93.4271 98.8859 93.8621 98.51 94.3669C98.4479 94.4504 98.3843 94.5358 98.3195 94.6237L99.4635 91.4531ZM99.4635 91.4531C99.0781 91.1666 98.2343 91.0312 97.8593 91.276M99.4635 91.4531L97.8593 91.276M97.8593 91.276C96.5625 92.1249 95.2864 93.0624 94.177 94.1458M97.8593 91.276L94.177 94.1458M94.177 94.1458C92.9739 95.3229 91.7031 95.8749 90.0052 95.8176M94.177 94.1458L90.0052 95.8176M90.0052 95.8176C88.6248 95.773 87.2413 95.7962 85.8579 95.8193C84.1721 95.8474 82.4865 95.8756 80.8072 95.7812C75.1562 95.4635 70.3437 93.3541 66.7291 88.7135C63.1093 84.0624 61.9427 78.7395 62.8854 73.0989M90.0052 95.8176L62.8854 73.0989M62.8854 73.0989C63.375 70.1301 64.6718 67.2656 66.6979 64.7968L62.8854 73.0989ZM75.0079 119.922C75.008 119.922 75.008 119.922 75.008 119.922L74.9895 120.422L75.0079 119.922ZM75.0079 119.922C72.6075 119.833 70.699 118.831 69.5681 117.307C68.4401 115.788 68.0455 113.695 68.7745 111.335M75.0079 119.922L68.7745 111.335M68.7745 111.335C69.494 109.008 71.3784 107.402 73.8939 107.359L73.8946 107.359C78.1769 107.28 82.4597 107.288 86.7492 107.297L68.7745 111.335ZM104.288 108.946C104.288 108.946 104.287 108.946 104.287 108.946L104.245 108.448L104.29 108.946C104.289 108.946 104.289 108.946 104.288 108.946ZM100.38 102.297L100.448 102.289L100.452 102.304C100.428 102.301 100.404 102.299 100.38 102.297ZM100.38 102.297L100.397 102.116L100.328 101.88M100.38 102.297C100.365 102.156 100.349 102.021 100.328 101.88M100.328 101.88L100.421 101.866L100.422 101.851C100.391 101.861 100.359 101.871 100.328 101.88ZM104.009 105.664L104.013 105.642C104.013 105.642 104.014 105.642 104.014 105.642C103.117 105.493 102.185 105.468 101.294 105.444C101.13 105.44 100.968 105.436 100.807 105.431L100.805 105.547L100.802 105.661M104.009 105.664C103.153 105.656 102.297 105.658 101.438 105.66C101.226 105.66 101.014 105.661 100.802 105.661M104.009 105.664L103.932 106.135M104.009 105.664L103.932 106.135M100.802 105.661C100.639 105.661 100.476 105.661 100.312 105.661V105.58L100.297 105.911L100.797 105.922L100.802 105.661ZM103.932 106.135L104.01 105.664L103.932 106.135ZM100.611 98.7056C100.726 98.6676 100.846 98.6232 100.953 98.5838C101.018 98.5594 101.079 98.5369 101.131 98.519C101.32 98.453 101.465 98.4161 101.591 98.4111M100.611 98.7056L101.591 98.4111M100.611 98.7056C100.57 98.7033 100.529 98.7012 100.489 98.6993M100.611 98.7056L100.489 98.6993M101.591 98.4111L101.586 98.257M101.591 98.4111L100.489 98.6993M100.489 98.6993L100.486 98.6909M100.486 98.6909L100.943 98.5766C100.914 98.4602 100.888 98.3428 100.862 98.2193M100.486 98.6909L100.462 98.6097L100.458 98.6979L100.486 98.6909ZM100.862 98.2193C100.895 98.2213 100.929 98.2234 100.962 98.2254C101.174 98.2386 101.378 98.2512 101.586 98.257M100.862 98.2193C100.857 98.1982 100.853 98.177 100.848 98.1556L100.617 98.2051C100.701 98.2096 100.782 98.2144 100.862 98.2193ZM101.586 98.257C101.586 98.257 101.586 98.257 101.586 98.257L101.573 97.9125L101.586 98.257ZM77.1458 73.2968L76.6473 73.3362L76.6474 73.3372C76.6531 73.4088 76.6587 73.4805 76.6644 73.552M77.1458 73.2968L71.8958 73.6354C71.8953 73.6354 71.8947 73.6354 71.8942 73.6354C72.5317 73.631 73.1626 73.6312 73.791 73.6314C74.666 73.6316 75.5363 73.6319 76.413 73.6198M77.1458 73.2968V73.7418M77.1458 73.2968L76.4218 74.1197L76.4174 73.7982M76.6644 73.552C76.6535 73.5562 76.6437 73.5599 76.6355 73.563C76.5232 73.6046 76.4578 73.6187 76.413 73.6198M76.6644 73.552C76.6854 73.5438 76.7109 73.5336 76.7391 73.5224C76.83 73.4863 76.9489 73.439 77.0375 73.4101L77.1458 73.7418M76.6644 73.552C76.6709 73.6342 76.6774 73.7161 76.6839 73.7974M76.413 73.6198C76.4126 73.6198 76.4122 73.6198 76.4118 73.6198L76.4154 73.7982C76.4161 73.7982 76.4167 73.7982 76.4174 73.7982M76.413 73.6198C76.4136 73.6198 76.4143 73.6198 76.4149 73.6198L76.4174 73.7982M76.4174 73.7982C76.5063 73.7979 76.5951 73.7976 76.6839 73.7974M76.6839 73.7974C76.6874 73.8404 76.6908 73.8832 76.6943 73.9258L77.1927 73.8854L77.1458 73.7418M76.6839 73.7974C76.8381 73.797 76.992 73.7968 77.1458 73.7968V73.7418M97.3807 108.93C97.7385 108.961 98.0885 108.991 98.4231 109.028L91.5837 107.302C91.6112 107.302 91.6386 107.302 91.6633 107.301C91.6893 107.301 91.712 107.3 91.7351 107.3C91.7814 107.3 91.8172 107.301 91.8467 107.303C91.8545 107.303 91.8611 107.304 91.8665 107.304C92.8811 108.087 93.9961 108.456 95.1094 108.66C95.8533 108.797 96.6339 108.865 97.3807 108.93ZM91.825 107.272L91.8269 107.274L91.825 107.272Z" fill="black" stroke="black"/>
</g>
</g>
<path d="M334.211 18.8292L344.576 8.46459L354.945 18.8292L344.576 29.1207L334.211 18.8292ZM356.362 18.8292L366.725 8.46593L377.016 18.8292L366.725 29.1194L356.362 18.8292ZM333.149 78.923L333.295 79.0701H333.503H355.654V78.5701V78.0701C343.683 78.0701 334.003 68.4635 334.003 56.4972C334.003 44.6056 343.686 34.8513 355.654 34.8513C367.542 34.8513 377.221 44.6043 377.221 56.4972V78.5701C377.221 90.4607 367.544 100.143 355.654 100.143H333.503C321.612 100.143 311.93 90.4606 311.93 78.5701V57.6292L333.149 78.923Z" fill="#FE2635" stroke="black"/>
<path d="M404.815 78.5701V78.0701H404.315H382.742V56.4972C382.742 44.6045 392.427 34.8513 404.315 34.8513C416.283 34.8513 425.966 44.6056 425.966 56.4972V78.3624L404.815 99.4389V78.5701Z" fill="white" stroke="black"/>
<path d="M474.711 56.4972V57.7043L475.565 56.8507L496.857 35.5584V56.4972C496.857 68.4637 487.182 78.0701 475.211 78.0701H425.763C423.31 78.0701 421.508 76.2679 421.508 73.8149V61.2576C421.508 58.8038 423.311 56.9972 425.763 56.9972H430.987H431.194L431.341 56.8507L452.638 35.5582V56.4972V57.7071L453.492 56.8501L474.711 35.5612V56.4972Z" fill="#FE2635" stroke="black"/>
<mask id="mask6_554_1833" style="mask-type:luminance" maskUnits="userSpaceOnUse" x="398" y="52" width="13" height="13">
<path d="M398.802 53.1355H409.802V64.1355H398.802V53.1355Z" fill="white" stroke="white"/>
</mask>
<g mask="url(#mask6_554_1833)">
<mask id="mask7_554_1833" style="mask-type:luminance" maskUnits="userSpaceOnUse" x="398" y="52" width="13" height="13">
<path d="M400.442 62.6983C399.39 61.6466 398.802 60.2219 398.802 58.7345C398.802 57.2525 399.39 55.8278 400.442 54.7759C401.495 53.728 402.92 53.1355 404.401 53.1355C405.888 53.1355 407.313 53.7284 408.36 54.7755C409.412 55.8274 410 57.2523 410 58.7345C410 60.2221 409.412 61.6469 408.36 62.6986C407.313 63.7457 405.888 64.3386 404.401 64.3386C402.92 64.3386 401.495 63.7461 400.442 62.6983Z" fill="white" stroke="white"/>
</mask>
<g mask="url(#mask7_554_1833)">
<path d="M399.729 61.6915L399.319 61.9646L399.729 61.6915C399.528 61.3912 399.361 61.0764 399.222 60.741C399.084 60.406 398.978 60.0618 398.907 59.708C398.836 59.3577 398.802 59.0004 398.802 58.6355C398.802 58.2764 398.836 57.9189 398.907 57.5623C398.979 57.2087 399.084 56.8648 399.222 56.53C399.361 56.1946 399.528 55.8798 399.729 55.5795C399.928 55.2799 400.157 55.0032 400.411 54.7495C400.67 54.4903 400.947 54.2615 401.246 54.0619C401.546 53.8618 401.861 53.6947 402.197 53.5558C402.531 53.4174 402.874 53.3125 403.226 53.2408C403.584 53.1732 403.943 53.1355 404.302 53.1355C404.662 53.1355 405.02 53.1732 405.378 53.2408C405.731 53.3125 406.074 53.4174 406.408 53.5558C406.743 53.6947 407.058 53.8618 407.358 54.0619L407.627 53.6585L407.358 54.0619C407.657 54.2615 407.934 54.4903 408.193 54.7495C408.447 55.0032 408.676 55.2799 408.876 55.5795C409.076 55.8798 409.243 56.1946 409.382 56.53L409.844 56.3386L409.382 56.53C409.521 56.8648 409.626 57.2087 409.697 57.5623C409.769 57.9189 409.802 58.2764 409.802 58.6355C409.802 59.0004 409.769 59.3577 409.698 59.708C409.626 60.0618 409.521 60.406 409.382 60.741C409.243 61.0764 409.076 61.3912 408.876 61.6915C408.677 61.9897 408.448 62.2666 408.193 62.5267C407.933 62.7817 407.656 63.0102 407.358 63.2091C407.055 63.4109 406.741 63.582 406.41 63.7193C406.073 63.8542 405.728 63.9593 405.375 64.0309C405.024 64.1019 404.667 64.1355 404.302 64.1355C403.937 64.1355 403.58 64.1019 403.23 64.0309C402.877 63.9593 402.531 63.8542 402.194 63.7193C401.863 63.582 401.549 63.4109 401.246 63.2091C400.948 63.0102 400.671 62.7817 400.411 62.5267C400.156 62.2666 399.927 61.9897 399.729 61.6915Z" fill="black" stroke="black"/>
</g>
</g>
<mask id="mask8_554_1833" style="mask-type:luminance" maskUnits="userSpaceOnUse" x="350" y="51" width="13" height="13">
<path d="M350.646 52.302H361.646V63.302H350.646V52.302Z" fill="white" stroke="white"/>
</mask>
<g mask="url(#mask8_554_1833)">
<mask id="mask9_554_1833" style="mask-type:luminance" maskUnits="userSpaceOnUse" x="350" y="51" width="13" height="13">
<path d="M360.204 53.942L360.205 53.9428C361.255 54.9889 361.844 56.4131 361.844 57.901C361.844 59.383 361.256 60.8076 360.204 61.8595C359.151 62.9076 357.731 63.4999 356.245 63.4999C354.758 63.4999 353.333 62.907 352.286 61.8599C351.234 60.808 350.646 59.3832 350.646 57.901C350.646 56.4131 351.234 54.9889 352.285 53.9428L352.285 53.9428L352.287 53.9412C353.333 52.8904 354.757 52.302 356.245 52.302C357.732 52.302 359.152 52.8899 360.204 53.942Z" fill="white" stroke="white"/>
</mask>
<g mask="url(#mask9_554_1833)">
<path d="M361.408 60.032C361.264 60.3727 361.092 60.6979 360.892 61.0031C360.685 61.3062 360.45 61.593 360.193 61.8495C359.934 62.109 359.653 62.342 359.351 62.5402L359.351 62.5402L359.346 62.5432C359.042 62.7478 358.718 62.9194 358.379 63.0579L358.379 63.0578L358.373 63.0602C358.036 63.2026 357.688 63.3076 357.329 63.3794C356.969 63.4515 356.606 63.4895 356.24 63.4895C355.874 63.4895 355.511 63.4516 355.144 63.3793C354.785 63.3074 354.438 63.2025 354.101 63.0602L354.101 63.0601L354.095 63.0579C353.758 62.9201 353.439 62.7489 353.133 62.5432L353.133 62.5432L353.129 62.5402C352.827 62.3424 352.545 62.1093 352.279 61.8479C352.025 61.5934 351.795 61.3071 351.586 61.0008C351.382 60.6968 351.211 60.3734 351.072 60.0348L351.072 60.0348L351.07 60.0293C350.928 59.6924 350.823 59.3449 350.751 58.9858C350.679 58.6236 350.646 58.2605 350.646 57.8958C350.646 57.5256 350.679 57.1625 350.751 56.8005C350.823 56.4414 350.928 56.0939 351.07 55.757L351.07 55.757L351.072 55.7515C351.211 55.4122 351.382 55.0894 351.585 54.7922L351.585 54.7922L351.587 54.7892C351.793 54.4824 352.023 54.2001 352.281 53.9368C352.547 53.6761 352.828 53.4435 353.129 53.2461L353.129 53.2461L353.133 53.2431C353.439 53.0374 353.758 52.8661 354.095 52.7284L354.095 52.7285L354.101 52.7261C354.438 52.5838 354.785 52.4789 355.144 52.407C355.506 52.3356 355.87 52.302 356.24 52.302C356.61 52.302 356.973 52.3357 357.329 52.4069C357.688 52.4787 358.036 52.5837 358.373 52.7261L358.373 52.7261L358.379 52.7284C358.718 52.8669 359.042 53.0385 359.346 53.2431L359.346 53.2431L359.351 53.2461C359.652 53.4439 359.933 53.6763 360.192 53.9352C360.453 54.2012 360.687 54.484 360.892 54.7884C361.091 55.0873 361.263 55.4122 361.408 55.7543C361.547 56.0937 361.651 56.4422 361.723 56.8004C361.795 57.1667 361.833 57.5299 361.833 57.8958C361.833 58.2562 361.795 58.6193 361.723 58.9859C361.651 59.3441 361.547 59.6926 361.408 60.032Z" fill="white" stroke="black"/>
</g>
</g>
<path d="M238.18 120.302V163.104L217.107 184.177V141.445L238.18 120.302Z" fill="#FE2635" stroke="black"/>
<path d="M282.896 141.738H283.104L283.25 141.591L304.469 120.302V141.238C304.469 153.128 294.787 162.811 282.896 162.811H237.974C235.521 162.811 233.719 161.009 233.719 158.556V145.998C233.719 143.545 235.522 141.738 237.974 141.738H282.896ZM258.099 186.937L247.73 176.572L258.099 166.276L268.464 176.572L258.099 186.937ZM280.244 186.936L269.881 176.572L280.244 166.277L290.539 176.572L280.244 186.936Z" fill="#FE2635" stroke="black"/>
<path d="M332.07 163.311V162.811H331.57H309.998V141.238C309.998 129.345 319.682 119.592 331.57 119.592C343.538 119.592 353.222 129.346 353.222 141.238V163.103L332.07 184.18V163.311Z" fill="white" stroke="black"/>
<path d="M379.884 118.738L379.03 119.592H380.237H402.388C414.278 119.592 423.956 129.268 423.956 141.238V162.811H353.018C350.565 162.811 348.763 161.009 348.763 158.556V145.998C348.763 143.544 350.566 141.738 353.018 141.738H380.237V141.238V140.738C368.348 140.738 358.669 131.062 358.669 119.092C358.669 107.199 368.349 97.4409 380.237 97.4409H401.181L379.884 118.738Z" fill="#FE2635" stroke="black"/>
<path d="M472.698 141.238V142.445L473.552 141.591L494.844 120.299V141.238C494.844 153.204 485.169 162.811 473.198 162.811H423.75C421.297 162.811 419.495 161.009 419.495 158.556V145.998C419.495 143.545 421.298 141.738 423.75 141.738H428.974H429.181L429.328 141.591L450.625 120.299V141.238V142.448L451.479 141.591L472.698 120.302V141.238Z" fill="#FE2635" stroke="black"/>
<mask id="mask10_554_1833" style="mask-type:luminance" maskUnits="userSpaceOnUse" x="325" y="137" width="13" height="13">
<path d="M326.219 138.469H337.219V149.469H326.219V138.469Z" fill="white" stroke="white"/>
</mask>
<g mask="url(#mask10_554_1833)">
<mask id="mask11_554_1833" style="mask-type:luminance" maskUnits="userSpaceOnUse" x="325" y="137" width="13" height="14">
<path d="M327.86 148.027L327.859 148.027C326.807 146.975 326.219 145.555 326.219 144.068C326.219 142.58 326.807 141.156 327.858 140.11L327.858 140.11L327.86 140.108C328.906 139.057 330.33 138.469 331.818 138.469C333.3 138.469 334.725 139.057 335.777 140.109L335.777 140.11C336.828 141.156 337.417 142.58 337.417 144.068C337.417 145.555 336.829 146.975 335.777 148.027C334.725 149.079 333.3 149.667 331.818 149.667C330.33 149.667 328.906 149.078 327.86 148.027Z" fill="white" stroke="white"/>
</mask>
<g mask="url(#mask11_554_1833)">
<path d="M335.608 147.851L335.608 147.851L335.601 147.858C335.35 148.115 335.074 148.343 334.775 148.542C334.476 148.741 334.156 148.909 333.823 149.049C333.489 149.187 333.147 149.292 332.79 149.363C332.432 149.431 332.073 149.469 331.719 149.469C331.359 149.469 331.001 149.431 330.643 149.363C330.29 149.292 329.947 149.187 329.613 149.048L329.44 149.466L329.613 149.048C329.278 148.91 328.963 148.742 328.663 148.542C328.363 148.343 328.087 148.114 327.828 147.855C327.574 147.601 327.345 147.324 327.145 147.025L326.736 147.298L327.145 147.025C326.944 146.723 326.772 146.403 326.633 146.073C326.496 145.742 326.396 145.4 326.324 145.037L326.323 145.036C326.252 144.686 326.219 144.328 326.219 143.969C326.219 143.604 326.252 143.247 326.323 142.896C326.396 142.538 326.497 142.194 326.634 141.863C326.771 141.531 326.943 141.216 327.145 140.913C327.344 140.615 327.573 140.338 327.828 140.078C328.088 139.823 328.365 139.594 328.663 139.395C328.966 139.193 329.281 139.021 329.613 138.884C329.944 138.747 330.288 138.646 330.646 138.573C330.997 138.502 331.354 138.469 331.719 138.469C332.078 138.469 332.436 138.502 332.786 138.573L332.787 138.574C333.15 138.646 333.492 138.746 333.823 138.883C334.153 139.022 334.473 139.194 334.775 139.395L335.044 138.992L334.775 139.395C335.074 139.595 335.351 139.824 335.605 140.078C335.864 140.337 336.093 140.613 336.292 140.913C336.492 141.213 336.66 141.528 336.798 141.863L337.26 141.672L336.798 141.863C336.937 142.197 337.042 142.54 337.113 142.893C337.181 143.251 337.219 143.609 337.219 143.969C337.219 144.323 337.181 144.682 337.113 145.04C337.042 145.397 336.937 145.739 336.799 146.073C336.659 146.406 336.491 146.726 336.292 147.025C336.093 147.324 335.865 147.6 335.608 147.851Z" fill="black" stroke="black"/>
</g>
</g>
</svg>
