<svg width="497" height="178" viewBox="0 0 497 178" fill="none" xmlns="http://www.w3.org/2000/svg">
<mask id="mask0_554_1829" style="mask-type:luminance" maskUnits="userSpaceOnUse" x="319" y="0" width="178" height="178">
<path d="M319.74 0.59375H496.74V177.594H319.74V0.59375Z" fill="white"/>
</mask>
<g mask="url(#mask0_554_1829)">
<mask id="mask1_554_1829" style="mask-type:luminance" maskUnits="userSpaceOnUse" x="319" y="0" width="178" height="178">
<path d="M319.74 30.5938V147.854C319.74 164.422 333.172 177.854 349.74 177.854H467C483.568 177.854 497 164.422 497 147.854V30.5938C497 14.0208 483.568 0.59375 467 0.59375H349.74C333.172 0.59375 319.74 14.0208 319.74 30.5938Z" fill="white"/>
</mask>
<g mask="url(#mask1_554_1829)">
<path d="M319.74 0.59375H496.99V177.844H319.74V0.59375Z" fill="#FE2635"/>
</g>
</g>
<mask id="mask2_554_1829" style="mask-type:luminance" maskUnits="userSpaceOnUse" x="331" y="13" width="154" height="153">
<path d="M331.667 13.3333H485V165.333H331.667V13.3333Z" fill="white"/>
</mask>
<g mask="url(#mask2_554_1829)">
<mask id="mask3_554_1829" style="mask-type:luminance" maskUnits="userSpaceOnUse" x="319" y="0" width="178" height="178">
<path d="M319.74 30.5938V147.854C319.74 164.422 333.172 177.854 349.74 177.854H467C483.568 177.854 497 164.422 497 147.854V30.5938C497 14.0208 483.568 0.59375 467 0.59375H349.74C333.172 0.59375 319.74 14.0208 319.74 30.5938Z" fill="white"/>
</mask>
<g mask="url(#mask3_554_1829)">
<path d="M483.99 85.0781L443.911 84.7865L482.615 74.6406L480.25 65.5833L441.547 75.724L476.307 55.8333L471.682 47.6615L436.922 67.5521L465.281 39.2917L458.682 32.6927L430.323 60.8542L450.411 26.2917L442.24 21.5677L422.151 56.1302L432.589 17.526L423.432 15.0677L413.089 53.6667V13.6875H403.635V51.5L394.38 14.8698L385.224 17.1354L395.068 55.9323L375.474 20.974L367.302 25.6042L386.896 60.4635L358.932 31.9063L352.234 38.5052L380.104 67.0625L345.734 46.776L340.911 54.849L375.375 75.1354L336.776 64.5L334.312 73.5573L372.818 84.1927L332.833 83.901L332.74 93.3542L372.818 93.6458L334.115 103.792L336.479 112.849L375.177 102.708L340.417 122.599L345.047 130.771L379.807 110.88L351.448 139.141L358.047 145.74L386.406 117.578L366.318 152.141L374.49 156.865L394.578 122.302L384.141 160.906L393.297 163.365L403.635 124.766V164.745H413.089V126.932L422.349 163.563L431.505 161.297L421.656 122.5L441.255 157.458L449.427 152.828L429.833 117.969L457.797 146.526L464.495 139.927L436.625 111.375L470.995 131.656L475.818 123.583L441.354 103.297L479.953 113.932L482.417 104.875L443.911 94.2396L483.891 94.5313L483.99 85.0781Z" fill="white"/>
</g>
</g>
<mask id="mask4_554_1829" style="mask-type:luminance" maskUnits="userSpaceOnUse" x="381" y="57" width="54" height="64">
<path d="M381.641 57.8699H434.333V120.87H381.641V57.8699Z" fill="white"/>
</mask>
<g mask="url(#mask4_554_1829)">
<mask id="mask5_554_1829" style="mask-type:luminance" maskUnits="userSpaceOnUse" x="381" y="57" width="55" height="64">
<path d="M381.641 84.599V93.8438C381.641 108.609 393.609 120.573 408.37 120.573C423.13 120.573 435.099 108.609 435.099 93.8438V84.599C435.099 69.8334 423.13 57.8699 408.37 57.8699C393.609 57.8699 381.641 69.8334 381.641 84.599Z" fill="white"/>
</mask>
<g mask="url(#mask5_554_1829)">
<path d="M399.339 70.8647C397.693 70.8647 396.354 70.8647 395.016 70.8647C393.786 70.8647 392.563 70.8543 391.339 70.8647C390.484 70.8751 389.839 71.1772 389.807 72.1668C389.771 73.1928 390.495 73.4845 391.297 73.5053C393.156 73.5522 395.021 73.521 396.885 73.521C396.901 73.7137 396.917 73.9116 396.932 74.1095C396.677 74.1876 396.422 74.3387 396.161 74.3387C394.651 74.3647 393.141 74.3491 391.63 74.3543C391.161 74.3595 390.583 74.2189 390.24 74.4428C389.677 74.8126 389.266 75.422 388.792 75.9272C389.286 76.3647 389.745 77.1199 390.276 77.172C392.099 77.3647 393.948 77.3126 395.786 77.3491C396.214 77.3595 396.646 77.3543 397.073 77.3543C397.094 77.5105 397.109 77.6668 397.125 77.823C396.724 77.8855 396.318 77.9949 395.917 78.0053C394.5 78.0314 393.063 77.8803 391.677 78.0835C390.99 78.1876 389.891 78.8855 389.859 79.3751C389.781 80.4324 390.682 80.9376 391.792 80.9168C393.505 80.8803 395.219 80.9064 396.932 80.9064C396.958 81.0574 396.984 81.2085 397.01 81.3595C396.615 81.4741 396.224 81.672 395.823 81.7032C395.073 81.7605 394.25 81.5366 393.578 81.7814C392.932 82.0157 392.448 82.6876 391.891 83.1668C392.432 83.5782 392.99 84.3647 393.516 84.3491C396.563 84.2553 399.88 84.6772 402.589 83.5991C407.438 81.6668 412.313 82.3282 417.094 82.5887C423.781 82.9532 428.87 86.6043 431.828 92.8178C434.609 98.6824 434.536 104.589 431.589 110.438C428.922 115.729 424.724 118.958 418.974 120C416.729 120.412 414.427 120.625 412.146 120.662C406.339 120.75 400.526 120.859 394.729 120.646C389.667 120.458 386.49 116.396 388.036 111.406C388.813 108.896 390.87 107.13 393.625 107.078C399.521 106.969 405.422 107.031 411.323 107.026C411.51 107.026 411.75 107 411.875 107.104C413.755 108.573 416.052 108.511 418.214 108.755C420.115 108.969 422.073 108.839 423.984 108.672C424.417 108.636 424.781 107.802 425.177 107.339C424.677 106.995 424.214 106.448 423.672 106.354C422.479 106.162 421.25 106.193 420.036 106.136C420.042 105.88 420.047 105.636 420.052 105.386C421.359 105.386 422.667 105.375 423.974 105.391C424.49 105.396 425.01 105.5 425.526 105.484C426.427 105.448 427.052 104.87 426.87 104.026C426.755 103.5 426.057 102.802 425.547 102.729C424.203 102.542 422.818 102.656 421.448 102.636C421.005 102.63 420.563 102.563 420.12 102.521C420.104 102.38 420.083 102.245 420.068 102.104C420.406 102.005 420.745 101.828 421.083 101.823C422.875 101.787 424.672 101.75 426.458 101.807C427.495 101.844 428.078 101.547 428.104 100.401C428.135 99.2397 427.531 98.922 426.51 98.948C424.859 98.9897 423.203 98.9793 421.557 98.9793C421.099 98.9793 420.651 98.9428 420.193 98.922C420.161 98.7762 420.13 98.6303 420.099 98.4845C420.505 98.3647 420.906 98.1512 421.313 98.1355C422.724 98.0782 424.156 98.2085 425.552 98.0262C426.068 97.9585 426.786 97.3178 426.917 96.8022C427.146 95.8803 426.438 95.4428 425.552 95.4376C423.521 95.422 421.49 95.4324 419.464 95.422C418.964 95.4168 418.464 95.3699 417.714 95.3282C418.313 94.4689 418.849 93.8647 419.172 93.1668C419.37 92.7293 419.443 91.8543 419.203 91.6772C418.818 91.3855 417.974 91.2553 417.599 91.4949C416.302 92.3439 415.026 93.2814 413.917 94.3699C412.714 95.5418 411.438 96.0939 409.745 96.0418C406.682 95.9376 403.604 96.172 400.542 96.0001C394.891 95.6876 390.083 93.5782 386.469 88.9324C382.849 84.2866 381.682 78.9637 382.62 73.3178C383.115 70.3491 384.411 67.4845 386.438 65.0157C388.964 61.9272 391.99 59.8543 395.776 58.672C397.906 58.0001 400 57.8595 402.177 57.8699C408.599 57.9012 415.021 57.8751 421.438 57.8855C426.198 57.8907 429.255 61.6043 428.401 66.3335C427.911 69.0574 425.432 71.2397 422.38 71.3022C416.859 71.4064 411.339 71.3907 405.813 71.3282C405.151 71.3178 404.422 70.823 403.839 70.396C402.396 69.3335 401.068 68.1147 399.599 67.0991C399.177 66.8074 398.443 66.9845 397.849 66.9532C397.833 67.5782 397.635 68.271 397.839 68.8074C398.094 69.4689 398.682 70.0001 399.339 70.8647Z" fill="black"/>
</g>
</g>
<path d="M32.25 36.8794C30.3333 35.8534 28.2917 35.02 26.125 34.3794C23.9583 33.744 21.9167 33.4211 20 33.4211C17.0937 33.4211 14.7969 34.0773 13.1042 35.3794C11.4062 36.6711 10.5625 38.4523 10.5625 40.7127C10.5625 42.9211 11.5521 44.7284 13.5417 46.1294C15.5417 47.5356 18.3802 48.9211 22.0625 50.2961C24.8125 51.2856 27.1302 52.3534 29.0208 53.5044C30.9219 54.6606 32.5 56.2544 33.75 58.2961C35 60.3377 35.625 62.9315 35.625 66.0669C35.625 68.9315 34.9062 71.5148 33.4792 73.8169C32.0625 76.1242 30.0417 77.9419 27.4167 79.2752C24.7917 80.5981 21.7083 81.2544 18.1667 81.2544C14.875 81.2544 11.6979 80.7231 8.64582 79.6711C5.60416 78.619 2.92186 77.2752 0.604156 75.6502L3.79166 69.9836C5.60936 71.3586 7.79686 72.5252 10.3542 73.4836C12.9062 74.4419 15.2917 74.9211 17.5 74.9211C20.3437 74.9211 22.8385 74.1867 24.9792 72.7127C27.1146 71.244 28.1875 69.0565 28.1875 66.1502C28.1875 63.6919 27.2917 61.744 25.5 60.2961C23.7083 58.8377 21.1875 57.4731 17.9375 56.1919C14.9375 55.0669 12.4427 53.9627 10.4583 52.8794C8.46874 51.7961 6.76041 50.3117 5.33332 48.4211C3.90103 46.52 3.18749 44.145 3.18749 41.2961C3.18749 37.119 4.64582 33.744 7.56249 31.1711C10.4896 28.5877 14.2969 27.2231 18.9792 27.0669C24.7292 27.0669 30.0625 28.494 34.9792 31.3377L32.25 36.8794Z" fill="#FE2635"/>
<path d="M44.2604 54.046C44.2604 49.1866 45.4896 44.6658 47.9479 40.4835C50.4063 36.3064 53.7084 32.9783 57.8646 30.5043C62.0156 28.0199 66.5521 26.7751 71.4688 26.7751C76.3281 26.7751 80.849 28.0199 85.0313 30.5043C89.2084 32.9783 92.5365 36.3064 95.0104 40.4835C97.4948 44.6658 98.7396 49.1866 98.7396 54.046C98.7396 58.9626 97.5104 63.5147 95.0521 67.6918C92.5938 71.8741 89.2604 75.1814 85.0521 77.6085C80.8542 80.0408 76.3281 81.2543 71.4688 81.2543C66.5521 81.2543 62 80.0564 57.8229 77.6501C53.6406 75.2335 50.3334 71.9522 47.9063 67.796C45.474 63.6449 44.2604 59.0616 44.2604 54.046ZM51.6354 54.1293C51.6354 57.7699 52.5156 61.1397 54.2813 64.2335C56.0573 67.3324 58.4792 69.7908 61.5521 71.6085C64.6198 73.4314 67.974 74.3376 71.6146 74.3376C75.25 74.3376 78.5781 73.4418 81.5938 71.6501C84.6198 69.8481 87 67.3897 88.7396 64.2751C90.4896 61.1501 91.3646 57.7439 91.3646 54.046C91.3646 50.3689 90.474 46.9574 88.6979 43.8168C86.9323 40.6658 84.5313 38.1814 81.4896 36.3585C78.4479 34.5408 75.1042 33.6293 71.4688 33.6293C67.8281 33.6293 64.4792 34.5564 61.4271 36.4001C58.3854 38.2491 55.9896 40.7491 54.2396 43.9001C52.5 47.0408 51.6354 50.4522 51.6354 54.1293Z" fill="white"/>
<path d="M107.437 54.046C107.437 49.1866 108.667 44.6658 111.125 40.4835C113.583 36.3064 116.885 32.9783 121.042 30.5043C125.193 28.0199 129.729 26.7751 134.646 26.7751C139.505 26.7751 144.026 28.0199 148.208 30.5043C152.385 32.9783 155.713 36.3064 158.187 40.4835C160.672 44.6658 161.917 49.1866 161.917 54.046C161.917 58.9626 160.687 63.5147 158.229 67.6918C155.771 71.8741 152.437 75.1814 148.229 77.6085C144.031 80.0408 139.505 81.2543 134.646 81.2543C129.729 81.2543 125.177 80.0564 121 77.6501C116.818 75.2335 113.51 71.9522 111.083 67.796C108.651 63.6449 107.437 59.0616 107.437 54.046ZM114.812 54.1293C114.812 57.7699 115.693 61.1397 117.458 64.2335C119.234 67.3324 121.656 69.7908 124.729 71.6085C127.797 73.4314 131.151 74.3376 134.792 74.3376C138.427 74.3376 141.755 73.4418 144.771 71.6501C147.797 69.8481 150.177 67.3897 151.917 64.2751C153.667 61.1501 154.542 57.7439 154.542 54.046C154.542 50.3689 153.651 46.9574 151.875 43.8168C150.109 40.6658 147.708 38.1814 144.667 36.3585C141.625 34.5408 138.281 33.6293 134.646 33.6293C131.005 33.6293 127.656 34.5564 124.604 36.4001C121.562 38.2491 119.167 40.7491 117.417 43.9001C115.677 47.0408 114.812 50.4522 114.812 54.1293Z" fill="white"/>
<path d="M227.391 80.671H203.432C201.557 81.0564 199.688 81.2543 197.828 81.2543C192.911 81.2543 188.359 80.0564 184.182 77.6501C180 75.2335 176.693 71.9522 174.266 67.796C171.833 63.6449 170.62 59.0616 170.62 54.046C170.62 49.1866 171.849 44.6658 174.307 40.4835C176.766 36.3064 180.068 32.9783 184.224 30.5043C188.375 28.0199 192.911 26.7751 197.828 26.7751C202.688 26.7751 207.208 28.0199 211.391 30.5043C215.568 32.9783 218.896 36.3064 221.37 40.4835C223.854 44.6658 225.099 49.1866 225.099 54.046C225.099 57.8376 224.359 61.4314 222.891 64.8168C221.417 68.2074 219.354 71.1606 216.703 73.671H227.391V80.671ZM177.995 54.1293C177.995 57.7699 178.875 61.1397 180.641 64.2335C182.417 67.3324 184.839 69.7908 187.911 71.6085C190.979 73.4314 194.333 74.3376 197.974 74.3376C201.609 74.3376 204.938 73.4418 207.953 71.6501C210.979 69.8481 213.359 67.3897 215.099 64.2751C216.849 61.1501 217.724 57.7439 217.724 54.046C217.724 50.421 216.833 47.0616 215.057 43.9626C213.292 40.8689 210.891 38.4106 207.849 36.5876C204.807 34.7699 201.464 33.8585 197.828 33.8585C194.188 33.8585 190.839 34.7856 187.786 36.6293C184.745 38.4626 182.349 40.9314 180.599 44.0251C178.859 47.1241 177.995 50.4939 177.995 54.1293Z" fill="#FE2635"/>
<path d="M32.25 108.879C30.3333 107.853 28.2917 107.02 26.125 106.379C23.9583 105.744 21.9167 105.421 20 105.421C17.0937 105.421 14.7969 106.077 13.1042 107.379C11.4062 108.671 10.5625 110.452 10.5625 112.713C10.5625 114.921 11.5521 116.728 13.5417 118.129C15.5417 119.536 18.3802 120.921 22.0625 122.296C24.8125 123.286 27.1302 124.353 29.0208 125.504C30.9219 126.661 32.5 128.254 33.75 130.296C35 132.338 35.625 134.931 35.625 138.067C35.625 140.931 34.9062 143.515 33.4792 145.817C32.0625 148.124 30.0417 149.942 27.4167 151.275C24.7917 152.598 21.7083 153.254 18.1667 153.254C14.875 153.254 11.6979 152.723 8.64582 151.671C5.60416 150.619 2.92186 149.275 0.604156 147.65L3.79166 141.984C5.60936 143.359 7.79686 144.525 10.3542 145.484C12.9062 146.442 15.2917 146.921 17.5 146.921C20.3437 146.921 22.8385 146.187 24.9792 144.713C27.1146 143.244 28.1875 141.056 28.1875 138.15C28.1875 135.692 27.2917 133.744 25.5 132.296C23.7083 130.838 21.1875 129.473 17.9375 128.192C14.9375 127.067 12.4427 125.963 10.4583 124.879C8.46874 123.796 6.76041 122.312 5.33332 120.421C3.90103 118.52 3.18749 116.145 3.18749 113.296C3.18749 109.119 4.64582 105.744 7.56249 103.171C10.4896 100.588 14.2969 99.2231 18.9792 99.0669C24.7292 99.0669 30.0625 100.494 34.9792 103.338L32.25 108.879Z" fill="#FE2635"/>
<path d="M101.029 152.671H77.071C75.196 153.057 73.3262 153.255 71.4668 153.255C66.5502 153.255 61.9981 152.057 57.821 149.65C53.6387 147.234 50.3314 143.952 47.9043 139.796C45.472 135.645 44.2585 131.062 44.2585 126.046C44.2585 121.187 45.4877 116.666 47.946 112.484C50.4043 108.307 53.7064 104.979 57.8627 102.505C62.0137 100.02 66.5502 98.7754 71.4668 98.7754C76.3262 98.7754 80.847 100.02 85.0293 102.505C89.2064 104.979 92.5345 108.307 95.0085 112.484C97.4929 116.666 98.7377 121.187 98.7377 126.046C98.7377 129.838 97.9981 133.432 96.5293 136.817C95.0554 140.208 92.9929 143.161 90.3418 145.671H101.029V152.671ZM51.6335 126.13C51.6335 129.77 52.5137 133.14 54.2793 136.234C56.0554 139.333 58.4772 141.791 61.5502 143.609C64.6179 145.432 67.972 146.338 71.6127 146.338C75.2481 146.338 78.5762 145.442 81.5918 143.65C84.6179 141.848 86.9981 139.39 88.7377 136.275C90.4877 133.15 91.3627 129.744 91.3627 126.046C91.3627 122.421 90.472 119.062 88.696 115.963C86.9304 112.869 84.5293 110.411 81.4877 108.588C78.446 106.77 75.1022 105.859 71.4668 105.859C67.8262 105.859 64.4772 106.786 61.4252 108.63C58.3835 110.463 55.9877 112.932 54.2377 116.025C52.4981 119.124 51.6335 122.494 51.6335 126.13Z" fill="#FE2635"/>
<path d="M119.521 133.796C119.521 136.161 120.083 138.286 121.208 140.171C122.344 142.062 123.885 143.562 125.833 144.671C127.776 145.786 129.927 146.338 132.292 146.338C134.75 146.338 136.969 145.796 138.958 144.713C140.943 143.629 142.5 142.129 143.625 140.213C144.76 138.296 145.333 136.161 145.333 133.796V99.3586H152.333V134.025C152.333 137.807 151.448 141.161 149.688 144.088C147.922 147.004 145.51 149.265 142.458 150.859C139.417 152.458 136.026 153.254 132.292 153.254C128.594 153.254 125.219 152.458 122.167 150.859C119.125 149.265 116.729 147.004 114.979 144.088C113.24 141.161 112.375 137.807 112.375 134.025V99.3586H119.521V133.796Z" fill="white"/>
<path d="M194.948 138.671H174.448L168.781 152.671H161.698L185.01 97.1504H185.448L208.74 152.671H200.49L194.948 138.671ZM192.531 132.463L184.927 113.005L177.031 132.463H192.531Z" fill="#FE2635"/>
<path d="M248.041 152.671L235.5 132.984C235.109 133.041 234.521 133.067 233.729 133.067H225.833V152.671H218.687V99.3586H232.916C236.552 99.3586 239.797 99.9993 242.646 101.275C245.489 102.557 247.729 104.437 249.354 106.921C250.979 109.411 251.791 112.395 251.791 115.879C251.791 119.171 251.062 122.202 249.604 124.963C248.156 127.713 245.937 129.796 242.937 131.213L256.354 152.671H248.041ZM233.583 126.129C237.416 126.129 240.177 125.124 241.875 123.109C243.567 121.098 244.416 118.786 244.416 116.171C244.416 114.603 244.062 113.062 243.354 111.546C242.646 110.02 241.51 108.749 239.958 107.734C238.416 106.723 236.463 106.213 234.104 106.213H225.833V126.129H233.583Z" fill="#FE2635"/>
<path d="M301.988 99.3586V106.213H274.488V122.442H299.05V129.296H274.488V145.734H303.029V152.671H267.342V99.3586H301.988Z" fill="#FE2635"/>
<mask id="mask6_554_1829" style="mask-type:luminance" maskUnits="userSpaceOnUse" x="49" y="33" width="45" height="46">
<path d="M49 33.427H94V78.427H49V33.427Z" fill="white"/>
</mask>
<g mask="url(#mask6_554_1829)">
<path d="M93.8698 55.8645C77.0469 58.9635 74.5313 61.4739 71.4375 78.302C68.3385 61.4739 65.8281 58.9635 49 55.8645C65.8281 52.7655 68.3385 50.2551 71.4375 33.427C74.5313 50.2551 77.0469 52.7655 93.8698 55.8645Z" fill="white"/>
</g>
<mask id="mask7_554_1829" style="mask-type:luminance" maskUnits="userSpaceOnUse" x="112" y="33" width="46" height="46">
<path d="M112.802 33.427H157.802V78.427H112.802V33.427Z" fill="white"/>
</mask>
<g mask="url(#mask7_554_1829)">
<path d="M157.672 55.8645C140.844 58.9635 138.333 61.4739 135.24 78.302C132.141 61.4739 129.63 58.9635 112.802 55.8645C129.63 52.7655 132.141 50.2551 135.24 33.427C138.333 50.2551 140.844 52.7655 157.672 55.8645Z" fill="white"/>
</g>
</svg>
