<svg width="498" height="188" viewBox="0 0 498 188" fill="none" xmlns="http://www.w3.org/2000/svg">
<mask id="mask0_554_1830" style="mask-type:luminance" maskUnits="userSpaceOnUse" x="0" y="0" width="177" height="178">
<path d="M0 0.369873H177V177.37H0V0.369873Z" fill="white"/>
</mask>
<g mask="url(#mask0_554_1830)">
<mask id="mask1_554_1830" style="mask-type:luminance" maskUnits="userSpaceOnUse" x="0" y="0" width="178" height="178">
<path d="M0 30.3699V147.63C0 164.198 13.4323 177.63 30 177.63H147.26C163.828 177.63 177.26 164.198 177.26 147.63V30.3699C177.26 13.8022 163.828 0.369873 147.26 0.369873H30C13.4323 0.369873 0 13.8022 0 30.3699Z" fill="white"/>
</mask>
<g mask="url(#mask1_554_1830)">
<path d="M0 0.369873H177.25V177.62H0V0.369873Z" fill="#FE2635"/>
</g>
</g>
<mask id="mask2_554_1830" style="mask-type:luminance" maskUnits="userSpaceOnUse" x="12" y="12" width="154" height="154">
<path d="M12 12.3333H165.333V165.667H12V12.3333Z" fill="white"/>
</mask>
<g mask="url(#mask2_554_1830)">
<mask id="mask3_554_1830" style="mask-type:luminance" maskUnits="userSpaceOnUse" x="0" y="0" width="178" height="178">
<path d="M0 30.3696V147.63C0 164.198 13.4323 177.63 30 177.63H147.26C163.828 177.63 177.26 164.198 177.26 147.63V30.3696C177.26 13.8019 163.828 0.369629 147.26 0.369629H30C13.4323 0.369629 0 13.8019 0 30.3696Z" fill="white"/>
</mask>
<g mask="url(#mask3_554_1830)">
<path d="M164.25 84.8591L124.172 84.5623L162.875 74.4216L160.51 65.3591L121.813 75.505L156.573 55.6143L151.943 47.4373L117.182 67.3279L145.542 39.0675L138.943 32.4737L110.583 60.6352L130.672 26.0727L122.5 21.3435L102.411 55.906L112.849 17.307L103.693 14.8435L93.3542 53.4477V13.4685H83.8958V51.281L74.6406 14.6456L65.4844 16.9112L75.3333 55.7081L55.7344 20.755L47.5625 25.38L67.1563 60.2393L39.1927 31.682L32.4948 38.281L60.3646 66.8383L25.9948 46.5518L21.1719 54.63L55.6354 74.9112L17.0365 64.2758L14.5729 73.3383L53.0781 83.9737L13.099 83.6768L13 93.13L53.0781 93.4268L14.375 103.567L16.7396 112.63L55.4375 102.484L20.6771 122.375L25.3073 130.552L60.0677 110.656L31.7083 138.922L38.3073 145.515L66.6667 117.354L46.5781 151.916L54.75 156.646L74.8385 122.083L64.401 160.682L73.5573 163.146L83.8958 124.541V164.521H93.3542V126.708L102.609 163.338L111.766 161.078L101.917 122.276L121.516 157.234L129.688 152.609L110.094 117.75L138.057 146.307L144.755 139.708L116.885 111.151L151.255 131.437L156.078 123.359L121.615 103.078L160.214 113.713L162.677 104.651L124.172 94.0154L164.151 94.3123L164.25 84.8591Z" fill="white"/>
</g>
</g>
<mask id="mask4_554_1830" style="mask-type:luminance" maskUnits="userSpaceOnUse" x="61" y="57" width="54" height="64">
<path d="M61.9011 57.6458H114.667V120.646H61.9011V57.6458Z" fill="white"/>
</mask>
<g mask="url(#mask4_554_1830)">
<mask id="mask5_554_1830" style="mask-type:luminance" maskUnits="userSpaceOnUse" x="61" y="57" width="55" height="64">
<path d="M61.9011 84.3749V93.6249C61.9011 108.385 73.8698 120.354 88.6302 120.354C103.391 120.354 115.359 108.385 115.359 93.6249V84.3749C115.359 69.6145 103.391 57.6458 88.6302 57.6458C73.8698 57.6458 61.9011 69.6145 61.9011 84.3749Z" fill="white"/>
</mask>
<g mask="url(#mask5_554_1830)">
<path d="M79.599 70.6458C77.9531 70.6458 76.6146 70.6458 75.2761 70.6458C74.0469 70.6458 72.8229 70.6354 71.599 70.6458C70.7448 70.651 70.099 70.9531 70.0677 71.9426C70.0313 72.9687 70.7552 73.2604 71.5573 73.2812C73.4167 73.3281 75.2813 73.2968 77.1458 73.2968C77.1615 73.4947 77.1771 73.6926 77.1927 73.8854C76.9375 73.9687 76.6823 74.1145 76.4219 74.1197C74.9167 74.1406 73.4063 74.1249 71.8958 74.1354C71.4219 74.1354 70.8438 73.9999 70.5052 74.2239C69.9375 74.5885 69.5261 75.1979 69.0521 75.7083C69.5469 76.1406 70.0052 76.8958 70.5365 76.9479C72.3594 77.1406 74.2083 77.0937 76.0469 77.1301C76.474 77.1354 76.9063 77.1301 77.3333 77.1301C77.3542 77.2864 77.3698 77.4426 77.3854 77.5989C76.9844 77.6614 76.5781 77.776 76.1771 77.7812C74.7604 77.8072 73.3229 77.6562 71.9375 77.8645C71.25 77.9635 70.1511 78.6614 70.1198 79.151C70.0417 80.2135 70.9427 80.7135 72.0521 80.6926C73.7656 80.6614 75.4792 80.6822 77.1927 80.6822C77.2188 80.8333 77.2448 80.9843 77.2708 81.1354C76.875 81.2551 76.4844 81.4479 76.0833 81.4791C75.3333 81.5364 74.5104 81.3176 73.8386 81.5572C73.1927 81.7916 72.7083 82.4635 72.1563 82.9426C72.6927 83.3593 73.25 84.1406 73.7761 84.1249C76.8229 84.0312 80.1406 84.4583 82.849 83.3749C87.6979 81.4479 92.5781 82.1093 97.3542 82.3645C104.042 82.7291 109.13 86.3801 112.089 92.5937C114.875 98.4583 114.797 104.37 111.849 110.213C109.182 115.505 104.984 118.74 99.2344 119.781C96.9896 120.187 94.6875 120.401 92.4063 120.437C86.599 120.526 80.7865 120.635 74.9896 120.422C69.9271 120.234 66.7552 116.177 68.2969 111.187C69.0729 108.677 71.1302 106.906 73.8854 106.859C79.7813 106.75 85.6823 106.807 91.5833 106.802C91.7708 106.802 92.0104 106.781 92.1354 106.88C94.0156 108.354 96.3125 108.292 98.4792 108.531C100.375 108.75 102.333 108.62 104.245 108.448C104.677 108.411 105.042 107.583 105.438 107.115C104.938 106.776 104.474 106.224 103.932 106.135C102.74 105.937 101.51 105.969 100.297 105.911C100.302 105.661 100.307 105.411 100.313 105.161C101.62 105.161 102.927 105.151 104.234 105.167C104.75 105.172 105.271 105.281 105.786 105.26C106.688 105.224 107.313 104.646 107.13 103.802C107.016 103.276 106.318 102.578 105.807 102.505C104.464 102.318 103.078 102.437 101.708 102.411C101.266 102.406 100.823 102.338 100.38 102.297C100.365 102.156 100.349 102.021 100.328 101.88C100.667 101.781 101.005 101.604 101.349 101.599C103.135 101.568 104.932 101.531 106.719 101.588C107.755 101.62 108.339 101.323 108.37 100.182C108.396 99.0208 107.792 98.6979 106.771 98.7239C105.12 98.7656 103.469 98.7604 101.818 98.7604C101.359 98.7604 100.911 98.7187 100.458 98.6979C100.422 98.552 100.391 98.4062 100.359 98.2604C100.766 98.1406 101.167 97.927 101.573 97.9114C102.99 97.8593 104.417 97.9843 105.813 97.802C106.328 97.7395 107.047 97.0937 107.177 96.5833C107.406 95.6562 106.698 95.2239 105.813 95.2187C103.781 95.2031 101.75 95.2135 99.724 95.1979C99.224 95.1979 98.7292 95.1458 97.974 95.1041C98.5729 94.2447 99.1094 93.6458 99.4323 92.9426C99.6302 92.5051 99.7031 91.6354 99.4636 91.4531C99.0781 91.1666 98.2344 91.0312 97.8594 91.276C96.5625 92.1249 95.2865 93.0624 94.1771 94.1458C92.974 95.3229 91.7031 95.8749 90.0052 95.8176C86.9427 95.7187 83.8646 95.9531 80.8073 95.7812C75.1563 95.4635 70.3438 93.3541 66.7292 88.7135C63.1094 84.0624 61.9427 78.7395 62.8854 73.0989C63.375 70.1301 64.6719 67.2656 66.6979 64.7968C69.224 61.7031 72.25 59.6301 76.0365 58.4479C78.1719 57.7812 80.2604 57.6354 82.4375 57.6458C88.8594 57.6822 95.2813 57.6562 101.698 57.6614C106.458 57.6718 109.516 61.3854 108.661 66.1145C108.172 68.8385 105.693 71.0208 102.641 71.0781C97.1198 71.1874 91.599 71.1666 86.0729 71.1041C85.4115 71.0989 84.6823 70.6041 84.099 70.177C82.6615 69.1145 81.3281 67.8906 79.8594 66.8749C79.4375 66.5833 78.7031 66.7656 78.1094 66.7291C78.0938 67.3593 77.8958 68.052 78.099 68.5885C78.3542 69.2499 78.9427 69.7812 79.599 70.6458Z" fill="black"/>
</g>
</g>
<path d="M355.654 18.8305L344.576 7.75757L333.503 18.8305L344.576 29.8253L355.654 18.8305ZM377.721 18.8305L366.727 7.75757L355.654 18.8305L366.727 29.8253L377.721 18.8305ZM355.654 34.3513C343.409 34.3513 333.503 44.3305 333.503 56.4972C333.503 68.7419 343.409 78.5701 355.654 78.5701H333.503L311.43 56.419V78.5701C311.43 90.7367 321.336 100.643 333.503 100.643H355.654C367.82 100.643 377.721 90.7367 377.721 78.5701V56.4972C377.721 44.3305 367.82 34.3513 355.654 34.3513Z" fill="#FE2635"/>
<path d="M404.315 34.3513C392.149 34.3513 382.242 44.3305 382.242 56.4972V78.5701H404.315V100.643L426.466 78.5701V56.4972C426.466 44.3305 416.56 34.3513 404.315 34.3513Z" fill="black"/>
<path d="M475.211 56.4972V34.3513L453.138 56.4972V34.3513L430.987 56.4972H425.763C423.034 56.4972 421.008 58.5284 421.008 61.2576V73.8149C421.008 76.544 423.034 78.5701 425.763 78.5701H475.211C487.456 78.5701 497.357 68.7419 497.357 56.4972V34.3513L475.211 56.4972Z" fill="#FE2635"/>
<mask id="mask6_554_1830" style="mask-type:luminance" maskUnits="userSpaceOnUse" x="398" y="52" width="13" height="13">
<path d="M398.302 52.6355H410.302V64.6355H398.302V52.6355Z" fill="white"/>
</mask>
<g mask="url(#mask6_554_1830)">
<mask id="mask7_554_1830" style="mask-type:luminance" maskUnits="userSpaceOnUse" x="398" y="52" width="13" height="13">
<path d="M398.302 58.7345C398.302 60.3542 398.943 61.9063 400.089 63.0522C401.234 64.1928 402.786 64.8386 404.401 64.8386C406.021 64.8386 407.573 64.1928 408.714 63.0522C409.859 61.9063 410.5 60.3542 410.5 58.7345C410.5 57.1199 409.859 55.5678 408.714 54.422C407.573 53.2813 406.021 52.6355 404.401 52.6355C402.786 52.6355 401.234 53.2813 400.089 54.422C398.943 55.5678 398.302 57.1199 398.302 58.7345Z" fill="white"/>
</mask>
<g mask="url(#mask7_554_1830)">
<path d="M410.49 58.7292C410.49 59.1303 410.448 59.5261 410.37 59.9167C410.292 60.3126 410.177 60.6928 410.026 61.0626C409.875 61.4324 409.682 61.7813 409.464 62.1147C409.24 62.448 408.99 62.7553 408.703 63.0417C408.422 63.323 408.115 63.573 407.781 63.797C407.448 64.0209 407.099 64.2084 406.729 64.3595C406.359 64.5157 405.979 64.6303 405.583 64.7084C405.193 64.7865 404.797 64.823 404.396 64.823C403.995 64.823 403.599 64.7865 403.208 64.7084C402.813 64.6303 402.432 64.5157 402.063 64.3595C401.693 64.2084 401.344 64.0209 401.01 63.797C400.677 63.573 400.37 63.323 400.089 63.0417C399.802 62.7553 399.552 62.448 399.328 62.1147C399.104 61.7813 398.917 61.4324 398.766 61.0626C398.615 60.6928 398.495 60.3126 398.417 59.9167C398.339 59.5261 398.302 59.1303 398.302 58.7292C398.302 58.3282 398.339 57.9324 398.417 57.5417C398.495 57.1511 398.615 56.7657 398.766 56.3959C398.917 56.0313 399.104 55.6772 399.328 55.3438C399.552 55.0105 399.802 54.7032 400.089 54.422C400.37 54.1407 400.677 53.8855 401.01 53.6615C401.344 53.4428 401.693 53.2553 402.063 53.099C402.432 52.948 402.813 52.8334 403.208 52.7553C403.599 52.6772 403.995 52.6355 404.396 52.6355C404.797 52.6355 405.193 52.6772 405.583 52.7553C405.979 52.8334 406.359 52.948 406.729 53.099C407.099 53.2553 407.448 53.4428 407.781 53.6615C408.115 53.8855 408.422 54.1407 408.703 54.422C408.99 54.7032 409.24 55.0105 409.464 55.3438C409.682 55.6772 409.875 56.0313 410.026 56.3959C410.177 56.7657 410.292 57.1511 410.37 57.5417C410.448 57.9324 410.49 58.3282 410.49 58.7292Z" fill="white"/>
</g>
</g>
<mask id="mask8_554_1830" style="mask-type:luminance" maskUnits="userSpaceOnUse" x="350" y="51" width="13" height="13">
<path d="M350.146 51.802H362.146V63.802H350.146V51.802Z" fill="white"/>
</mask>
<g mask="url(#mask8_554_1830)">
<mask id="mask9_554_1830" style="mask-type:luminance" maskUnits="userSpaceOnUse" x="350" y="51" width="13" height="13">
<path d="M350.146 57.901C350.146 59.5155 350.786 61.0676 351.932 62.2135C353.073 63.3541 354.625 63.9999 356.245 63.9999C357.865 63.9999 359.411 63.3541 360.557 62.2135C361.703 61.0676 362.344 59.5155 362.344 57.901C362.344 56.2812 361.703 54.7291 360.557 53.5885C359.411 52.4426 357.865 51.802 356.245 51.802C354.625 51.802 353.073 52.4426 351.932 53.5885C350.786 54.7291 350.146 56.2812 350.146 57.901Z" fill="white"/>
</mask>
<g mask="url(#mask9_554_1830)">
<path d="M362.333 57.8958C362.333 58.2916 362.292 58.6874 362.214 59.0833C362.135 59.4739 362.021 59.8541 361.87 60.2239C361.714 60.5937 361.526 60.9478 361.307 61.2812C361.083 61.6093 360.828 61.9218 360.547 62.203C360.266 62.4843 359.958 62.7395 359.625 62.9583C359.292 63.1822 358.938 63.3697 358.568 63.5208C358.198 63.677 357.818 63.7916 357.427 63.8697C357.037 63.9478 356.641 63.9895 356.24 63.9895C355.839 63.9895 355.443 63.9478 355.047 63.8697C354.656 63.7916 354.276 63.677 353.906 63.5208C353.536 63.3697 353.188 63.1822 352.854 62.9583C352.521 62.7395 352.214 62.4843 351.927 62.203C351.646 61.9218 351.396 61.6093 351.172 61.2812C350.948 60.9478 350.76 60.5937 350.609 60.2239C350.453 59.8541 350.339 59.4739 350.26 59.0833C350.182 58.6874 350.146 58.2916 350.146 57.8958C350.146 57.4947 350.182 57.0989 350.26 56.703C350.339 56.3124 350.453 55.9322 350.609 55.5624C350.76 55.1926 350.948 54.8385 351.172 54.5103C351.396 54.177 351.646 53.8697 351.927 53.5833C352.214 53.302 352.521 53.0468 352.854 52.828C353.188 52.6041 353.536 52.4166 353.906 52.2655C354.276 52.1093 354.656 51.9947 355.047 51.9166C355.443 51.8385 355.839 51.802 356.24 51.802C356.641 51.802 357.037 51.8385 357.427 51.9166C357.818 51.9947 358.198 52.1093 358.568 52.2655C358.938 52.4166 359.292 52.6041 359.625 52.828C359.958 53.0468 360.266 53.302 360.547 53.5833C360.828 53.8697 361.083 54.177 361.307 54.5103C361.526 54.8385 361.714 55.1926 361.87 55.5624C362.021 55.9322 362.135 56.3124 362.214 56.703C362.292 57.0989 362.333 57.4947 362.333 57.8958Z" fill="white"/>
</g>
</g>
<path d="M216.607 141.238V185.384L238.68 163.311V119.092L216.607 141.238Z" fill="#FE2635"/>
<path d="M282.896 141.238H237.975C235.245 141.238 233.219 143.269 233.219 145.998V158.556C233.219 161.285 235.245 163.311 237.975 163.311H282.896C295.063 163.311 304.969 153.405 304.969 141.238V119.092L282.896 141.238ZM247.021 176.571L258.1 187.644L269.172 176.571L258.1 165.571L247.021 176.571ZM269.172 176.571L280.245 187.644L291.245 176.571L280.245 165.571L269.172 176.571Z" fill="#FE2635"/>
<path d="M331.57 119.092C319.404 119.092 309.498 129.071 309.498 141.238V163.311H331.57V185.384L353.722 163.311V141.238C353.722 129.071 343.815 119.092 331.57 119.092Z" fill="black"/>
<path d="M402.388 119.092H380.237L402.388 96.9409H380.237C368.07 96.9409 358.169 106.925 358.169 119.092C358.169 131.337 368.07 141.238 380.237 141.238H353.018C350.289 141.238 348.263 143.269 348.263 145.998V158.556C348.263 161.285 350.289 163.311 353.018 163.311H424.456V141.238C424.456 128.993 414.555 119.092 402.388 119.092Z" fill="#FE2635"/>
<path d="M473.198 141.238V119.092L451.125 141.238V119.092L428.974 141.238H423.75C421.021 141.238 418.995 143.269 418.995 145.998V158.556C418.995 161.285 421.021 163.311 423.75 163.311H473.198C485.443 163.311 495.344 153.483 495.344 141.238V119.092L473.198 141.238Z" fill="#FE2635"/>
<mask id="mask10_554_1830" style="mask-type:luminance" maskUnits="userSpaceOnUse" x="325" y="137" width="13" height="13">
<path d="M325.719 137.969H337.719V149.969H325.719V137.969Z" fill="white"/>
</mask>
<g mask="url(#mask10_554_1830)">
<mask id="mask11_554_1830" style="mask-type:luminance" maskUnits="userSpaceOnUse" x="325" y="137" width="13" height="14">
<path d="M325.719 144.068C325.719 145.688 326.359 147.234 327.505 148.38C328.646 149.526 330.198 150.167 331.818 150.167C333.432 150.167 334.984 149.526 336.13 148.38C337.276 147.234 337.917 145.688 337.917 144.068C337.917 142.448 337.276 140.896 336.13 139.755C334.984 138.609 333.432 137.969 331.818 137.969C330.198 137.969 328.646 138.609 327.505 139.755C326.359 140.896 325.719 142.448 325.719 144.068Z" fill="white"/>
</mask>
<g mask="url(#mask11_554_1830)">
<path d="M337.906 144.063C337.906 144.464 337.865 144.859 337.786 145.25C337.708 145.641 337.594 146.026 337.443 146.391C337.286 146.76 337.099 147.115 336.88 147.448C336.656 147.781 336.401 148.089 336.12 148.37C335.839 148.651 335.531 148.906 335.198 149.13C334.865 149.349 334.51 149.536 334.141 149.693C333.771 149.844 333.391 149.958 333 150.036C332.609 150.115 332.214 150.156 331.813 150.156C331.411 150.156 331.016 150.115 330.62 150.036C330.229 149.958 329.849 149.844 329.479 149.693C329.109 149.536 328.76 149.349 328.427 149.13C328.094 148.906 327.786 148.651 327.5 148.37C327.219 148.089 326.969 147.781 326.745 147.448C326.521 147.115 326.333 146.76 326.182 146.391C326.026 146.026 325.911 145.641 325.833 145.25C325.755 144.859 325.719 144.464 325.719 144.063C325.719 143.661 325.755 143.266 325.833 142.87C325.911 142.479 326.026 142.099 326.182 141.729C326.333 141.359 326.521 141.01 326.745 140.677C326.969 140.344 327.219 140.036 327.5 139.75C327.786 139.469 328.094 139.219 328.427 138.995C328.76 138.771 329.109 138.583 329.479 138.432C329.849 138.276 330.229 138.161 330.62 138.083C331.016 138.005 331.411 137.969 331.813 137.969C332.214 137.969 332.609 138.005 333 138.083C333.391 138.161 333.771 138.276 334.141 138.432C334.51 138.583 334.865 138.771 335.198 138.995C335.531 139.219 335.839 139.469 336.12 139.75C336.401 140.036 336.656 140.344 336.88 140.677C337.099 141.01 337.286 141.359 337.443 141.729C337.594 142.099 337.708 142.479 337.786 142.87C337.865 143.266 337.906 143.661 337.906 144.063Z" fill="white"/>
</g>
</g>
</svg>
