<svg width="497" height="178" viewBox="0 0 497 178" fill="none" xmlns="http://www.w3.org/2000/svg">
<mask id="mask0_554_1831" style="mask-type:luminance" maskUnits="userSpaceOnUse" x="319" y="0" width="178" height="178">
<path d="M319.74 0.59375H496.74V177.594H319.74V0.59375Z" fill="white"/>
</mask>
<g mask="url(#mask0_554_1831)">
<mask id="mask1_554_1831" style="mask-type:luminance" maskUnits="userSpaceOnUse" x="319" y="0" width="178" height="178">
<path d="M319.74 30.5938V147.854C319.74 164.422 333.172 177.854 349.74 177.854H467C483.568 177.854 497 164.422 497 147.854V30.5938C497 14.0208 483.568 0.59375 467 0.59375H349.74C333.172 0.59375 319.74 14.0208 319.74 30.5938Z" fill="white"/>
</mask>
<g mask="url(#mask1_554_1831)">
<path d="M319.74 0.59375H496.99V177.844H319.74V0.59375Z" fill="#FE2635"/>
</g>
</g>
<mask id="mask2_554_1831" style="mask-type:luminance" maskUnits="userSpaceOnUse" x="331" y="13" width="154" height="153">
<path d="M331.667 13.3334H485V165.333H331.667V13.3334Z" fill="white"/>
</mask>
<g mask="url(#mask2_554_1831)">
<mask id="mask3_554_1831" style="mask-type:luminance" maskUnits="userSpaceOnUse" x="319" y="0" width="178" height="178">
<path d="M319.74 30.5938V147.854C319.74 164.422 333.172 177.854 349.74 177.854H467C483.568 177.854 497 164.422 497 147.854V30.5938C497 14.0208 483.568 0.59375 467 0.59375H349.74C333.172 0.59375 319.74 14.0208 319.74 30.5938Z" fill="white"/>
</mask>
<g mask="url(#mask3_554_1831)">
<path d="M483.99 85.0781L443.911 84.7865L482.615 74.6406L480.25 65.5833L441.547 75.724L476.307 55.8333L471.682 47.6615L436.922 67.5521L465.281 39.2917L458.682 32.6927L430.323 60.8542L450.411 26.2917L442.24 21.5677L422.151 56.1302L432.589 17.526L423.432 15.0677L413.089 53.6667V13.6875H403.635V51.5L394.38 14.8698L385.224 17.1354L395.068 55.9323L375.474 20.974L367.302 25.6042L386.896 60.4635L358.932 31.9063L352.234 38.5052L380.104 67.0625L345.734 46.776L340.911 54.849L375.375 75.1354L336.776 64.5L334.312 73.5573L372.818 84.1927L332.833 83.901L332.74 93.3542L372.818 93.6458L334.115 103.792L336.479 112.849L375.177 102.708L340.417 122.599L345.047 130.771L379.807 110.88L351.448 139.141L358.047 145.74L386.406 117.578L366.318 152.141L374.49 156.865L394.578 122.302L384.141 160.906L393.297 163.365L403.635 124.766V164.745H413.089V126.932L422.349 163.563L431.505 161.297L421.656 122.5L441.255 157.458L449.427 152.828L429.833 117.969L457.797 146.526L464.495 139.927L436.625 111.375L470.995 131.656L475.818 123.583L441.354 103.297L479.953 113.932L482.417 104.875L443.911 94.2396L483.891 94.5313L483.99 85.0781Z" fill="white"/>
</g>
</g>
<mask id="mask4_554_1831" style="mask-type:luminance" maskUnits="userSpaceOnUse" x="381" y="57" width="54" height="64">
<path d="M381.641 57.8698H434.333V120.87H381.641V57.8698Z" fill="white"/>
</mask>
<g mask="url(#mask4_554_1831)">
<mask id="mask5_554_1831" style="mask-type:luminance" maskUnits="userSpaceOnUse" x="381" y="57" width="55" height="64">
<path d="M381.641 84.5989V93.8437C381.641 108.609 393.609 120.573 408.37 120.573C423.13 120.573 435.099 108.609 435.099 93.8437V84.5989C435.099 69.8333 423.13 57.8698 408.37 57.8698C393.609 57.8698 381.641 69.8333 381.641 84.5989Z" fill="white"/>
</mask>
<g mask="url(#mask5_554_1831)">
<path d="M399.339 70.8646C397.693 70.8646 396.354 70.8646 395.016 70.8646C393.786 70.8646 392.563 70.8542 391.339 70.8646C390.484 70.875 389.839 71.1771 389.807 72.1667C389.771 73.1927 390.495 73.4844 391.297 73.5052C393.156 73.5521 395.021 73.5208 396.885 73.5208C396.901 73.7135 396.917 73.9115 396.932 74.1094C396.677 74.1875 396.422 74.3385 396.161 74.3437C394.651 74.3646 393.141 74.349 391.63 74.3542C391.161 74.3594 390.583 74.2187 390.24 74.4427C389.677 74.8125 389.266 75.4219 388.792 75.9271C389.286 76.3646 389.745 77.1198 390.276 77.1719C392.099 77.3646 393.948 77.3125 395.786 77.349C396.214 77.3594 396.646 77.3542 397.073 77.3542C397.094 77.5104 397.109 77.6667 397.125 77.8229C396.724 77.8854 396.318 77.9948 395.917 78.0052C394.5 78.0312 393.063 77.8802 391.677 78.0833C390.99 78.1875 389.891 78.8854 389.859 79.375C389.781 80.4323 390.682 80.9375 391.792 80.9167C393.505 80.8802 395.219 80.9062 396.932 80.9062C396.958 81.0573 396.984 81.2083 397.01 81.3594C396.615 81.474 396.224 81.6719 395.823 81.7031C395.073 81.7604 394.25 81.5365 393.578 81.7812C392.932 82.0156 392.448 82.6875 391.891 83.1667C392.432 83.5781 392.99 84.3646 393.516 84.349C396.563 84.2552 399.88 84.6771 402.589 83.599C407.438 81.6667 412.313 82.3281 417.094 82.5885C423.781 82.9531 428.87 86.6042 431.828 92.8177C434.609 98.6823 434.536 104.589 431.589 110.437C428.922 115.729 424.724 118.958 418.974 120.005C416.729 120.411 414.427 120.625 412.146 120.661C406.339 120.75 400.526 120.859 394.729 120.646C389.667 120.458 386.49 116.396 388.036 111.406C388.813 108.896 390.87 107.13 393.625 107.078C399.521 106.969 405.422 107.031 411.323 107.026C411.51 107.026 411.75 107 411.875 107.104C413.755 108.573 416.052 108.51 418.214 108.755C420.115 108.969 422.073 108.839 423.984 108.672C424.417 108.635 424.781 107.802 425.177 107.339C424.677 106.995 424.214 106.448 423.672 106.354C422.479 106.161 421.25 106.193 420.036 106.135C420.042 105.88 420.047 105.635 420.052 105.385C421.359 105.385 422.667 105.375 423.974 105.391C424.49 105.396 425.01 105.5 425.526 105.484C426.427 105.448 427.052 104.87 426.87 104.026C426.755 103.5 426.057 102.802 425.547 102.729C424.203 102.542 422.818 102.661 421.448 102.635C421.005 102.63 420.563 102.562 420.12 102.521C420.104 102.38 420.083 102.245 420.068 102.104C420.406 102.005 420.745 101.828 421.083 101.823C422.875 101.786 424.672 101.75 426.458 101.807C427.495 101.844 428.078 101.547 428.104 100.401C428.135 99.2396 427.531 98.9219 426.51 98.9479C424.859 98.9896 423.203 98.9792 421.557 98.9792C421.099 98.9792 420.651 98.9427 420.193 98.9219C420.161 98.776 420.13 98.6302 420.099 98.4844C420.505 98.3646 420.906 98.151 421.313 98.1354C422.724 98.0781 424.156 98.2083 425.552 98.026C426.068 97.9583 426.786 97.3177 426.917 96.8021C427.146 95.8802 426.438 95.4427 425.552 95.4375C423.521 95.4219 421.49 95.4323 419.464 95.4219C418.964 95.4167 418.464 95.3698 417.714 95.3281C418.313 94.4687 418.849 93.8646 419.172 93.1667C419.37 92.7292 419.443 91.8542 419.203 91.6771C418.818 91.3854 417.974 91.2552 417.599 91.4948C416.302 92.3437 415.026 93.2812 413.917 94.3698C412.714 95.5417 411.438 96.0937 409.745 96.0417C406.682 95.9375 403.604 96.1719 400.542 96C394.891 95.6875 390.083 93.5781 386.469 88.9323C382.849 84.2865 381.682 78.9635 382.62 73.3177C383.115 70.349 384.411 67.4844 386.438 65.0156C388.964 61.9271 391.99 59.8542 395.776 58.6719C397.906 58 400 57.8594 402.177 57.8698C408.599 57.901 415.021 57.875 421.438 57.8854C426.198 57.8906 429.255 61.6094 428.401 66.3333C427.911 69.0573 425.432 71.2396 422.38 71.3021C416.859 71.4062 411.339 71.3906 405.813 71.3281C405.151 71.3177 404.422 70.8229 403.839 70.3958C402.396 69.3333 401.068 68.1146 399.599 67.099C399.177 66.8073 398.443 66.9844 397.849 66.9531C397.833 67.5781 397.635 68.2708 397.839 68.8073C398.094 69.4687 398.682 70 399.339 70.8646Z" fill="black"/>
</g>
</g>
<path d="M32.25 36.8795C30.3333 35.8535 28.2917 35.0201 26.125 34.3795C23.9583 33.7441 21.9167 33.4212 20 33.4212C17.0937 33.4212 14.7969 34.0774 13.1042 35.3795C11.4062 36.6712 10.5625 38.4524 10.5625 40.7129C10.5625 42.9212 11.5521 44.7285 13.5417 46.1295C15.5417 47.5358 18.3802 48.9212 22.0625 50.2962C24.8125 51.2858 27.1302 52.3535 29.0208 53.5045C30.9219 54.6608 32.5 56.2545 33.75 58.2962C35 60.3379 35.625 62.9316 35.625 66.067C35.625 68.9316 34.9062 71.5149 33.4792 73.817C32.0625 76.1243 30.0417 77.942 27.4167 79.2754C24.7917 80.5983 21.7083 81.2545 18.1667 81.2545C14.875 81.2545 11.6979 80.7233 8.64582 79.6712C5.60416 78.6191 2.92186 77.2754 0.604156 75.6504L3.79166 69.9837C5.60936 71.3587 7.79686 72.5254 10.3542 73.4837C12.9062 74.442 15.2917 74.9212 17.5 74.9212C20.3437 74.9212 22.8385 74.1868 24.9792 72.7129C27.1146 71.2441 28.1875 69.0566 28.1875 66.1504C28.1875 63.692 27.2917 61.7441 25.5 60.2962C23.7083 58.8379 21.1875 57.4733 17.9375 56.192C14.9375 55.067 12.4427 53.9629 10.4583 52.8795C8.46874 51.7962 6.76041 50.3118 5.33332 48.4212C3.90103 46.5201 3.18749 44.1451 3.18749 41.2962C3.18749 37.1191 4.64582 33.7441 7.56249 31.1712C10.4896 28.5878 14.2969 27.2233 18.9792 27.067C24.7292 27.067 30.0625 28.4941 34.9792 31.3379L32.25 36.8795Z" fill="#FE2635"/>
<path d="M44.2604 54.0462C44.2604 49.1868 45.4896 44.666 47.9479 40.4837C50.4062 36.3066 53.7083 32.9785 57.8646 30.5046C62.0156 28.0202 66.5521 26.7754 71.4687 26.7754C76.3281 26.7754 80.8489 28.0202 85.0312 30.5046C89.2083 32.9785 92.5364 36.3066 95.0104 40.4837C97.4948 44.666 98.7396 49.1868 98.7396 54.0462C98.7396 58.9629 97.5104 63.515 95.0521 67.6921C92.5937 71.8744 89.2604 75.1816 85.0521 77.6087C80.8542 80.041 76.3281 81.2546 71.4687 81.2546C66.5521 81.2546 62 80.0566 57.8229 77.6504C53.6406 75.2337 50.3333 71.9525 47.9062 67.7962C45.4739 63.6452 44.2604 59.0619 44.2604 54.0462ZM51.6354 54.1296C51.6354 57.7702 52.5156 61.14 54.2812 64.2337C56.0573 67.3327 58.4792 69.791 61.5521 71.6087C64.6198 73.4316 67.9739 74.3379 71.6146 74.3379C75.25 74.3379 78.5781 73.4421 81.5937 71.6504C84.6198 69.8483 87 67.39 88.7396 64.2754C90.4896 61.1504 91.3646 57.7441 91.3646 54.0462C91.3646 50.3691 90.4739 46.9577 88.6979 43.8171C86.9323 40.666 84.5312 38.1816 81.4896 36.3587C78.4479 34.541 75.1042 33.6296 71.4687 33.6296C67.8281 33.6296 64.4792 34.5566 61.4271 36.4004C58.3854 38.2493 55.9896 40.7493 54.2396 43.9004C52.5 47.041 51.6354 50.4525 51.6354 54.1296Z" fill="black"/>
<path d="M107.437 54.0462C107.437 49.1868 108.667 44.666 111.125 40.4837C113.583 36.3066 116.885 32.9785 121.042 30.5046C125.193 28.0202 129.729 26.7754 134.646 26.7754C139.505 26.7754 144.026 28.0202 148.208 30.5046C152.385 32.9785 155.713 36.3066 158.187 40.4837C160.672 44.666 161.917 49.1868 161.917 54.0462C161.917 58.9629 160.687 63.515 158.229 67.6921C155.771 71.8744 152.437 75.1816 148.229 77.6087C144.031 80.041 139.505 81.2546 134.646 81.2546C129.729 81.2546 125.177 80.0566 121 77.6504C116.818 75.2337 113.51 71.9525 111.083 67.7962C108.651 63.6452 107.437 59.0619 107.437 54.0462ZM114.812 54.1296C114.812 57.7702 115.693 61.14 117.458 64.2337C119.234 67.3327 121.656 69.791 124.729 71.6087C127.797 73.4316 131.151 74.3379 134.792 74.3379C138.427 74.3379 141.755 73.4421 144.771 71.6504C147.797 69.8483 150.177 67.39 151.917 64.2754C153.667 61.1504 154.542 57.7441 154.542 54.0462C154.542 50.3691 153.651 46.9577 151.875 43.8171C150.109 40.666 147.708 38.1816 144.667 36.3587C141.625 34.541 138.281 33.6296 134.646 33.6296C131.005 33.6296 127.656 34.5566 124.604 36.4004C121.562 38.2493 119.167 40.7493 117.417 43.9004C115.677 47.041 114.812 50.4525 114.812 54.1296Z" fill="black"/>
<path d="M227.391 80.6712H203.432C201.557 81.0566 199.688 81.2546 197.828 81.2546C192.911 81.2546 188.359 80.0566 184.182 77.6504C180 75.2337 176.693 71.9525 174.266 67.7962C171.833 63.6452 170.62 59.0619 170.62 54.0462C170.62 49.1868 171.849 44.666 174.307 40.4837C176.766 36.3066 180.068 32.9785 184.224 30.5046C188.375 28.0202 192.911 26.7754 197.828 26.7754C202.688 26.7754 207.208 28.0202 211.391 30.5046C215.568 32.9785 218.896 36.3066 221.37 40.4837C223.854 44.666 225.099 49.1868 225.099 54.0462C225.099 57.8379 224.359 61.4316 222.891 64.8171C221.417 68.2077 219.354 71.1608 216.703 73.6712H227.391V80.6712ZM177.995 54.1296C177.995 57.7702 178.875 61.14 180.641 64.2337C182.417 67.3327 184.839 69.791 187.911 71.6087C190.979 73.4316 194.333 74.3379 197.974 74.3379C201.609 74.3379 204.938 73.4421 207.953 71.6504C210.979 69.8483 213.359 67.39 215.099 64.2754C216.849 61.1504 217.724 57.7441 217.724 54.0462C217.724 50.4212 216.833 47.0618 215.057 43.9629C213.292 40.8691 210.891 38.4108 207.849 36.5879C204.807 34.7702 201.464 33.8587 197.828 33.8587C194.188 33.8587 190.839 34.7858 187.786 36.6296C184.745 38.4629 182.349 40.9316 180.599 44.0254C178.859 47.1243 177.995 50.4941 177.995 54.1296Z" fill="#FE2635"/>
<path d="M32.25 108.88C30.3333 107.853 28.2917 107.02 26.125 106.38C23.9583 105.744 21.9167 105.421 20 105.421C17.0937 105.421 14.7969 106.077 13.1042 107.38C11.4062 108.671 10.5625 110.452 10.5625 112.713C10.5625 114.921 11.5521 116.728 13.5417 118.13C15.5417 119.536 18.3802 120.921 22.0625 122.296C24.8125 123.286 27.1302 124.353 29.0208 125.505C30.9219 126.661 32.5 128.255 33.75 130.296C35 132.338 35.625 134.932 35.625 138.067C35.625 140.932 34.9062 143.515 33.4792 145.817C32.0625 148.124 30.0417 149.942 27.4167 151.275C24.7917 152.598 21.7083 153.255 18.1667 153.255C14.875 153.255 11.6979 152.723 8.64582 151.671C5.60416 150.619 2.92186 149.275 0.604156 147.65L3.79166 141.984C5.60936 143.359 7.79686 144.525 10.3542 145.484C12.9062 146.442 15.2917 146.921 17.5 146.921C20.3437 146.921 22.8385 146.187 24.9792 144.713C27.1146 143.244 28.1875 141.057 28.1875 138.15C28.1875 135.692 27.2917 133.744 25.5 132.296C23.7083 130.838 21.1875 129.473 17.9375 128.192C14.9375 127.067 12.4427 125.963 10.4583 124.88C8.46874 123.796 6.76041 122.312 5.33332 120.421C3.90103 118.52 3.18749 116.145 3.18749 113.296C3.18749 109.119 4.64582 105.744 7.56249 103.171C10.4896 100.588 14.2969 99.2233 18.9792 99.067C24.7292 99.067 30.0625 100.494 34.9792 103.338L32.25 108.88Z" fill="#FE2635"/>
<path d="M101.029 152.671H77.071C75.196 153.057 73.3262 153.255 71.4668 153.255C66.5502 153.255 61.9981 152.057 57.821 149.65C53.6387 147.234 50.3314 143.952 47.9043 139.796C45.472 135.645 44.2585 131.062 44.2585 126.046C44.2585 121.187 45.4877 116.666 47.946 112.484C50.4043 108.307 53.7064 104.979 57.8627 102.505C62.0137 100.02 66.5502 98.7754 71.4668 98.7754C76.3262 98.7754 80.847 100.02 85.0293 102.505C89.2064 104.979 92.5345 108.307 95.0085 112.484C97.4929 116.666 98.7377 121.187 98.7377 126.046C98.7377 129.838 97.9981 133.432 96.5293 136.817C95.0554 140.208 92.9929 143.161 90.3418 145.671H101.029V152.671ZM51.6335 126.13C51.6335 129.77 52.5137 133.14 54.2793 136.234C56.0554 139.333 58.4772 141.791 61.5502 143.609C64.6179 145.432 67.972 146.338 71.6127 146.338C75.2481 146.338 78.5762 145.442 81.5918 143.65C84.6179 141.848 86.9981 139.39 88.7377 136.275C90.4877 133.15 91.3627 129.744 91.3627 126.046C91.3627 122.421 90.472 119.062 88.696 115.963C86.9304 112.869 84.5293 110.411 81.4877 108.588C78.446 106.77 75.1022 105.859 71.4668 105.859C67.8262 105.859 64.4772 106.786 61.4252 108.63C58.3835 110.463 55.9877 112.932 54.2377 116.025C52.4981 119.124 51.6335 122.494 51.6335 126.13Z" fill="#FE2635"/>
<path d="M119.521 133.796C119.521 136.161 120.083 138.286 121.208 140.171C122.344 142.062 123.885 143.562 125.833 144.671C127.776 145.786 129.927 146.338 132.292 146.338C134.75 146.338 136.969 145.796 138.958 144.713C140.943 143.629 142.5 142.129 143.625 140.213C144.76 138.296 145.333 136.161 145.333 133.796V99.3586H152.333V134.025C152.333 137.807 151.448 141.161 149.688 144.088C147.922 147.004 145.51 149.265 142.458 150.859C139.417 152.458 136.026 153.254 132.292 153.254C128.594 153.254 125.219 152.458 122.167 150.859C119.125 149.265 116.729 147.004 114.979 144.088C113.24 141.161 112.375 137.807 112.375 134.025V99.3586H119.521V133.796Z" fill="black"/>
<path d="M194.948 138.671H174.448L168.781 152.671H161.698L185.01 97.1504H185.448L208.74 152.671H200.49L194.948 138.671ZM192.531 132.463L184.927 113.005L177.031 132.463H192.531Z" fill="#FE2635"/>
<path d="M248.041 152.671L235.5 132.984C235.109 133.041 234.521 133.067 233.729 133.067H225.833V152.671H218.687V99.3586H232.916C236.552 99.3586 239.797 99.9993 242.646 101.275C245.489 102.557 247.729 104.437 249.354 106.921C250.979 109.411 251.791 112.395 251.791 115.879C251.791 119.171 251.062 122.202 249.604 124.963C248.156 127.713 245.937 129.796 242.937 131.213L256.354 152.671H248.041ZM233.583 126.129C237.416 126.129 240.177 125.124 241.875 123.109C243.567 121.098 244.416 118.786 244.416 116.171C244.416 114.603 244.062 113.062 243.354 111.546C242.646 110.02 241.51 108.749 239.958 107.734C238.416 106.723 236.463 106.213 234.104 106.213H225.833V126.129H233.583Z" fill="#FE2635"/>
<path d="M301.988 99.3586V106.213H274.488V122.442H299.05V129.296H274.488V145.734H303.029V152.671H267.342V99.3586H301.988Z" fill="#FE2635"/>
<mask id="mask6_554_1831" style="mask-type:luminance" maskUnits="userSpaceOnUse" x="48" y="33" width="46" height="46">
<path d="M48.6875 33.4271H93.6875V78.4271H48.6875V33.4271Z" fill="white"/>
</mask>
<g mask="url(#mask6_554_1831)">
<path d="M93.5625 55.8646C76.7344 58.9636 74.224 61.474 71.125 78.3021C68.026 61.474 65.5156 58.9636 48.6875 55.8646C65.5156 52.7657 68.026 50.2552 71.125 33.4271C74.224 50.2552 76.7344 52.7657 93.5625 55.8646Z" fill="#3A3A3B"/>
</g>
<mask id="mask7_554_1831" style="mask-type:luminance" maskUnits="userSpaceOnUse" x="112" y="33" width="46" height="46">
<path d="M112.49 33.4271H157.49V78.4271H112.49V33.4271Z" fill="white"/>
</mask>
<g mask="url(#mask7_554_1831)">
<path d="M157.365 55.8646C140.536 58.9636 138.026 61.474 134.927 78.3021C131.828 61.474 129.318 58.9636 112.49 55.8646C129.318 52.7657 131.828 50.2552 134.927 33.4271C138.026 50.2552 140.536 52.7657 157.365 55.8646Z" fill="#3A3A3B"/>
</g>
</svg>
