<svg xmlns="http://www.w3.org/2000/svg" xmlns:xlink="http://www.w3.org/1999/xlink" width="500" zoomAndPan="magnify" viewBox="0 0 375 374.999991" height="500" preserveAspectRatio="xMidYMid meet" version="1.0"><defs><g/><clipPath id="24f1415b4b"><path d="M 345 345 L 351.285156 345 L 351.285156 351.941406 L 345 351.941406 Z M 345 345 " clip-rule="nonzero"/></clipPath><clipPath id="acf9d71d64"><path d="M 23.535156 28 L 29 28 L 29 346 L 23.535156 346 Z M 23.535156 28 " clip-rule="nonzero"/></clipPath><clipPath id="1b9dc9b6d6"><path d="M 23.535156 345 L 29 345 L 29 351.941406 L 23.535156 351.941406 Z M 23.535156 345 " clip-rule="nonzero"/></clipPath><clipPath id="1d8447692e"><path d="M 345 28 L 351.285156 28 L 351.285156 346 L 345 346 Z M 345 28 " clip-rule="nonzero"/></clipPath><clipPath id="fefd5e6fb1"><path d="M 28 345 L 346 345 L 346 351.941406 L 28 351.941406 Z M 28 345 " clip-rule="nonzero"/></clipPath><clipPath id="8e6b268406"><path d="M 345 22.691406 L 351.285156 22.691406 L 351.285156 29 L 345 29 Z M 345 22.691406 " clip-rule="nonzero"/></clipPath><clipPath id="43a3c579c2"><path d="M 23.535156 22.691406 L 29 22.691406 L 29 29 L 23.535156 29 Z M 23.535156 22.691406 " clip-rule="nonzero"/></clipPath><clipPath id="6e9d493820"><path d="M 28 22.691406 L 346 22.691406 L 346 29 L 28 29 Z M 28 22.691406 " clip-rule="nonzero"/></clipPath><clipPath id="27b50bb7d8"><path d="M 37.5 53.945312 L 146 53.945312 L 146 163 L 37.5 163 Z M 37.5 53.945312 " clip-rule="nonzero"/></clipPath><clipPath id="ac715fcf27"><path d="M 79 95 L 187.5 95 L 187.5 203.945312 L 79 203.945312 Z M 79 95 " clip-rule="nonzero"/></clipPath><clipPath id="0437e8d631"><path d="M 95.121094 106.609375 L 110 106.609375 L 110 134 L 95.121094 134 Z M 95.121094 106.609375 " clip-rule="nonzero"/></clipPath><clipPath id="8e363a9c55"><path d="M 95.121094 141 L 110 141 L 110 151.609375 L 95.121094 151.609375 Z M 95.121094 141 " clip-rule="nonzero"/></clipPath><clipPath id="ce9e97497f"><path d="M 115 123 L 129.621094 123 L 129.621094 151.609375 L 115 151.609375 Z M 115 123 " clip-rule="nonzero"/></clipPath><clipPath id="de9d7737a0"><path d="M 115 106.609375 L 129.621094 106.609375 L 129.621094 117 L 115 117 Z M 115 106.609375 " clip-rule="nonzero"/></clipPath></defs><rect x="-37.5" width="450" fill="#ffffff" y="-37.499999" height="449.999989" fill-opacity="1"/><g clip-path="url(#24f1415b4b)"><path fill="#e80000" d="M 345.667969 345.667969 L 355.671875 345.667969 L 355.671875 355.671875 L 345.667969 355.671875 Z M 345.667969 345.667969 " fill-opacity="1" fill-rule="nonzero"/></g><g clip-path="url(#acf9d71d64)"><path fill="#e80000" d="M 18.476562 28.59375 L 28.59375 28.59375 L 28.59375 345.667969 L 18.476562 345.667969 Z M 18.476562 28.59375 " fill-opacity="1" fill-rule="nonzero"/></g><g clip-path="url(#1b9dc9b6d6)"><path fill="#e80000" d="M 18.476562 345.667969 L 28.59375 345.667969 L 28.59375 355.671875 L 18.476562 355.671875 Z M 18.476562 345.667969 " fill-opacity="1" fill-rule="nonzero"/></g><g clip-path="url(#1d8447692e)"><path fill="#e80000" d="M 345.667969 28.59375 L 355.671875 28.59375 L 355.671875 345.667969 L 345.667969 345.667969 Z M 345.667969 28.59375 " fill-opacity="1" fill-rule="nonzero"/></g><g clip-path="url(#fefd5e6fb1)"><path fill="#e80000" d="M 28.59375 345.667969 L 345.667969 345.667969 L 345.667969 355.671875 L 28.59375 355.671875 Z M 28.59375 345.667969 " fill-opacity="1" fill-rule="nonzero"/></g><g clip-path="url(#8e6b268406)"><path fill="#e80000" d="M 345.667969 18.476562 L 355.671875 18.476562 L 355.671875 28.59375 L 345.667969 28.59375 Z M 345.667969 18.476562 " fill-opacity="1" fill-rule="nonzero"/></g><g clip-path="url(#43a3c579c2)"><path fill="#e80000" d="M 18.476562 18.476562 L 28.59375 18.476562 L 28.59375 28.59375 L 18.476562 28.59375 Z M 18.476562 18.476562 " fill-opacity="1" fill-rule="nonzero"/></g><g clip-path="url(#6e9d493820)"><path fill="#e80000" d="M 28.59375 18.476562 L 345.667969 18.476562 L 345.667969 28.59375 L 28.59375 28.59375 Z M 28.59375 18.476562 " fill-opacity="1" fill-rule="nonzero"/></g><g clip-path="url(#27b50bb7d8)"><path fill="#000000" d="M 145.832031 53.945312 L 145.832031 87.277344 L 137.5 87.277344 L 137.5 62.277344 L 45.832031 62.277344 L 45.832031 153.945312 L 70.832031 153.945312 L 70.832031 162.277344 L 37.5 162.277344 L 37.5 53.945312 Z M 145.832031 53.945312 " fill-opacity="1" fill-rule="nonzero"/></g><g clip-path="url(#ac715fcf27)"><path fill="#000000" d="M 79.167969 95.613281 L 187.5 95.613281 L 187.5 203.945312 L 79.167969 203.945312 Z M 87.5 195.609375 L 179.167969 195.609375 L 179.167969 103.945312 L 87.5 103.945312 Z M 87.5 195.609375 " fill-opacity="1" fill-rule="nonzero"/></g><path fill="#000000" d="M 137.5 153.945312 L 137.5 112.277344 L 145.832031 112.277344 L 145.832031 162.277344 L 95.832031 162.277344 L 95.832031 153.945312 Z M 137.5 153.945312 " fill-opacity="1" fill-rule="nonzero"/><g clip-path="url(#0437e8d631)"><path fill="#f80000" d="M 108.773438 106.609375 L 109.390625 106.609375 L 109.390625 116.535156 L 108.773438 116.535156 C 106.710938 116.535156 105.050781 118.199219 105.050781 120.257812 C 105.050781 121.289062 105.472656 122.21875 106.140625 122.886719 C 106.8125 123.558594 107.742188 123.980469 108.773438 123.980469 L 109.390625 123.980469 L 109.390625 133.90625 L 108.773438 133.90625 C 101.226562 133.90625 95.121094 127.800781 95.121094 120.257812 C 95.121094 116.484375 96.648438 113.074219 99.117188 110.601562 C 101.585938 108.132812 105 106.609375 108.773438 106.609375 " fill-opacity="1" fill-rule="evenodd"/></g><g clip-path="url(#8e363a9c55)"><path fill="#000000" d="M 105.050781 141.351562 L 109.390625 141.351562 L 109.390625 151.28125 L 95.121094 151.28125 C 95.121094 145.792969 99.5625 141.351562 105.050781 141.351562 " fill-opacity="1" fill-rule="evenodd"/><path fill="#545454" d="M 109.390625 141.351562 L 109.390625 146.316406 L 105.050781 146.316406 C 99.738281 146.316406 95.394531 148.402344 95.132812 151.019531 C 95.257812 145.65625 99.652344 141.351562 105.050781 141.351562 Z M 109.390625 141.351562 " fill-opacity="1" fill-rule="evenodd"/></g><g clip-path="url(#ce9e97497f)"><path fill="#f80000" d="M 129.867188 137.628906 C 129.867188 141.402344 128.339844 144.8125 125.871094 147.285156 C 123.390625 149.753906 119.988281 151.28125 116.21875 151.28125 L 115.597656 151.28125 L 115.597656 141.351562 L 116.21875 141.351562 C 118.277344 141.351562 119.9375 139.6875 119.9375 137.628906 C 119.941406 136.597656 119.519531 135.667969 118.847656 135 C 118.175781 134.328125 117.246094 133.90625 116.21875 133.90625 L 115.597656 133.90625 L 115.597656 123.980469 L 116.21875 123.980469 C 123.75 123.980469 129.867188 130.085938 129.867188 137.628906 " fill-opacity="1" fill-rule="evenodd"/></g><g clip-path="url(#de9d7737a0)"><path fill="#000000" d="M 119.941406 116.535156 L 115.597656 116.535156 L 115.597656 106.609375 L 129.867188 106.609375 C 129.867188 112.09375 125.425781 116.535156 119.941406 116.535156 " fill-opacity="1" fill-rule="evenodd"/><path fill="#545454" d="M 129.855469 106.867188 C 129.730469 112.230469 125.335938 116.535156 119.9375 116.535156 L 115.597656 116.535156 L 115.597656 111.570312 L 119.941406 111.570312 C 125.25 111.570312 129.59375 109.488281 129.855469 106.867188 " fill-opacity="1" fill-rule="evenodd"/></g><path fill="#cd0000" d="M 124.902344 137.628906 C 124.902344 142.429688 121.019531 146.316406 116.21875 146.316406 C 116.007812 146.316406 115.796875 146.304688 115.597656 146.277344 L 115.597656 141.351562 L 116.21875 141.351562 C 118.277344 141.351562 119.9375 139.6875 119.9375 137.628906 C 119.941406 136.597656 119.519531 135.667969 118.847656 135 C 118.175781 134.328125 117.246094 133.90625 116.21875 133.90625 L 115.597656 133.90625 L 115.597656 128.980469 C 115.796875 128.957031 116.003906 128.945312 116.21875 128.945312 C 121.019531 128.941406 124.902344 132.828125 124.902344 137.628906 " fill-opacity="1" fill-rule="evenodd"/><path fill="#cd0000" d="M 100.085938 120.257812 C 100.085938 115.453125 103.96875 111.570312 108.773438 111.570312 C 108.984375 111.570312 109.195312 111.582031 109.390625 111.609375 L 109.390625 116.535156 L 108.773438 116.535156 C 106.710938 116.535156 105.050781 118.199219 105.050781 120.257812 C 105.050781 121.289062 105.472656 122.21875 106.140625 122.886719 C 106.8125 123.558594 107.742188 123.980469 108.773438 123.980469 L 109.390625 123.980469 L 109.390625 128.90625 C 109.195312 128.929688 108.984375 128.945312 108.773438 128.945312 C 103.96875 128.941406 100.085938 125.058594 100.085938 120.257812 " fill-opacity="1" fill-rule="evenodd"/><g fill="#000000" fill-opacity="1"><g transform="translate(241.861101, 273.19838)"><g><path d="M 23.53125 -30.242188 L 17.925781 -35.847656 L 12.316406 -30.242188 L 17.925781 -24.675781 Z M 34.703125 -30.242188 L 29.136719 -35.847656 L 23.53125 -30.242188 L 29.136719 -24.675781 Z M 23.53125 -22.386719 C 17.332031 -22.386719 12.316406 -17.332031 12.316406 -11.171875 C 12.316406 -4.972656 17.332031 0 23.53125 0 L 12.316406 0 L 1.144531 -11.210938 L 1.144531 0 C 1.144531 6.160156 6.160156 11.171875 12.316406 11.171875 L 23.53125 11.171875 C 29.6875 11.171875 34.703125 6.160156 34.703125 0 L 34.703125 -11.171875 C 34.703125 -17.332031 29.6875 -22.386719 23.53125 -22.386719 Z M 23.53125 -22.386719 "/></g></g></g><g fill="#000000" fill-opacity="1"><g transform="translate(277.698684, 273.19838)"><g><path d="M 12.316406 -22.386719 C 6.160156 -22.386719 1.144531 -17.332031 1.144531 -11.171875 L 1.144531 0 L 12.316406 0 L 12.316406 11.171875 L 23.53125 0 L 23.53125 -11.171875 C 23.53125 -17.332031 18.515625 -22.386719 12.316406 -22.386719 Z M 12.316406 -22.386719 "/></g></g></g><g fill="#000000" fill-opacity="1"><g transform="translate(301.222036, 273.19838)"><g><path d="M 24.675781 -11.171875 L 24.675781 -22.386719 L 13.503906 -11.171875 L 13.503906 -22.386719 L 2.289062 -11.171875 L -0.355469 -11.171875 C -1.738281 -11.171875 -2.761719 -10.144531 -2.761719 -8.765625 L -2.761719 -2.410156 C -2.761719 -1.027344 -1.738281 0 -0.355469 0 L 24.675781 0 C 30.875 0 35.886719 -4.972656 35.886719 -11.171875 L 35.886719 -22.386719 Z M 24.675781 -11.171875 "/></g></g></g><g fill="#000000" fill-opacity="1"><g transform="translate(194.892355, 327.948377)"><g><path d="M 1.144531 -11.171875 L 1.144531 11.171875 L 12.316406 0 L 12.316406 -22.386719 Z M 1.144531 -11.171875 "/></g></g></g><g fill="#000000" fill-opacity="1"><g transform="translate(207.206586, 327.948377)"><g><path d="M 22.386719 -11.171875 L -0.355469 -11.171875 C -1.738281 -11.171875 -2.761719 -10.144531 -2.761719 -8.765625 L -2.761719 -2.410156 C -2.761719 -1.027344 -1.738281 0 -0.355469 0 L 22.386719 0 C 28.542969 0 33.558594 -5.015625 33.558594 -11.171875 L 33.558594 -22.386719 Z M 4.222656 6.710938 L 9.832031 12.316406 L 15.4375 6.710938 L 9.832031 1.144531 Z M 15.4375 6.710938 L 21.042969 12.316406 L 26.609375 6.710938 L 21.042969 1.144531 Z M 15.4375 6.710938 "/></g></g></g><g fill="#000000" fill-opacity="1"><g transform="translate(241.899576, 327.948377)"><g><path d="M 12.316406 -22.386719 C 6.160156 -22.386719 1.144531 -17.332031 1.144531 -11.171875 L 1.144531 0 L 12.316406 0 L 12.316406 11.171875 L 23.53125 0 L 23.53125 -11.171875 C 23.53125 -17.332031 18.515625 -22.386719 12.316406 -22.386719 Z M 12.316406 -22.386719 "/></g></g></g><g fill="#000000" fill-opacity="1"><g transform="translate(265.422928, 327.948377)"><g><path d="M 24.636719 -22.386719 L 13.421875 -22.386719 L 24.636719 -33.597656 L 13.421875 -33.597656 C 7.265625 -33.597656 2.25 -28.542969 2.25 -22.386719 C 2.25 -16.1875 7.265625 -11.171875 13.421875 -11.171875 L -0.355469 -11.171875 C -1.738281 -11.171875 -2.761719 -10.144531 -2.761719 -8.765625 L -2.761719 -2.410156 C -2.761719 -1.027344 -1.738281 0 -0.355469 0 L 35.808594 0 L 35.808594 -11.171875 C 35.808594 -17.371094 30.792969 -22.386719 24.636719 -22.386719 Z M 24.636719 -22.386719 "/></g></g></g><g fill="#000000" fill-opacity="1"><g transform="translate(301.221041, 327.948377)"><g><path d="M 24.675781 -11.171875 L 24.675781 -22.386719 L 13.503906 -11.171875 L 13.503906 -22.386719 L 2.289062 -11.171875 L -0.355469 -11.171875 C -1.738281 -11.171875 -2.761719 -10.144531 -2.761719 -8.765625 L -2.761719 -2.410156 C -2.761719 -1.027344 -1.738281 0 -0.355469 0 L 24.675781 0 C 30.875 0 35.886719 -4.972656 35.886719 -11.171875 L 35.886719 -22.386719 Z M 24.675781 -11.171875 "/></g></g></g></svg>