<svg xmlns="http://www.w3.org/2000/svg" xmlns:xlink="http://www.w3.org/1999/xlink" width="500" zoomAndPan="magnify" viewBox="0 0 375 374.999991" height="500" preserveAspectRatio="xMidYMid meet" version="1.0"><defs><g/><clipPath id="b3540fbebb"><path d="M 345 345 L 351.285156 345 L 351.285156 351.941406 L 345 351.941406 Z M 345 345 " clip-rule="nonzero"/></clipPath><clipPath id="2cbc70105b"><path d="M 23.535156 28 L 29 28 L 29 346 L 23.535156 346 Z M 23.535156 28 " clip-rule="nonzero"/></clipPath><clipPath id="496d38700e"><path d="M 23.535156 345 L 29 345 L 29 351.941406 L 23.535156 351.941406 Z M 23.535156 345 " clip-rule="nonzero"/></clipPath><clipPath id="e963ec14bf"><path d="M 345 28 L 351.285156 28 L 351.285156 346 L 345 346 Z M 345 28 " clip-rule="nonzero"/></clipPath><clipPath id="6ca1e1873b"><path d="M 28 345 L 346 345 L 346 351.941406 L 28 351.941406 Z M 28 345 " clip-rule="nonzero"/></clipPath><clipPath id="0f3139d177"><path d="M 345 22.691406 L 351.285156 22.691406 L 351.285156 29 L 345 29 Z M 345 22.691406 " clip-rule="nonzero"/></clipPath><clipPath id="593d3ac020"><path d="M 23.535156 22.691406 L 29 22.691406 L 29 29 L 23.535156 29 Z M 23.535156 22.691406 " clip-rule="nonzero"/></clipPath><clipPath id="6fd01d4ea0"><path d="M 28 22.691406 L 346 22.691406 L 346 29 L 28 29 Z M 28 22.691406 " clip-rule="nonzero"/></clipPath><clipPath id="36be7251b2"><path d="M 37.5 37.5 L 255 37.5 L 255 255 L 37.5 255 Z M 37.5 37.5 " clip-rule="nonzero"/></clipPath><clipPath id="ae8a923ebe"><path d="M 120 120 L 337.5 120 L 337.5 337.5 L 120 337.5 Z M 120 120 " clip-rule="nonzero"/></clipPath><clipPath id="87211677c6"><path d="M 152.742188 142.824219 L 182 142.824219 L 182 198 L 152.742188 198 Z M 152.742188 142.824219 " clip-rule="nonzero"/></clipPath><clipPath id="125909c8c3"><path d="M 152.742188 212 L 182 212 L 182 232.074219 L 152.742188 232.074219 Z M 152.742188 212 " clip-rule="nonzero"/></clipPath><clipPath id="f5c0a894d3"><path d="M 152.742188 212 L 182 212 L 182 232 L 152.742188 232 Z M 152.742188 212 " clip-rule="nonzero"/></clipPath><clipPath id="f6ba323b15"><path d="M 193 177 L 222.492188 177 L 222.492188 232.074219 L 193 232.074219 Z M 193 177 " clip-rule="nonzero"/></clipPath><clipPath id="d1e6db89e2"><path d="M 193 142.824219 L 222.492188 142.824219 L 222.492188 163 L 193 163 Z M 193 142.824219 " clip-rule="nonzero"/></clipPath><clipPath id="fc46f8a7e0"><path d="M 193 143 L 222.492188 143 L 222.492188 163 L 193 163 Z M 193 143 " clip-rule="nonzero"/></clipPath><clipPath id="06ce9f157a"><path d="M 248.644531 297.34375 L 268.894531 297.34375 L 268.894531 317.59375 L 248.644531 317.59375 Z M 248.644531 297.34375 " clip-rule="nonzero"/></clipPath><clipPath id="95a1ebf320"><path d="M 73.148438 68 L 94 68 L 94 78.527344 L 73.148438 78.527344 Z M 73.148438 68 " clip-rule="nonzero"/></clipPath><clipPath id="bb4450444d"><path d="M 73.148438 57.527344 L 94 57.527344 L 94 68 L 73.148438 68 Z M 73.148438 57.527344 " clip-rule="nonzero"/></clipPath><clipPath id="92044a74ff"><path d="M 97.402344 68 L 118.402344 68 L 118.402344 78.527344 L 97.402344 78.527344 Z M 97.402344 68 " clip-rule="nonzero"/></clipPath><clipPath id="42c7fe1935"><path d="M 97.402344 57.527344 L 118.402344 57.527344 L 118.402344 68 L 97.402344 68 Z M 97.402344 57.527344 " clip-rule="nonzero"/></clipPath></defs><rect x="-37.5" width="450" fill="#ffffff" y="-37.499999" height="449.999989" fill-opacity="1"/><rect x="-37.5" width="450" fill="#000000" y="-37.499999" height="449.999989" fill-opacity="1"/><g clip-path="url(#b3540fbebb)"><path fill="#e80000" d="M 345.667969 345.667969 L 355.671875 345.667969 L 355.671875 355.671875 L 345.667969 355.671875 Z M 345.667969 345.667969 " fill-opacity="1" fill-rule="nonzero"/></g><g clip-path="url(#2cbc70105b)"><path fill="#e80000" d="M 18.476562 28.59375 L 28.59375 28.59375 L 28.59375 345.667969 L 18.476562 345.667969 Z M 18.476562 28.59375 " fill-opacity="1" fill-rule="nonzero"/></g><g clip-path="url(#496d38700e)"><path fill="#e80000" d="M 18.476562 345.667969 L 28.59375 345.667969 L 28.59375 355.671875 L 18.476562 355.671875 Z M 18.476562 345.667969 " fill-opacity="1" fill-rule="nonzero"/></g><g clip-path="url(#e963ec14bf)"><path fill="#e80000" d="M 345.667969 28.59375 L 355.671875 28.59375 L 355.671875 345.667969 L 345.667969 345.667969 Z M 345.667969 28.59375 " fill-opacity="1" fill-rule="nonzero"/></g><g clip-path="url(#6ca1e1873b)"><path fill="#e80000" d="M 28.59375 345.667969 L 345.667969 345.667969 L 345.667969 355.671875 L 28.59375 355.671875 Z M 28.59375 345.667969 " fill-opacity="1" fill-rule="nonzero"/></g><g clip-path="url(#0f3139d177)"><path fill="#e80000" d="M 345.667969 18.476562 L 355.671875 18.476562 L 355.671875 28.59375 L 345.667969 28.59375 Z M 345.667969 18.476562 " fill-opacity="1" fill-rule="nonzero"/></g><g clip-path="url(#593d3ac020)"><path fill="#e80000" d="M 18.476562 18.476562 L 28.59375 18.476562 L 28.59375 28.59375 L 18.476562 28.59375 Z M 18.476562 18.476562 " fill-opacity="1" fill-rule="nonzero"/></g><g clip-path="url(#6fd01d4ea0)"><path fill="#e80000" d="M 28.59375 18.476562 L 345.667969 18.476562 L 345.667969 28.59375 L 28.59375 28.59375 Z M 28.59375 18.476562 " fill-opacity="1" fill-rule="nonzero"/></g><g clip-path="url(#36be7251b2)"><path fill="#ffffff" d="M 254.167969 37.5 L 254.167969 104.167969 L 237.5 104.167969 L 237.5 54.167969 L 54.167969 54.167969 L 54.167969 237.5 L 104.167969 237.5 L 104.167969 254.167969 L 37.5 254.167969 L 37.5 37.5 Z M 254.167969 37.5 " fill-opacity="1" fill-rule="nonzero"/></g><g clip-path="url(#ae8a923ebe)"><path fill="#ffffff" d="M 120.832031 120.832031 L 337.5 120.832031 L 337.5 337.5 L 120.832031 337.5 Z M 137.5 320.832031 L 320.832031 320.832031 L 320.832031 137.5 L 137.5 137.5 Z M 137.5 320.832031 " fill-opacity="1" fill-rule="nonzero"/></g><path fill="#ffffff" d="M 237.5 237.5 L 237.5 154.167969 L 254.167969 154.167969 L 254.167969 254.167969 L 154.167969 254.167969 L 154.167969 237.5 Z M 237.5 237.5 " fill-opacity="1" fill-rule="nonzero"/><g clip-path="url(#87211677c6)"><path fill="#f80000" d="M 180.050781 142.824219 L 181.289062 142.824219 L 181.289062 162.679688 L 180.050781 162.679688 C 175.929688 162.679688 172.605469 166.003906 172.605469 170.125 C 172.605469 172.183594 173.449219 174.046875 174.789062 175.386719 C 176.128906 176.726562 177.988281 177.570312 180.050781 177.570312 L 181.289062 177.570312 L 181.289062 197.425781 L 180.050781 197.425781 C 164.960938 197.425781 152.75 185.214844 152.75 170.125 C 152.75 162.582031 155.800781 155.753906 160.742188 150.816406 C 165.679688 145.878906 172.503906 142.824219 180.050781 142.824219 " fill-opacity="1" fill-rule="evenodd"/></g><g clip-path="url(#125909c8c3)"><path fill="#ffffff" d="M 172.605469 212.316406 L 181.289062 212.316406 L 181.289062 232.167969 L 152.75 232.167969 C 152.75 221.199219 161.632812 212.316406 172.605469 212.316406 " fill-opacity="1" fill-rule="evenodd"/></g><g clip-path="url(#f5c0a894d3)"><path fill="#ffffff" d="M 181.289062 212.316406 L 181.289062 222.242188 L 172.605469 222.242188 C 161.980469 222.242188 153.296875 226.410156 152.773438 231.648438 C 153.023438 220.925781 161.808594 212.316406 172.605469 212.316406 Z M 181.289062 212.316406 " fill-opacity="1" fill-rule="evenodd"/></g><g clip-path="url(#f6ba323b15)"><path fill="#f80000" d="M 222.238281 204.871094 C 222.238281 212.414062 219.1875 219.238281 214.25 224.179688 C 209.285156 229.117188 202.484375 232.167969 194.941406 232.167969 L 193.699219 232.167969 L 193.699219 212.316406 L 194.941406 212.316406 C 199.058594 212.316406 202.382812 208.988281 202.382812 204.871094 C 202.386719 202.808594 201.542969 200.949219 200.199219 199.609375 C 198.859375 198.269531 197 197.425781 194.941406 197.425781 L 193.699219 197.425781 L 193.699219 177.570312 L 194.941406 177.570312 C 210.003906 177.570312 222.238281 189.78125 222.238281 204.871094 " fill-opacity="1" fill-rule="evenodd"/></g><g clip-path="url(#d1e6db89e2)"><path fill="#ffffff" d="M 202.386719 162.679688 L 193.699219 162.679688 L 193.699219 142.824219 L 222.238281 142.824219 C 222.238281 153.796875 213.355469 162.679688 202.386719 162.679688 " fill-opacity="1" fill-rule="evenodd"/></g><g clip-path="url(#fc46f8a7e0)"><path fill="#ffffff" d="M 222.214844 143.347656 C 221.964844 154.070312 213.179688 162.679688 202.382812 162.679688 L 193.699219 162.679688 L 193.699219 152.753906 L 202.386719 152.753906 C 213.007812 152.753906 221.695312 148.582031 222.214844 143.347656 " fill-opacity="1" fill-rule="evenodd"/></g><path fill="#cd0000" d="M 212.3125 204.871094 C 212.3125 214.472656 204.542969 222.242188 194.941406 222.242188 C 194.519531 222.242188 194.097656 222.21875 193.699219 222.167969 L 193.699219 212.316406 L 194.941406 212.316406 C 199.058594 212.316406 202.382812 208.988281 202.382812 204.871094 C 202.386719 202.808594 201.542969 200.949219 200.199219 199.609375 C 198.859375 198.269531 197 197.425781 194.941406 197.425781 L 193.699219 197.425781 L 193.699219 187.574219 C 194.097656 187.523438 194.515625 187.496094 194.941406 187.496094 C 204.542969 187.496094 212.3125 195.265625 212.3125 204.871094 " fill-opacity="1" fill-rule="evenodd"/><path fill="#cd0000" d="M 162.675781 170.125 C 162.675781 160.519531 170.445312 152.753906 180.050781 152.753906 C 180.472656 152.753906 180.894531 152.777344 181.289062 152.828125 L 181.289062 162.679688 L 180.050781 162.679688 C 175.929688 162.679688 172.605469 166.003906 172.605469 170.125 C 172.605469 172.183594 173.449219 174.046875 174.789062 175.386719 C 176.128906 176.726562 177.988281 177.570312 180.050781 177.570312 L 181.289062 177.570312 L 181.289062 187.421875 C 180.894531 187.472656 180.472656 187.496094 180.050781 187.496094 C 170.445312 187.496094 162.675781 179.730469 162.675781 170.125 " fill-opacity="1" fill-rule="evenodd"/><g fill="#ffffff" fill-opacity="1"><g transform="translate(205.531486, 315.844902)"><g/></g></g><g fill="#ffffff" fill-opacity="1"><g transform="translate(210.93383, 315.844902)"><g><path d="M 8.3125 0.1875 C 6.96875 0.1875 5.757812 -0.03125 4.6875 -0.46875 C 3.613281 -0.90625 2.753906 -1.554688 2.109375 -2.421875 C 1.472656 -3.285156 1.140625 -4.320312 1.109375 -5.53125 L 5.890625 -5.53125 C 5.960938 -4.84375 6.203125 -4.316406 6.609375 -3.953125 C 7.015625 -3.597656 7.539062 -3.421875 8.1875 -3.421875 C 8.851562 -3.421875 9.378906 -3.570312 9.765625 -3.875 C 10.148438 -4.1875 10.34375 -4.613281 10.34375 -5.15625 C 10.34375 -5.613281 10.1875 -5.988281 9.875 -6.28125 C 9.570312 -6.582031 9.195312 -6.828125 8.75 -7.015625 C 8.300781 -7.210938 7.664062 -7.4375 6.84375 -7.6875 C 5.65625 -8.050781 4.679688 -8.414062 3.921875 -8.78125 C 3.171875 -9.15625 2.519531 -9.703125 1.96875 -10.421875 C 1.425781 -11.140625 1.15625 -12.082031 1.15625 -13.25 C 1.15625 -14.96875 1.773438 -16.3125 3.015625 -17.28125 C 4.265625 -18.257812 5.890625 -18.75 7.890625 -18.75 C 9.929688 -18.75 11.570312 -18.257812 12.8125 -17.28125 C 14.0625 -16.3125 14.734375 -14.957031 14.828125 -13.21875 L 9.953125 -13.21875 C 9.921875 -13.8125 9.703125 -14.28125 9.296875 -14.625 C 8.890625 -14.96875 8.367188 -15.140625 7.734375 -15.140625 C 7.191406 -15.140625 6.753906 -14.992188 6.421875 -14.703125 C 6.085938 -14.410156 5.921875 -13.992188 5.921875 -13.453125 C 5.921875 -12.859375 6.203125 -12.394531 6.765625 -12.0625 C 7.328125 -11.726562 8.207031 -11.367188 9.40625 -10.984375 C 10.59375 -10.578125 11.554688 -10.1875 12.296875 -9.8125 C 13.046875 -9.445312 13.691406 -8.910156 14.234375 -8.203125 C 14.785156 -7.503906 15.0625 -6.601562 15.0625 -5.5 C 15.0625 -4.445312 14.789062 -3.488281 14.25 -2.625 C 13.71875 -1.769531 12.941406 -1.085938 11.921875 -0.578125 C 10.910156 -0.0664062 9.707031 0.1875 8.3125 0.1875 Z M 8.3125 0.1875 "/></g></g></g><g fill="#ffffff" fill-opacity="1"><g transform="translate(226.943611, 315.844902)"><g><path d="M 14.796875 3.15625 L 12.421875 -0.03125 C 11.722656 0.113281 11.039062 0.1875 10.375 0.1875 C 8.632812 0.1875 7.039062 -0.210938 5.59375 -1.015625 C 4.144531 -1.828125 2.992188 -2.957031 2.140625 -4.40625 C 1.296875 -5.851562 0.875 -7.484375 0.875 -9.296875 C 0.875 -11.097656 1.296875 -12.71875 2.140625 -14.15625 C 2.992188 -15.601562 4.144531 -16.726562 5.59375 -17.53125 C 7.039062 -18.34375 8.632812 -18.75 10.375 -18.75 C 12.113281 -18.75 13.707031 -18.34375 15.15625 -17.53125 C 16.601562 -16.726562 17.742188 -15.601562 18.578125 -14.15625 C 19.410156 -12.71875 19.828125 -11.097656 19.828125 -9.296875 C 19.828125 -7.710938 19.503906 -6.265625 18.859375 -4.953125 C 18.222656 -3.648438 17.332031 -2.570312 16.1875 -1.71875 L 20.25 3.15625 Z M 5.46875 -9.296875 C 5.46875 -7.660156 5.910156 -6.351562 6.796875 -5.375 C 7.691406 -4.40625 8.882812 -3.921875 10.375 -3.921875 C 11.84375 -3.921875 13.019531 -4.410156 13.90625 -5.390625 C 14.800781 -6.378906 15.25 -7.679688 15.25 -9.296875 C 15.25 -10.929688 14.800781 -12.234375 13.90625 -13.203125 C 13.019531 -14.179688 11.84375 -14.671875 10.375 -14.671875 C 8.882812 -14.671875 7.691406 -14.1875 6.796875 -13.21875 C 5.910156 -12.25 5.46875 -10.941406 5.46875 -9.296875 Z M 5.46875 -9.296875 "/></g></g></g><g fill="#ffffff" fill-opacity="1"><g transform="translate(247.519765, 315.844902)"><g/></g></g><g fill="#ffffff" fill-opacity="1"><g transform="translate(252.917761, 315.844902)"><g/></g></g><g fill="#ffffff" fill-opacity="1"><g transform="translate(258.315758, 315.844902)"><g/></g></g><g fill="#ffffff" fill-opacity="1"><g transform="translate(263.713754, 315.844902)"><g/></g></g><g fill="#ffffff" fill-opacity="1"><g transform="translate(269.11742, 315.844902)"><g><path d="M 13.140625 -3.265625 L 6.234375 -3.265625 L 5.140625 0 L 0.421875 0 L 7.109375 -18.484375 L 12.328125 -18.484375 L 19.015625 0 L 14.25 0 Z M 11.984375 -6.734375 L 9.6875 -13.5 L 7.421875 -6.734375 Z M 11.984375 -6.734375 "/></g></g></g><g fill="#ffffff" fill-opacity="1"><g transform="translate(288.339695, 315.844902)"><g><path d="M 11.0625 0 L 7.21875 -6.984375 L 6.140625 -6.984375 L 6.140625 0 L 1.625 0 L 1.625 -18.484375 L 9.1875 -18.484375 C 10.644531 -18.484375 11.882812 -18.226562 12.90625 -17.71875 C 13.9375 -17.207031 14.707031 -16.507812 15.21875 -15.625 C 15.726562 -14.738281 15.984375 -13.75 15.984375 -12.65625 C 15.984375 -11.4375 15.632812 -10.34375 14.9375 -9.375 C 14.25 -8.40625 13.226562 -7.71875 11.875 -7.3125 L 16.140625 0 Z M 6.140625 -10.15625 L 8.921875 -10.15625 C 9.742188 -10.15625 10.363281 -10.359375 10.78125 -10.765625 C 11.195312 -11.171875 11.40625 -11.742188 11.40625 -12.484375 C 11.40625 -13.179688 11.195312 -13.734375 10.78125 -14.140625 C 10.363281 -14.546875 9.742188 -14.75 8.921875 -14.75 L 6.140625 -14.75 Z M 6.140625 -10.15625 "/></g></g></g><g fill="#ffffff" fill-opacity="1"><g transform="translate(305.323757, 315.844902)"><g><path d="M 6.140625 -14.875 L 6.140625 -11.140625 L 12.15625 -11.140625 L 12.15625 -7.65625 L 6.140625 -7.65625 L 6.140625 -3.609375 L 12.953125 -3.609375 L 12.953125 0 L 1.625 0 L 1.625 -18.484375 L 12.953125 -18.484375 L 12.953125 -14.875 Z M 6.140625 -14.875 "/></g></g></g><g clip-path="url(#06ce9f157a)"><path fill="#cd0000" d="M 248.597656 301.824219 C 248.597656 299.320312 250.625 297.292969 253.125 297.292969 L 264.566406 297.292969 C 267.066406 297.292969 269.09375 299.320312 269.09375 301.824219 L 269.09375 313.261719 C 269.09375 315.761719 267.066406 317.789062 264.566406 317.789062 L 253.125 317.789062 C 250.625 317.789062 248.597656 315.761719 248.597656 313.261719 Z M 255.75 301.824219 C 255.75 301.429688 255.429688 301.109375 255.035156 301.109375 C 254.636719 301.109375 254.316406 301.429688 254.316406 301.824219 L 254.316406 310.402344 C 254.316406 312.375 255.917969 313.976562 257.894531 313.976562 L 259.800781 313.976562 C 261.773438 313.976562 263.375 312.375 263.375 310.402344 L 263.375 301.824219 C 263.375 301.429688 263.054688 301.109375 262.660156 301.109375 C 262.265625 301.109375 261.945312 301.429688 261.945312 301.824219 L 261.945312 310.402344 C 261.945312 311.585938 260.984375 312.546875 259.800781 312.546875 L 257.894531 312.546875 C 256.707031 312.546875 255.75 311.585938 255.75 310.402344 Z M 255.75 301.824219 " fill-opacity="1" fill-rule="evenodd"/></g><g fill="#ffffff" fill-opacity="1"><g transform="translate(55.496469, 76.116624)"><g><path d="M 8.59375 0.1875 C 7.195312 0.1875 5.945312 -0.0351562 4.84375 -0.484375 C 3.738281 -0.941406 2.851562 -1.613281 2.1875 -2.5 C 1.53125 -3.382812 1.179688 -4.457031 1.140625 -5.71875 L 6.09375 -5.71875 C 6.164062 -5.007812 6.410156 -4.46875 6.828125 -4.09375 C 7.242188 -3.71875 7.785156 -3.53125 8.453125 -3.53125 C 9.148438 -3.53125 9.695312 -3.6875 10.09375 -4 C 10.488281 -4.320312 10.6875 -4.765625 10.6875 -5.328125 C 10.6875 -5.804688 10.523438 -6.195312 10.203125 -6.5 C 9.890625 -6.8125 9.5 -7.066406 9.03125 -7.265625 C 8.570312 -7.460938 7.921875 -7.6875 7.078125 -7.9375 C 5.835938 -8.320312 4.828125 -8.703125 4.046875 -9.078125 C 3.273438 -9.460938 2.609375 -10.023438 2.046875 -10.765625 C 1.484375 -11.515625 1.203125 -12.488281 1.203125 -13.6875 C 1.203125 -15.457031 1.84375 -16.847656 3.125 -17.859375 C 4.414062 -18.867188 6.09375 -19.375 8.15625 -19.375 C 10.257812 -19.375 11.953125 -18.867188 13.234375 -17.859375 C 14.523438 -16.847656 15.21875 -15.445312 15.3125 -13.65625 L 10.28125 -13.65625 C 10.25 -14.269531 10.023438 -14.753906 9.609375 -15.109375 C 9.191406 -15.460938 8.65625 -15.640625 8 -15.640625 C 7.4375 -15.640625 6.984375 -15.488281 6.640625 -15.1875 C 6.296875 -14.894531 6.125 -14.46875 6.125 -13.90625 C 6.125 -13.28125 6.410156 -12.796875 6.984375 -12.453125 C 7.566406 -12.109375 8.476562 -11.738281 9.71875 -11.34375 C 10.945312 -10.925781 11.945312 -10.523438 12.71875 -10.140625 C 13.488281 -9.765625 14.15625 -9.210938 14.71875 -8.484375 C 15.28125 -7.765625 15.5625 -6.832031 15.5625 -5.6875 C 15.5625 -4.59375 15.285156 -3.601562 14.734375 -2.71875 C 14.179688 -1.832031 13.378906 -1.125 12.328125 -0.59375 C 11.273438 -0.0703125 10.03125 0.1875 8.59375 0.1875 Z M 8.59375 0.1875 "/></g></g></g><g fill="#ffffff" fill-opacity="1"><g transform="translate(71.746917, 76.116624)"><g/></g></g><g fill="#ffffff" fill-opacity="1"><g transform="translate(77.025364, 76.116624)"><g/></g></g><g fill="#ffffff" fill-opacity="1"><g transform="translate(82.303811, 76.116624)"><g/></g></g><g fill="#ffffff" fill-opacity="1"><g transform="translate(87.582257, 76.116624)"><g/></g></g><g fill="#ffffff" fill-opacity="1"><g transform="translate(92.860704, 76.116624)"><g/></g></g><g fill="#ffffff" fill-opacity="1"><g transform="translate(98.139149, 76.116624)"><g/></g></g><g fill="#ffffff" fill-opacity="1"><g transform="translate(103.417595, 76.116624)"><g/></g></g><g fill="#ffffff" fill-opacity="1"><g transform="translate(108.69604, 76.116624)"><g/></g></g><g fill="#ffffff" fill-opacity="1"><g transform="translate(113.974486, 76.116624)"><g/></g></g><g fill="#ffffff" fill-opacity="1"><g transform="translate(119.25882, 76.116624)"><g><path d="M 15.28125 3.265625 L 12.84375 -0.03125 C 12.113281 0.113281 11.40625 0.1875 10.71875 0.1875 C 8.925781 0.1875 7.28125 -0.226562 5.78125 -1.0625 C 4.28125 -1.894531 3.085938 -3.054688 2.203125 -4.546875 C 1.328125 -6.046875 0.890625 -7.734375 0.890625 -9.609375 C 0.890625 -11.472656 1.328125 -13.144531 2.203125 -14.625 C 3.085938 -16.113281 4.28125 -17.273438 5.78125 -18.109375 C 7.28125 -18.953125 8.925781 -19.375 10.71875 -19.375 C 12.507812 -19.375 14.15625 -18.953125 15.65625 -18.109375 C 17.15625 -17.273438 18.332031 -16.113281 19.1875 -14.625 C 20.050781 -13.144531 20.484375 -11.472656 20.484375 -9.609375 C 20.484375 -7.972656 20.148438 -6.476562 19.484375 -5.125 C 18.828125 -3.769531 17.910156 -2.648438 16.734375 -1.765625 L 20.921875 3.265625 Z M 5.65625 -9.609375 C 5.65625 -7.921875 6.113281 -6.570312 7.03125 -5.5625 C 7.945312 -4.550781 9.175781 -4.046875 10.71875 -4.046875 C 12.238281 -4.046875 13.457031 -4.550781 14.375 -5.5625 C 15.289062 -6.582031 15.75 -7.929688 15.75 -9.609375 C 15.75 -11.285156 15.289062 -12.628906 14.375 -13.640625 C 13.457031 -14.648438 12.238281 -15.15625 10.71875 -15.15625 C 9.175781 -15.15625 7.945312 -14.65625 7.03125 -13.65625 C 6.113281 -12.65625 5.65625 -11.304688 5.65625 -9.609375 Z M 5.65625 -9.609375 "/></g></g></g><g fill="#ffffff" fill-opacity="1"><g transform="translate(140.211277, 76.116624)"><g/></g></g><g clip-path="url(#95a1ebf320)"><path fill="#cd0000" d="M 93.78125 68.410156 C 93.78125 74.003906 89.308594 78.253906 83.460938 78.253906 C 77.625 78.253906 73.164062 74.003906 73.164062 68.410156 L 78.207031 68.410156 C 78.226562 71.285156 80.503906 73.488281 83.472656 73.488281 C 86.441406 73.488281 88.71875 71.285156 88.734375 68.410156 Z M 93.78125 68.410156 " fill-opacity="1" fill-rule="nonzero"/></g><g clip-path="url(#bb4450444d)"><path fill="#ffffff" d="M 88.738281 67.4375 C 88.738281 67.425781 88.738281 67.414062 88.738281 67.402344 C 88.738281 64.503906 86.453125 62.265625 83.472656 62.265625 C 80.492188 62.265625 78.207031 64.503906 78.207031 67.402344 C 78.207031 67.414062 78.207031 67.425781 78.207031 67.4375 L 73.164062 67.4375 C 73.164062 61.800781 77.636719 57.527344 83.472656 57.527344 C 89.308594 57.527344 93.78125 61.800781 93.78125 67.4375 Z M 88.738281 67.4375 " fill-opacity="1" fill-rule="nonzero"/></g><g clip-path="url(#92044a74ff)"><path fill="#ffffff" d="M 118.035156 68.410156 C 118.035156 74.003906 113.5625 78.253906 107.714844 78.253906 C 101.878906 78.253906 97.417969 74.003906 97.417969 68.410156 L 102.460938 68.410156 C 102.480469 71.285156 104.753906 73.488281 107.726562 73.488281 C 110.695312 73.488281 112.972656 71.285156 112.988281 68.410156 Z M 118.035156 68.410156 " fill-opacity="1" fill-rule="nonzero"/></g><g clip-path="url(#42c7fe1935)"><path fill="#e80000" d="M 112.992188 67.4375 C 112.992188 67.425781 112.992188 67.414062 112.992188 67.402344 C 112.992188 64.503906 110.707031 62.265625 107.726562 62.265625 C 104.746094 62.265625 102.460938 64.503906 102.460938 67.402344 C 102.460938 67.414062 102.460938 67.425781 102.460938 67.4375 L 97.417969 67.4375 C 97.417969 61.800781 101.890625 57.527344 107.726562 57.527344 C 113.5625 57.527344 118.035156 61.800781 118.035156 67.4375 Z M 112.992188 67.4375 " fill-opacity="1" fill-rule="nonzero"/></g></svg>