<svg xmlns="http://www.w3.org/2000/svg" xmlns:xlink="http://www.w3.org/1999/xlink" width="500" zoomAndPan="magnify" viewBox="0 0 375 374.999991" height="500" preserveAspectRatio="xMidYMid meet" version="1.0"><defs><g/><clipPath id="9de0dba60e"><path d="M 345 345 L 351.285156 345 L 351.285156 351.941406 L 345 351.941406 Z M 345 345 " clip-rule="nonzero"/></clipPath><clipPath id="581ca032a1"><path d="M 23.535156 28 L 29 28 L 29 346 L 23.535156 346 Z M 23.535156 28 " clip-rule="nonzero"/></clipPath><clipPath id="7edff8dc63"><path d="M 23.535156 345 L 29 345 L 29 351.941406 L 23.535156 351.941406 Z M 23.535156 345 " clip-rule="nonzero"/></clipPath><clipPath id="0a2d93880d"><path d="M 345 28 L 351.285156 28 L 351.285156 346 L 345 346 Z M 345 28 " clip-rule="nonzero"/></clipPath><clipPath id="d05350ab06"><path d="M 28 345 L 346 345 L 346 351.941406 L 28 351.941406 Z M 28 345 " clip-rule="nonzero"/></clipPath><clipPath id="3c0ddb49db"><path d="M 345 22.691406 L 351.285156 22.691406 L 351.285156 29 L 345 29 Z M 345 22.691406 " clip-rule="nonzero"/></clipPath><clipPath id="9fefc453ca"><path d="M 23.535156 22.691406 L 29 22.691406 L 29 29 L 23.535156 29 Z M 23.535156 22.691406 " clip-rule="nonzero"/></clipPath><clipPath id="f5dec63544"><path d="M 28 22.691406 L 346 22.691406 L 346 29 L 28 29 Z M 28 22.691406 " clip-rule="nonzero"/></clipPath><clipPath id="e4d8424526"><path d="M 37.5 37.5 L 255 37.5 L 255 255 L 37.5 255 Z M 37.5 37.5 " clip-rule="nonzero"/></clipPath><clipPath id="bb55f30c76"><path d="M 120 120 L 337.5 120 L 337.5 337.5 L 120 337.5 Z M 120 120 " clip-rule="nonzero"/></clipPath><clipPath id="f9b285aa51"><path d="M 152.742188 142.824219 L 182 142.824219 L 182 198 L 152.742188 198 Z M 152.742188 142.824219 " clip-rule="nonzero"/></clipPath><clipPath id="1b5e4c359c"><path d="M 152.742188 212 L 182 212 L 182 232.074219 L 152.742188 232.074219 Z M 152.742188 212 " clip-rule="nonzero"/></clipPath><clipPath id="9fcb0d7a14"><path d="M 152.742188 212 L 182 212 L 182 232 L 152.742188 232 Z M 152.742188 212 " clip-rule="nonzero"/></clipPath><clipPath id="c1c92f0161"><path d="M 193 177 L 222.492188 177 L 222.492188 232.074219 L 193 232.074219 Z M 193 177 " clip-rule="nonzero"/></clipPath><clipPath id="cb84aa94ca"><path d="M 193 142.824219 L 222.492188 142.824219 L 222.492188 163 L 193 163 Z M 193 142.824219 " clip-rule="nonzero"/></clipPath><clipPath id="f9d80261cc"><path d="M 193 143 L 222.492188 143 L 222.492188 163 L 193 163 Z M 193 143 " clip-rule="nonzero"/></clipPath></defs><rect x="-37.5" width="450" fill="#ffffff" y="-37.499999" height="449.999989" fill-opacity="1"/><g clip-path="url(#9de0dba60e)"><path fill="#e80000" d="M 345.667969 345.667969 L 355.671875 345.667969 L 355.671875 355.671875 L 345.667969 355.671875 Z M 345.667969 345.667969 " fill-opacity="1" fill-rule="nonzero"/></g><g clip-path="url(#581ca032a1)"><path fill="#e80000" d="M 18.476562 28.59375 L 28.59375 28.59375 L 28.59375 345.667969 L 18.476562 345.667969 Z M 18.476562 28.59375 " fill-opacity="1" fill-rule="nonzero"/></g><g clip-path="url(#7edff8dc63)"><path fill="#e80000" d="M 18.476562 345.667969 L 28.59375 345.667969 L 28.59375 355.671875 L 18.476562 355.671875 Z M 18.476562 345.667969 " fill-opacity="1" fill-rule="nonzero"/></g><g clip-path="url(#0a2d93880d)"><path fill="#e80000" d="M 345.667969 28.59375 L 355.671875 28.59375 L 355.671875 345.667969 L 345.667969 345.667969 Z M 345.667969 28.59375 " fill-opacity="1" fill-rule="nonzero"/></g><g clip-path="url(#d05350ab06)"><path fill="#e80000" d="M 28.59375 345.667969 L 345.667969 345.667969 L 345.667969 355.671875 L 28.59375 355.671875 Z M 28.59375 345.667969 " fill-opacity="1" fill-rule="nonzero"/></g><g clip-path="url(#3c0ddb49db)"><path fill="#e80000" d="M 345.667969 18.476562 L 355.671875 18.476562 L 355.671875 28.59375 L 345.667969 28.59375 Z M 345.667969 18.476562 " fill-opacity="1" fill-rule="nonzero"/></g><g clip-path="url(#9fefc453ca)"><path fill="#e80000" d="M 18.476562 18.476562 L 28.59375 18.476562 L 28.59375 28.59375 L 18.476562 28.59375 Z M 18.476562 18.476562 " fill-opacity="1" fill-rule="nonzero"/></g><g clip-path="url(#f5dec63544)"><path fill="#e80000" d="M 28.59375 18.476562 L 345.667969 18.476562 L 345.667969 28.59375 L 28.59375 28.59375 Z M 28.59375 18.476562 " fill-opacity="1" fill-rule="nonzero"/></g><g clip-path="url(#e4d8424526)"><path fill="#000000" d="M 254.167969 37.5 L 254.167969 104.167969 L 237.5 104.167969 L 237.5 54.167969 L 54.167969 54.167969 L 54.167969 237.5 L 104.167969 237.5 L 104.167969 254.167969 L 37.5 254.167969 L 37.5 37.5 Z M 254.167969 37.5 " fill-opacity="1" fill-rule="nonzero"/></g><g clip-path="url(#bb55f30c76)"><path fill="#000000" d="M 120.832031 120.832031 L 337.5 120.832031 L 337.5 337.5 L 120.832031 337.5 Z M 137.5 320.832031 L 320.832031 320.832031 L 320.832031 137.5 L 137.5 137.5 Z M 137.5 320.832031 " fill-opacity="1" fill-rule="nonzero"/></g><path fill="#000000" d="M 237.5 237.5 L 237.5 154.167969 L 254.167969 154.167969 L 254.167969 254.167969 L 154.167969 254.167969 L 154.167969 237.5 Z M 237.5 237.5 " fill-opacity="1" fill-rule="nonzero"/><g clip-path="url(#f9b285aa51)"><path fill="#f80000" d="M 180.050781 142.824219 L 181.289062 142.824219 L 181.289062 162.679688 L 180.050781 162.679688 C 175.929688 162.679688 172.605469 166.003906 172.605469 170.125 C 172.605469 172.183594 173.449219 174.046875 174.789062 175.386719 C 176.128906 176.726562 177.988281 177.570312 180.050781 177.570312 L 181.289062 177.570312 L 181.289062 197.425781 L 180.050781 197.425781 C 164.960938 197.425781 152.75 185.214844 152.75 170.125 C 152.75 162.582031 155.800781 155.753906 160.742188 150.816406 C 165.679688 145.878906 172.503906 142.824219 180.050781 142.824219 " fill-opacity="1" fill-rule="evenodd"/></g><g clip-path="url(#1b5e4c359c)"><path fill="#000000" d="M 172.605469 212.316406 L 181.289062 212.316406 L 181.289062 232.167969 L 152.75 232.167969 C 152.75 221.199219 161.632812 212.316406 172.605469 212.316406 " fill-opacity="1" fill-rule="evenodd"/></g><g clip-path="url(#9fcb0d7a14)"><path fill="#545454" d="M 181.289062 212.316406 L 181.289062 222.242188 L 172.605469 222.242188 C 161.980469 222.242188 153.296875 226.410156 152.773438 231.648438 C 153.023438 220.925781 161.808594 212.316406 172.605469 212.316406 Z M 181.289062 212.316406 " fill-opacity="1" fill-rule="evenodd"/></g><g clip-path="url(#c1c92f0161)"><path fill="#f80000" d="M 222.238281 204.871094 C 222.238281 212.414062 219.1875 219.238281 214.25 224.179688 C 209.285156 229.117188 202.484375 232.167969 194.941406 232.167969 L 193.699219 232.167969 L 193.699219 212.316406 L 194.941406 212.316406 C 199.058594 212.316406 202.382812 208.988281 202.382812 204.871094 C 202.386719 202.808594 201.542969 200.949219 200.199219 199.609375 C 198.859375 198.269531 197 197.425781 194.941406 197.425781 L 193.699219 197.425781 L 193.699219 177.570312 L 194.941406 177.570312 C 210.003906 177.570312 222.238281 189.78125 222.238281 204.871094 " fill-opacity="1" fill-rule="evenodd"/></g><g clip-path="url(#cb84aa94ca)"><path fill="#000000" d="M 202.386719 162.679688 L 193.699219 162.679688 L 193.699219 142.824219 L 222.238281 142.824219 C 222.238281 153.796875 213.355469 162.679688 202.386719 162.679688 " fill-opacity="1" fill-rule="evenodd"/></g><g clip-path="url(#f9d80261cc)"><path fill="#545454" d="M 222.214844 143.347656 C 221.964844 154.070312 213.179688 162.679688 202.382812 162.679688 L 193.699219 162.679688 L 193.699219 152.753906 L 202.386719 152.753906 C 213.007812 152.753906 221.695312 148.582031 222.214844 143.347656 " fill-opacity="1" fill-rule="evenodd"/></g><path fill="#cd0000" d="M 212.3125 204.871094 C 212.3125 214.472656 204.542969 222.242188 194.941406 222.242188 C 194.519531 222.242188 194.097656 222.21875 193.699219 222.167969 L 193.699219 212.316406 L 194.941406 212.316406 C 199.058594 212.316406 202.382812 208.988281 202.382812 204.871094 C 202.386719 202.808594 201.542969 200.949219 200.199219 199.609375 C 198.859375 198.269531 197 197.425781 194.941406 197.425781 L 193.699219 197.425781 L 193.699219 187.574219 C 194.097656 187.523438 194.515625 187.496094 194.941406 187.496094 C 204.542969 187.496094 212.3125 195.265625 212.3125 204.871094 " fill-opacity="1" fill-rule="evenodd"/><path fill="#cd0000" d="M 162.675781 170.125 C 162.675781 160.519531 170.445312 152.753906 180.050781 152.753906 C 180.472656 152.753906 180.894531 152.777344 181.289062 152.828125 L 181.289062 162.679688 L 180.050781 162.679688 C 175.929688 162.679688 172.605469 166.003906 172.605469 170.125 C 172.605469 172.183594 173.449219 174.046875 174.789062 175.386719 C 176.128906 176.726562 177.988281 177.570312 180.050781 177.570312 L 181.289062 177.570312 L 181.289062 187.421875 C 180.894531 187.472656 180.472656 187.496094 180.050781 187.496094 C 170.445312 187.496094 162.675781 179.730469 162.675781 170.125 " fill-opacity="1" fill-rule="evenodd"/><g fill="#000000" fill-opacity="1"><g transform="translate(57.003355, 80.416723)"><g><path d="M 16.378906 -21.050781 L 12.476562 -24.953125 L 8.574219 -21.050781 L 12.476562 -17.175781 Z M 24.15625 -21.050781 L 20.28125 -24.953125 L 16.378906 -21.050781 L 20.28125 -17.175781 Z M 16.378906 -15.582031 C 12.0625 -15.582031 8.574219 -12.0625 8.574219 -7.777344 C 8.574219 -3.460938 12.0625 0 16.378906 0 L 8.574219 0 L 0.796875 -7.804688 L 0.796875 0 C 0.796875 4.285156 4.285156 7.777344 8.574219 7.777344 L 16.378906 7.777344 C 20.664062 7.777344 24.15625 4.285156 24.15625 0 L 24.15625 -7.777344 C 24.15625 -12.0625 20.664062 -15.582031 16.378906 -15.582031 Z M 16.378906 -15.582031 "/></g></g></g><g fill="#cd0000" fill-opacity="1"><g transform="translate(81.952572, 80.416723)"><g><path d="M 8.574219 -15.582031 C 4.285156 -15.582031 0.796875 -12.0625 0.796875 -7.777344 L 0.796875 0 L 8.574219 0 L 8.574219 7.777344 L 16.378906 0 L 16.378906 -7.777344 C 16.378906 -12.0625 12.886719 -15.582031 8.574219 -15.582031 Z M 8.574219 -15.582031 "/></g></g></g><g fill="#000000" fill-opacity="1"><g transform="translate(98.335384, 80.416723)"><g><path d="M 17.175781 -7.777344 L 17.175781 -15.582031 L 9.398438 -7.777344 L 9.398438 -15.582031 L 1.59375 -7.777344 L -0.246094 -7.777344 C -1.210938 -7.777344 -1.921875 -7.0625 -1.921875 -6.101562 L -1.921875 -1.675781 C -1.921875 -0.714844 -1.210938 0 -0.246094 0 L 17.175781 0 C 21.488281 0 24.980469 -3.460938 24.980469 -7.777344 L 24.980469 -15.582031 Z M 17.175781 -7.777344 "/></g></g></g><g fill="#000000" fill-opacity="1"><g transform="translate(219.236562, 311.57793)"><g><path d="M 0.796875 -7.777344 L 0.796875 7.777344 L 8.574219 0 L 8.574219 -15.582031 Z M 0.796875 -7.777344 "/></g></g></g><g fill="#000000" fill-opacity="1"><g transform="translate(227.80679, 311.57793)"><g><path d="M 15.582031 -7.777344 L -0.246094 -7.777344 C -1.210938 -7.777344 -1.921875 -7.0625 -1.921875 -6.101562 L -1.921875 -1.675781 C -1.921875 -0.714844 -1.210938 0 -0.246094 0 L 15.582031 0 C 19.867188 0 23.359375 -3.488281 23.359375 -7.777344 L 23.359375 -15.582031 Z M 2.941406 4.671875 L 6.84375 8.574219 L 10.746094 4.671875 L 6.84375 0.796875 Z M 10.746094 4.671875 L 14.648438 8.574219 L 18.523438 4.671875 L 14.648438 0.796875 Z M 10.746094 4.671875 "/></g></g></g><g fill="#cd0000" fill-opacity="1"><g transform="translate(251.955309, 311.57793)"><g><path d="M 8.574219 -15.582031 C 4.285156 -15.582031 0.796875 -12.0625 0.796875 -7.777344 L 0.796875 0 L 8.574219 0 L 8.574219 7.777344 L 16.378906 0 L 16.378906 -7.777344 C 16.378906 -12.0625 12.886719 -15.582031 8.574219 -15.582031 Z M 8.574219 -15.582031 "/></g></g></g><g fill="#000000" fill-opacity="1"><g transform="translate(268.338121, 311.57793)"><g><path d="M 17.148438 -15.582031 L 9.34375 -15.582031 L 17.148438 -23.386719 L 9.34375 -23.386719 C 5.054688 -23.386719 1.566406 -19.867188 1.566406 -15.582031 C 1.566406 -11.265625 5.054688 -7.777344 9.34375 -7.777344 L -0.246094 -7.777344 C -1.210938 -7.777344 -1.921875 -7.0625 -1.921875 -6.101562 L -1.921875 -1.675781 C -1.921875 -0.714844 -1.210938 0 -0.246094 0 L 24.925781 0 L 24.925781 -7.777344 C 24.925781 -12.089844 21.433594 -15.582031 17.148438 -15.582031 Z M 17.148438 -15.582031 "/></g></g></g><g fill="#000000" fill-opacity="1"><g transform="translate(293.252216, 311.57793)"><g><path d="M 17.175781 -7.777344 L 17.175781 -15.582031 L 9.398438 -7.777344 L 9.398438 -15.582031 L 1.59375 -7.777344 L -0.246094 -7.777344 C -1.210938 -7.777344 -1.921875 -7.0625 -1.921875 -6.101562 L -1.921875 -1.675781 C -1.921875 -0.714844 -1.210938 0 -0.246094 0 L 17.175781 0 C 21.488281 0 24.980469 -3.460938 24.980469 -7.777344 L 24.980469 -15.582031 Z M 17.175781 -7.777344 "/></g></g></g></svg>