<svg xmlns="http://www.w3.org/2000/svg" xmlns:xlink="http://www.w3.org/1999/xlink" width="500" zoomAndPan="magnify" viewBox="0 0 375 374.999991" height="500" preserveAspectRatio="xMidYMid meet" version="1.0"><defs><clipPath id="4789d2d2f9"><path d="M 0 0 L 374.449219 0 L 374.449219 374.449219 L 0 374.449219 Z M 0 0 " clip-rule="nonzero"/></clipPath><clipPath id="523e5b9d7a"><path d="M 0 22.5 L 0 352.5 C 0 358.46875 2.371094 364.191406 6.589844 368.410156 C 10.808594 372.628906 16.53125 375 22.5 375 L 352.5 375 C 358.46875 375 364.191406 372.628906 368.410156 368.410156 C 372.628906 364.191406 375 358.46875 375 352.5 L 375 22.5 C 375 16.53125 372.628906 10.808594 368.410156 6.589844 C 364.191406 2.371094 358.46875 0 352.5 0 L 22.5 0 C 16.53125 0 10.808594 2.371094 6.589844 6.589844 C 2.371094 10.808594 0 16.53125 0 22.5 Z M 0 22.5 " clip-rule="nonzero"/></clipPath><clipPath id="09dc283013"><path d="M 27 27 L 348 27 L 348 348 L 27 348 Z M 27 27 " clip-rule="nonzero"/></clipPath><clipPath id="f512e45474"><path d="M 0 22.5 L 0 352.5 C 0 358.46875 2.371094 364.191406 6.589844 368.410156 C 10.808594 372.628906 16.53125 375 22.5 375 L 352.5 375 C 358.46875 375 364.191406 372.628906 368.410156 368.410156 C 372.628906 364.191406 375 358.46875 375 352.5 L 375 22.5 C 375 16.53125 372.628906 10.808594 368.410156 6.589844 C 364.191406 2.371094 358.46875 0 352.5 0 L 22.5 0 C 16.53125 0 10.808594 2.371094 6.589844 6.589844 C 2.371094 10.808594 0 16.53125 0 22.5 Z M 0 22.5 " clip-rule="nonzero"/></clipPath><clipPath id="a8ba6b3a66"><path d="M 132 121.171875 L 242 121.171875 L 242 254 L 132 254 Z M 132 121.171875 " clip-rule="nonzero"/></clipPath><clipPath id="8dc48d25eb"><path d="M 130.957031 143.671875 L 130.957031 231.328125 C 130.957031 237.296875 133.324219 243.019531 137.546875 247.238281 C 141.765625 251.457031 147.488281 253.828125 153.457031 253.828125 L 221.542969 253.828125 C 227.511719 253.828125 233.234375 251.457031 237.453125 247.238281 C 241.675781 243.019531 244.042969 237.296875 244.042969 231.328125 L 244.042969 143.671875 C 244.042969 137.703125 241.675781 131.980469 237.453125 127.761719 C 233.234375 123.542969 227.511719 121.171875 221.542969 121.171875 L 153.457031 121.171875 C 147.488281 121.171875 141.765625 123.542969 137.546875 127.761719 C 133.324219 131.980469 130.957031 137.703125 130.957031 143.671875 Z M 130.957031 143.671875 " clip-rule="nonzero"/></clipPath></defs><rect x="-37.5" width="450" fill="#ffffff" y="-37.499999" height="449.999989" fill-opacity="1"/><rect x="-37.5" width="450" fill="#ffffff" y="-37.499999" height="449.999989" fill-opacity="1"/><g clip-path="url(#4789d2d2f9)"><g clip-path="url(#523e5b9d7a)"><path fill="#fe2635" d="M 0 0 L 374.976562 0 L 374.976562 374.976562 L 0 374.976562 Z M 0 0 " fill-opacity="1" fill-rule="nonzero"/></g></g><g clip-path="url(#09dc283013)"><g clip-path="url(#f512e45474)"><path fill="#ffffff" d="M 347.480469 178.738281 L 262.691406 178.113281 L 344.5625 156.65625 L 339.5625 137.492188 L 257.691406 158.949219 L 331.230469 116.867188 L 321.4375 99.578125 L 247.902344 141.65625 L 307.898438 81.871094 L 293.941406 67.914062 L 233.945312 127.492188 L 276.441406 54.371094 L 259.152344 44.371094 L 216.652344 117.492188 L 238.734375 35.832031 L 219.363281 30.625 L 197.488281 112.285156 L 197.488281 27.707031 L 177.488281 27.707031 L 177.488281 107.703125 L 157.90625 30.207031 L 138.53125 34.996094 L 159.363281 117.074219 L 117.910156 43.121094 L 100.617188 52.914062 L 142.074219 126.660156 L 82.910156 66.246094 L 68.746094 80.203125 L 127.699219 140.617188 L 54.996094 97.703125 L 44.789062 114.785156 L 117.699219 157.699219 L 36.039062 135.199219 L 30.832031 154.367188 L 112.285156 176.863281 L 27.707031 176.238281 L 27.5 196.238281 L 112.285156 196.863281 L 30.414062 218.320312 L 35.414062 237.484375 L 117.285156 216.027344 L 43.746094 258.109375 L 53.539062 275.398438 L 127.074219 233.320312 L 67.078125 293.105469 L 81.035156 307.0625 L 141.03125 247.484375 L 98.535156 320.605469 L 115.824219 330.605469 L 158.324219 257.484375 L 136.242188 339.144531 L 155.617188 344.355469 L 177.488281 262.691406 L 177.488281 347.269531 L 197.488281 347.269531 L 197.488281 267.273438 L 217.070312 344.769531 L 236.445312 339.980469 L 215.613281 257.902344 L 257.066406 331.855469 L 274.359375 322.0625 L 232.902344 248.316406 L 292.066406 308.730469 L 306.230469 294.773438 L 247.277344 234.359375 L 319.980469 277.273438 L 330.1875 260.191406 L 257.277344 217.277344 L 338.9375 239.777344 L 344.144531 220.613281 L 262.691406 198.113281 L 347.269531 198.738281 Z M 347.480469 178.738281 " fill-opacity="1" fill-rule="nonzero"/></g></g><g clip-path="url(#a8ba6b3a66)"><g clip-path="url(#8dc48d25eb)"><path fill="#000000" d="M 168.390625 148.671875 C 164.910156 148.671875 162.082031 148.671875 159.25 148.671875 C 156.652344 148.671875 154.0625 148.648438 151.464844 148.671875 C 149.664062 148.6875 148.296875 149.328125 148.226562 151.414062 C 148.160156 153.585938 149.6875 154.203125 151.378906 154.25 C 155.320312 154.347656 159.261719 154.28125 163.207031 154.28125 C 163.238281 154.695312 163.273438 155.113281 163.308594 155.527344 C 162.761719 155.699219 162.222656 156.007812 161.679688 156.019531 C 158.484375 156.070312 155.289062 156.035156 152.09375 156.054688 C 151.09375 156.058594 149.875 155.761719 149.152344 156.238281 C 147.957031 157.015625 147.089844 158.304688 146.085938 159.378906 C 147.128906 160.296875 148.097656 161.894531 149.222656 162.007812 C 153.082031 162.414062 156.988281 162.308594 160.878906 162.386719 C 161.785156 162.402344 162.699219 162.390625 163.605469 162.390625 C 163.640625 162.71875 163.675781 163.054688 163.710938 163.382812 C 162.859375 163.519531 162.007812 163.753906 161.152344 163.769531 C 158.160156 163.824219 155.121094 163.5 152.183594 163.9375 C 150.726562 164.152344 148.40625 165.628906 148.335938 166.667969 C 148.179688 168.910156 150.085938 169.972656 152.433594 169.925781 C 156.054688 169.855469 159.679688 169.90625 163.300781 169.90625 C 163.355469 170.222656 163.410156 170.546875 163.46875 170.863281 C 162.632812 171.113281 161.808594 171.523438 160.953125 171.589844 C 159.367188 171.714844 157.625 171.246094 156.207031 171.761719 C 154.84375 172.253906 153.820312 173.675781 152.644531 174.6875 C 153.789062 175.566406 154.957031 177.222656 156.074219 177.191406 C 162.519531 176.992188 169.535156 177.890625 175.265625 175.605469 C 185.53125 171.519531 195.847656 172.917969 205.953125 173.464844 C 220.101562 174.238281 230.875 181.960938 237.121094 195.105469 C 243.015625 207.511719 242.855469 220.011719 236.621094 232.382812 C 230.976562 243.578125 222.097656 250.414062 209.9375 252.617188 C 205.1875 253.480469 200.316406 253.929688 195.484375 254.007812 C 183.207031 254.199219 170.90625 254.429688 158.640625 253.972656 C 147.929688 253.582031 141.21875 244.988281 144.484375 234.433594 C 146.125 229.125 150.480469 225.382812 156.300781 225.277344 C 168.78125 225.050781 181.261719 225.175781 193.746094 225.164062 C 194.140625 225.164062 194.648438 225.113281 194.917969 225.328125 C 198.890625 228.441406 203.753906 228.308594 208.328125 228.824219 C 212.351562 229.277344 216.484375 229.003906 220.53125 228.648438 C 221.449219 228.566406 222.222656 226.808594 223.058594 225.824219 C 222 225.105469 221.019531 223.9375 219.875 223.746094 C 217.351562 223.332031 214.746094 223.402344 212.179688 223.277344 C 212.1875 222.746094 212.199219 222.222656 212.210938 221.691406 C 214.980469 221.691406 217.742188 221.667969 220.511719 221.703125 C 221.605469 221.714844 222.703125 221.941406 223.792969 221.898438 C 225.699219 221.824219 227.023438 220.601562 226.636719 218.816406 C 226.394531 217.703125 224.914062 216.226562 223.835938 216.074219 C 220.992188 215.675781 218.058594 215.925781 215.167969 215.878906 C 214.230469 215.863281 213.296875 215.71875 212.359375 215.632812 C 212.324219 215.335938 212.285156 215.046875 212.246094 214.75 C 212.964844 214.542969 213.683594 214.164062 214.402344 214.15625 C 218.191406 214.082031 221.984375 214.007812 225.765625 214.128906 C 227.964844 214.199219 229.195312 213.570312 229.253906 211.152344 C 229.3125 208.695312 228.039062 208.019531 225.875 208.074219 C 222.382812 208.160156 218.886719 208.144531 215.394531 208.144531 C 214.433594 208.144531 213.476562 208.0625 212.519531 208.019531 C 212.449219 207.710938 212.382812 207.402344 212.3125 207.09375 C 213.171875 206.835938 214.019531 206.390625 214.882812 206.355469 C 217.871094 206.242188 220.898438 206.507812 223.851562 206.125 C 224.941406 205.984375 226.457031 204.621094 226.734375 203.539062 C 227.226562 201.582031 225.722656 200.664062 223.847656 200.652344 C 219.554688 200.621094 215.257812 200.640625 210.96875 200.613281 C 209.910156 200.609375 208.859375 200.503906 207.273438 200.417969 C 208.535156 198.597656 209.671875 197.328125 210.347656 195.84375 C 210.769531 194.921875 210.921875 193.070312 210.417969 192.695312 C 209.601562 192.082031 207.816406 191.796875 207.027344 192.3125 C 204.277344 194.105469 201.578125 196.089844 199.230469 198.386719 C 196.6875 200.871094 193.996094 202.042969 190.410156 201.925781 C 183.929688 201.714844 177.414062 202.207031 170.945312 201.84375 C 158.988281 201.175781 148.8125 196.714844 141.164062 186.890625 C 133.503906 177.058594 131.042969 165.796875 133.03125 153.859375 C 134.070312 147.574219 136.820312 141.515625 141.097656 136.292969 C 146.441406 129.757812 152.847656 125.371094 160.855469 122.867188 C 165.371094 121.449219 169.792969 121.148438 174.402344 121.171875 C 187.984375 121.242188 201.566406 121.1875 215.144531 121.203125 C 225.21875 121.222656 231.683594 129.082031 229.878906 139.082031 C 228.84375 144.847656 223.59375 149.464844 217.144531 149.589844 C 205.464844 149.8125 193.777344 149.773438 182.09375 149.644531 C 180.6875 149.628906 179.148438 148.582031 177.910156 147.675781 C 174.867188 145.425781 172.054688 142.84375 168.949219 140.695312 C 168.058594 140.078125 166.496094 140.460938 165.246094 140.390625 C 165.207031 141.714844 164.785156 143.179688 165.222656 144.316406 C 165.761719 145.714844 167.011719 146.835938 168.390625 148.671875 Z M 168.390625 148.671875 " fill-opacity="1" fill-rule="nonzero"/></g></g></svg>