<svg width="371" height="238" viewBox="0 0 371 238" fill="none" xmlns="http://www.w3.org/2000/svg">
<g clip-path="url(#clip0_508_312)">
<rect x="2.24255" y="0.0119324" width="368.51" height="236.04" rx="36" transform="rotate(0.304624 2.24255 0.0119324)" fill="#5CAFFC"/>
<ellipse cx="40.7232" cy="40.8626" rx="40.7232" ry="40.8626" transform="matrix(0.999993 -0.00376273 0.00373709 0.999993 109.151 138.663)" stroke="white" stroke-opacity="0.06" stroke-width="7.88843"/>
<ellipse cx="74.6592" cy="74.9148" rx="74.6592" ry="74.9148" transform="matrix(0.999993 -0.00376273 0.00373709 0.999993 75.3586 104.465)" stroke="white" stroke-opacity="0.06" stroke-width="7.88843"/>
<ellipse cx="108.595" cy="108.967" rx="108.595" ry="108.967" transform="matrix(0.999993 -0.00376273 0.00373709 0.999993 41.0251 70.8141)" stroke="white" stroke-opacity="0.06" stroke-width="7.88843"/>
<ellipse cx="142.531" cy="143.019" rx="142.531" ry="143.019" transform="matrix(0.999993 -0.00376273 0.00373709 0.999993 7.23242 36.6165)" stroke="white" stroke-opacity="0.06" stroke-width="7.88843"/>
<ellipse cx="176.467" cy="177.071" rx="176.467" ry="177.071" transform="matrix(0.999993 -0.00376273 0.00373709 0.999993 -27.1011 2.96567)" stroke="white" stroke-opacity="0.06" stroke-width="7.88843"/>
<ellipse cx="210.403" cy="211.123" rx="210.403" ry="211.123" transform="matrix(0.999993 -0.00371002 0.00379018 0.999993 -60.8937 -31.2321)" stroke="white" stroke-opacity="0.06" stroke-width="7.88843"/>
</g>
<defs>
<clipPath id="clip0_508_312">
<rect x="2.24255" y="0.0119324" width="368.51" height="236.04" rx="36" transform="rotate(0.304624 2.24255 0.0119324)" fill="white"/>
</clipPath>
</defs>
</svg>
