<svg width="370" height="238" viewBox="0 0 370 238" fill="none" xmlns="http://www.w3.org/2000/svg">
<g clip-path="url(#clip0_508_328)">
<rect x="1.49756" y="0.0119324" width="368.51" height="236.04" rx="36" transform="rotate(0.304624 1.49756 0.0119324)" fill="#3563E9"/>
<path d="M-0.709275 118.328L-10.4438 94.6109L-0.583455 94.6633L9.27694 94.7158L19.0115 118.433L9.0253 142.046L-0.835096 141.993L-10.6955 141.941L-0.709275 118.328Z" fill="white" fill-opacity="0.06"/>
<path d="M35.1826 118.519L25.448 94.8017L35.3084 94.8541L45.1688 94.9065L54.9034 118.624L44.9171 142.236L35.0568 142.184L25.1964 142.132L35.1826 118.519Z" fill="white" fill-opacity="0.06"/>
<path d="M87.478 191.157L75.1023 152.925L87.638 153.009L100.174 153.094L112.549 191.326L99.8537 229.389L87.318 229.305L74.7824 229.22L87.478 191.157Z" fill="white" fill-opacity="0.06"/>
<path d="M49.4382 190.244L37.0625 152.012L49.5982 152.096L62.1338 152.181L74.5095 190.413L61.8139 228.476L49.2782 228.392L36.7426 228.307L49.4382 190.244Z" fill="white" fill-opacity="0.06"/>
<path d="M16.4382 190.244L4.0625 152.012L16.5982 152.096L29.1338 152.181L41.5095 190.413L28.8139 228.476L16.2782 228.392L3.74259 228.307L16.4382 190.244Z" fill="white" fill-opacity="0.06"/>
<path d="M133.108 191.465L120.732 153.233L133.268 153.317L145.804 153.402L158.179 191.634L145.484 229.697L132.948 229.612L120.412 229.528L133.108 191.465Z" fill="white" fill-opacity="0.06"/>
<path d="M178.738 191.772L166.362 153.54L178.898 153.625L191.433 153.709L203.809 191.941L191.113 230.005L178.578 229.92L166.042 229.836L178.738 191.772Z" fill="white" fill-opacity="0.06"/>
<path d="M224.368 192.08L211.992 153.848L224.528 153.932L237.063 154.017L249.439 192.249L236.743 230.312L224.208 230.228L211.672 230.143L224.368 192.08Z" fill="white" fill-opacity="0.06"/>
<path d="M269.998 192.388L257.622 154.155L270.157 154.24L282.693 154.324L295.069 192.557L282.373 230.62L269.838 230.535L257.302 230.451L269.998 192.388Z" fill="white" fill-opacity="0.06"/>
<path d="M315.627 192.695L303.251 154.463L315.787 154.547L328.323 154.632L340.698 192.864L328.003 230.927L315.467 230.843L302.932 230.758L315.627 192.695Z" fill="white" fill-opacity="0.06"/>
<path d="M17.291 71.0928L7.5564 47.3754L17.4168 47.4278L27.2772 47.4802L37.0118 71.1976L27.0255 94.8101L17.1651 94.7577L7.30476 94.7053L17.291 71.0928Z" fill="white" fill-opacity="0.06"/>
<path d="M64.7324 114.706L52.3567 76.474L64.8924 76.5585L77.428 76.643L89.8037 114.875L77.1081 152.938L64.5724 152.854L52.0368 152.769L64.7324 114.706Z" fill="white" fill-opacity="0.06"/>
<path d="M110.362 115.014L97.9866 76.7816L110.522 76.8661L123.058 76.9506L135.434 115.183L122.738 153.246L110.202 153.162L97.6667 153.077L110.362 115.014Z" fill="white" fill-opacity="0.06"/>
<path d="M155.992 115.321L143.616 77.0892L156.152 77.1737L168.688 77.2583L181.063 115.49L168.368 153.554L155.832 153.469L143.297 153.385L155.992 115.321Z" fill="white" fill-opacity="0.06"/>
<path d="M201.622 115.629L189.246 77.3968L201.782 77.4813L214.318 77.5658L226.693 115.798L213.998 153.861L201.462 153.777L188.926 153.692L201.622 115.629Z" fill="white" fill-opacity="0.06"/>
<path d="M247.252 115.937L234.876 77.7045L247.412 77.789L259.947 77.8735L272.323 116.106L259.627 154.169L247.092 154.084L234.556 154L247.252 115.937Z" fill="white" fill-opacity="0.06"/>
<path d="M292.882 116.244L280.506 78.0121L293.042 78.0966L305.577 78.1811L317.953 116.413L305.257 154.477L292.722 154.392L280.186 154.308L292.882 116.244Z" fill="white" fill-opacity="0.06"/>
<path d="M338.511 116.552L326.135 78.3197L338.671 78.4042L351.207 78.4888L363.583 116.721L350.887 154.784L338.351 154.7L325.816 154.615L338.511 116.552Z" fill="white" fill-opacity="0.06"/>
<path d="M-0.600633 23.6664L-10.3352 -0.0509949L-0.474812 0.00143031L9.38558 0.0538555L19.1202 23.7712L9.13394 47.3837L-0.726453 47.3313L-10.5868 47.2789L-0.600633 23.6664Z" fill="white" fill-opacity="0.06"/>
<path d="M35.2915 23.8572L25.5569 0.139801L35.4173 0.192226L45.2777 0.244651L55.0122 23.962L45.026 47.5745L35.1656 47.5221L25.3052 47.4697L35.2915 23.8572Z" fill="white" fill-opacity="0.06"/>
<path d="M87.6139 38.5614L75.241 0.330688L87.7766 0.413732L100.312 0.496776L112.685 38.7275L99.9868 76.7922L87.4511 76.7091L74.9154 76.6261L87.6139 38.5614Z" fill="white" fill-opacity="0.06"/>
<path d="M133.246 38.8704L120.871 0.638214L133.406 0.722723L145.942 0.807232L158.318 39.0395L145.622 77.1027L133.086 77.0182L120.551 76.9336L133.246 38.8704Z" fill="white" fill-opacity="0.06"/>
<path d="M178.876 39.1782L166.5 0.945953L179.036 1.03046L191.572 1.11497L203.948 39.3472L191.252 77.4104L178.716 77.3259L166.181 77.2414L178.876 39.1782Z" fill="white" fill-opacity="0.06"/>
<path d="M224.506 39.4857L212.13 1.25348L224.666 1.33799L237.202 1.4225L249.577 39.6547L236.882 77.7179L224.346 77.6334L211.81 77.5489L224.506 39.4857Z" fill="white" fill-opacity="0.06"/>
<path d="M270.136 39.7934L257.76 1.56113L270.296 1.64564L282.832 1.73014L295.207 39.9624L282.512 78.0256L269.976 77.9411L257.44 77.8566L270.136 39.7934Z" fill="white" fill-opacity="0.06"/>
<path d="M315.766 40.101L303.39 1.86874L315.926 1.95325L328.461 2.03776L340.837 40.27L328.142 78.3332L315.606 78.2487L303.07 78.1642L315.766 40.101Z" fill="white" fill-opacity="0.06"/>
</g>
<defs>
<clipPath id="clip0_508_328">
<rect x="1.49756" y="0.0119324" width="368.51" height="236.04" rx="36" transform="rotate(0.304624 1.49756 0.0119324)" fill="white"/>
</clipPath>
</defs>
</svg>
